<svg width="79" height="84" viewBox="0 0 79 84" fill="none" xmlns="http://www.w3.org/2000/svg">
<path d="M1.708 21.1504C0.614 22.9134 0 24.9304 0 27.1244V55.9484C0 60.5574 2.306 64.4034 6.533 66.7094L35.741 82.8514C38.431 84.3894 41.89 82.4694 41.89 79.3934V40.9854L1.708 21.1504Z" fill="#FF328B"/>
<path d="M0.412718 24.1113C0.358718 24.3093 0.305719 24.5073 0.261719 24.7093C0.305719 24.5073 0.357718 24.3093 0.412718 24.1113Z" fill="#2EDBE3"/>
<path d="M76.0972 16.3649L46.1192 1.76092C42.6602 0.222922 38.8162 0.222922 35.3582 1.76092L6.92022 16.3649C4.45322 17.7109 2.51522 19.5829 1.32422 21.8219C1.44522 21.5949 1.57422 21.3719 1.71022 21.1519L41.8922 40.9859V40.9619L76.0982 23.6679C79.1742 22.1289 79.1742 17.9019 76.0972 16.3649Z" fill="#2EDBE3"/>
<path d="M0.0732498 25.8965C0.0592498 26.0295 0.04025 26.1615 0.03125 26.2955C0.04125 26.1605 0.0592498 26.0285 0.0732498 25.8965Z" fill="#2EDBE3"/>
<path d="M0.214094 24.9688C0.181094 25.1417 0.146094 25.3148 0.121094 25.4898C0.146094 25.3148 0.180094 25.1417 0.214094 24.9688Z" fill="#2EDBE3"/>
<path d="M0.666126 23.3066C0.589126 23.5196 0.517125 23.7346 0.453125 23.9526C0.517125 23.7336 0.589126 23.5196 0.666126 23.3066Z" fill="#2EDBE3"/>
<path d="M1.31837 21.8301C1.19937 22.0541 1.08838 22.2811 0.984375 22.5121C1.08838 22.2811 1.19937 22.0541 1.31837 21.8301Z" fill="#2EDBE3"/>
<path d="M0.970312 22.5469C0.871312 22.7689 0.779312 22.9929 0.695312 23.2219C0.780313 22.9929 0.871312 22.7689 0.970312 22.5469Z" fill="#2EDBE3"/>
</svg>
