<svg xmlns="http://www.w3.org/2000/svg" width="24" height="26" fill="none" viewBox="0 0 24 26"><g clip-path="url(#clip0)"><path fill="#FF328B" d="M.519 6.426A3.407 3.407 0 000 8.24v8.756c0 1.4.7 2.569 1.985 3.27l8.873 4.903c.817.468 1.868-.116 1.868-1.05V12.452L.52 6.426z"/><path fill="#2EDBE3" d="M.125 7.325zM23.118 4.972L14.011.535a3.987 3.987 0 00-3.27 0L2.103 4.972c-.75.409-1.338.977-1.7 1.657a3.67 3.67 0 01.118-.203l12.207 6.025v-.007L23.119 7.19a1.228 1.228 0 000-2.218zM.023 7.867c-.005.04-.01.08-.013.121.003-.04.008-.08.013-.12zM.065 7.586a3.072 3.072 0 010 0zM.202 7.08zM.4 6.632zM.294 6.85z"/></g><defs><clipPath id="clip0"><path fill="#fff" d="M0 0h24v25.519H0z"/></clipPath></defs></svg>