<svg width="49" height="49" viewBox="0 0 49 49" fill="none" xmlns="http://www.w3.org/2000/svg">
<circle cx="24.3945" cy="24.4336" r="24" fill="#2788DC"/>
<path d="M25.9497 20.5011H31.7798C32.7142 20.5011 33.2955 21.347 32.8259 22.0121L23.9335 35.3805C23.811 35.5422 23.6518 35.6723 23.4691 35.7602C23.2863 35.8481 23.0852 35.8911 22.8825 35.8858C22.1097 35.8858 21.5236 35.2843 21.7055 34.6443L24.0345 26.6565H18.0379C17.3046 26.6565 16.7387 26.1185 16.8349 25.5122L18.4517 15.2215C18.5326 14.721 19.0484 14.3457 19.6547 14.3457H26.9294C27.7233 14.3457 28.3036 14.977 28.1015 15.617L25.9497 20.5011Z" fill="white"/>
</svg>
