<svg width="49" height="49" viewBox="0 0 49 49" fill="none" xmlns="http://www.w3.org/2000/svg">
<circle cx="24.3945" cy="24.4336" r="24" fill="#8FA2B3"/>
<path d="M26.1476 19.6236H33.0862C34.1984 19.6236 34.8901 20.6303 34.3312 21.4218L23.7481 37.3319C23.6024 37.5243 23.413 37.6792 23.1954 37.7838C22.9779 37.8884 22.7386 37.9396 22.4974 37.9332C21.5777 37.9332 20.8801 37.2174 21.0966 36.4557L23.8684 26.9493H16.7316C15.8589 26.9493 15.1854 26.309 15.3 25.5874L17.2242 13.3401C17.3204 12.7445 17.9343 12.2979 18.6559 12.2979H27.3136C28.2585 12.2979 28.9492 13.0492 28.7087 13.8109L26.1476 19.6236Z" fill="white"/>
</svg>
