<svg width="32" height="32" viewBox="0 0 32 32" fill="none" xmlns="http://www.w3.org/2000/svg">
<path fill-rule="evenodd" clip-rule="evenodd" d="M19.332 4.005C19.1095 4.73591 18.9976 5.49598 19 6.26C19 9.866 22.134 13 26.26 13C27.3056 12.9958 28.3345 12.7384 29.259 12.25C29.417 12.975 29.5 13.728 29.5 14.5C29.5 20.299 24.799 25 19 25V30H3V4H19C19.111 4 19.222 4.002 19.332 4.005Z" fill="url(#paint0_linear)"/>
<path d="M3 4L29 30H3V4Z" fill="url(#paint1_linear)"/>
<path d="M26 10C28.2091 10 30 8.20914 30 6C30 3.79086 28.2091 2 26 2C23.7909 2 22 3.79086 22 6C22 8.20914 23.7909 10 26 10Z" fill="url(#paint2_linear)"/>
<defs>
<linearGradient id="paint0_linear" x1="16.25" y1="4" x2="16.25" y2="30" gradientUnits="userSpaceOnUse">
<stop stop-color="#08B1FA"/>
<stop offset="1" stop-color="#4F8EFF"/>
</linearGradient>
<linearGradient id="paint1_linear" x1="16" y1="4" x2="16" y2="30" gradientUnits="userSpaceOnUse">
<stop stop-color="#0090FF"/>
<stop offset="1" stop-color="#0059FF"/>
</linearGradient>
<linearGradient id="paint2_linear" x1="26" y1="2" x2="26" y2="10" gradientUnits="userSpaceOnUse">
<stop stop-color="#FF3A50"/>
<stop offset="1" stop-color="#ED306B"/>
</linearGradient>
</defs>
</svg>
