<svg xmlns="http://www.w3.org/2000/svg" width="32" height="32" fill="none" viewBox="0 0 32 32"><path fill="url(#paint0_linear)" fill-rule="evenodd" d="M19.332 4.005A7.66 7.66 0 0019 6.26C19 9.866 22.134 13 26.26 13a6.476 6.476 0 002.999-.75c.158.725.241 1.478.241 2.25C29.5 20.299 24.799 25 19 25v5H3V4h16c.111 0 .222.002.332.005z" clip-rule="evenodd"/><path fill="url(#paint1_linear)" d="M3 4l26 26H3V4z"/><path fill="url(#paint2_linear)" d="M26 10a4 4 0 100-8 4 4 0 000 8z"/><defs><linearGradient id="paint0_linear" x1="16.25" x2="16.25" y1="4" y2="30" gradientUnits="userSpaceOnUse"><stop stop-color="#08B1FA"/><stop offset="1" stop-color="#4F8EFF"/></linearGradient><linearGradient id="paint1_linear" x1="16" x2="16" y1="4" y2="30" gradientUnits="userSpaceOnUse"><stop stop-color="#0090FF"/><stop offset="1" stop-color="#0059FF"/></linearGradient><linearGradient id="paint2_linear" x1="26" x2="26" y1="2" y2="10" gradientUnits="userSpaceOnUse"><stop stop-color="#FF3A50"/><stop offset="1" stop-color="#ED306B"/></linearGradient></defs></svg>