<svg width="357" height="348" viewBox="0 0 357 348" fill="none" xmlns="http://www.w3.org/2000/svg">
<g clip-path="url(#clip0)">
<path d="M129.767 60.8676C128.797 61.3418 127.709 61.5208 126.639 61.3823C125.655 61.2286 124.738 60.788 124.004 60.1157C123.17 59.3443 122.51 58.4033 122.069 57.3558C121.589 56.3471 121.333 55.2466 121.317 54.1292C121.31 53.1296 121.599 52.1499 122.149 51.3139C122.757 50.4239 123.614 49.7323 124.613 49.3253C125.584 48.8549 126.67 48.6761 127.741 48.8107C128.725 48.9643 129.641 49.4049 130.375 50.0773C131.216 50.8427 131.879 51.7831 132.317 52.8325C132.799 53.8553 133.055 54.97 133.068 56.1011C133.077 57.0961 132.792 58.0721 132.25 58.907C131.629 59.7865 130.766 60.4675 129.767 60.8676V60.8676ZM129.277 59.785C130.056 59.4707 130.722 58.9264 131.185 58.2246C131.597 57.5547 131.797 56.7763 131.759 55.9914C131.715 55.0854 131.496 54.1967 131.114 53.3741C130.758 52.5333 130.24 51.7707 129.59 51.1295C129.033 50.5802 128.324 50.2104 127.554 50.0678C126.721 49.9432 125.87 50.0706 125.11 50.4337C124.333 50.7487 123.671 51.294 123.214 51.9962C122.822 52.6645 122.634 53.4327 122.674 54.2058C122.713 55.114 122.928 56.0058 123.305 56.8325C123.656 57.6729 124.173 58.4339 124.824 59.0702C125.385 59.6183 126.095 59.9898 126.865 60.1388C127.675 60.2609 128.503 60.1445 129.249 59.8039L129.277 59.785Z" fill="#333"/>
<path d="M137.418 61.7426L133.209 49.3244L134.261 48.9665L136.461 55.4062L136.597 55.3652L138.608 61.332L137.418 61.7426ZM140.103 56.8647C139.391 57.1306 138.613 57.1589 137.884 56.9457C137.174 56.7288 136.539 56.3155 136.055 55.7536C135.512 55.1165 135.1 54.3781 134.845 53.5809C134.562 52.7641 134.449 51.8979 134.514 51.0356C134.546 50.3135 134.777 49.6141 135.181 49.0142C135.66 48.4214 136.297 47.9774 137.019 47.7343C137.741 47.4913 138.518 47.4593 139.257 47.6423C139.966 47.8668 140.601 48.2815 141.091 48.8414C141.647 49.4669 142.067 50.2022 142.322 50.9998C142.603 51.7944 142.718 52.6384 142.659 53.4796C142.605 54.2292 142.34 54.9486 141.896 55.5556C141.438 56.1588 140.805 56.6063 140.084 56.8369L140.103 56.8647ZM139.613 55.8125C140.169 55.6486 140.651 55.2993 140.981 54.8228C141.284 54.363 141.451 53.8261 141.46 53.2754C141.476 52.6485 141.38 52.0239 141.176 51.431C140.98 50.8307 140.676 50.2711 140.279 49.7793C139.943 49.3455 139.486 49.0216 138.964 48.849C138.413 48.6807 137.821 48.7026 137.283 48.911C136.726 49.0642 136.235 49.3975 135.887 49.8588C135.583 50.3075 135.417 50.8346 135.408 51.3758C135.383 52.0268 135.478 52.6767 135.689 53.2927C135.886 53.9022 136.19 54.4717 136.587 54.9749C136.927 55.404 137.383 55.7268 137.901 55.9051C138.464 56.0485 139.057 56.0062 139.594 55.7846L139.613 55.8125Z" fill="#333"/>
<path d="M149.181 54.1641C148.408 54.375 147.592 54.3686 146.823 54.1457C146.095 53.914 145.448 53.4814 144.956 52.8979C144.412 52.2283 144.03 51.4433 143.836 50.6028C143.584 49.7562 143.525 48.8635 143.664 47.9906C143.814 47.2387 144.181 46.5469 144.72 46.0008C145.288 45.4358 146.005 45.0441 146.788 44.8715C147.57 44.6524 148.399 44.6669 149.172 44.913C149.906 45.172 150.543 45.6492 150.998 46.2805C151.546 47.0478 151.923 47.9249 152.101 48.8516L150.87 49.1573L150.764 48.7304C150.582 47.7956 150.093 46.9485 149.375 46.3233C149.05 46.0873 148.674 45.932 148.277 45.8701C147.881 45.8083 147.475 45.8417 147.093 45.9676C146.677 46.0457 146.285 46.2187 145.946 46.4732C145.608 46.7277 145.333 47.0568 145.142 47.4348C144.777 48.3393 144.737 49.3418 145.029 50.2717C145.202 51.2106 145.699 52.0589 146.432 52.6694C146.772 52.9211 147.166 53.0892 147.582 53.1602C147.999 53.2312 148.427 53.2029 148.831 53.0778C149.416 52.9481 149.952 52.6517 150.373 52.2245C150.785 51.7931 151.062 51.2511 151.17 50.6649L152.411 50.8407C152.277 51.6604 151.897 52.4201 151.319 53.0178C150.725 53.5891 149.985 53.9857 149.181 54.1641V54.1641ZM144.723 50.693L144.475 49.6806L151.221 47.9922L151.484 48.9951L144.723 50.693Z" fill="#333"/>
<path d="M154.498 52.6521L153.017 43.6669L154.12 43.4886L154.486 45.6946L154.616 45.677L155.733 52.4445L154.498 52.6521ZM161.001 51.5668L160.241 46.9914C160.169 46.529 160.046 46.0762 159.874 45.641C159.728 45.2627 159.513 44.915 159.24 44.6157C158.986 44.3442 158.668 44.1398 158.316 44.021C157.91 43.9037 157.482 43.8867 157.069 43.9715C156.674 44.0262 156.296 44.1678 155.963 44.386C155.661 44.5822 155.412 44.8493 155.237 45.1641C155.05 45.5062 154.934 45.8827 154.897 46.2706C154.845 46.7349 154.862 47.2042 154.945 47.6636L154.044 47.6133C153.885 46.8163 153.92 45.9924 154.147 45.2113C154.341 44.567 154.724 43.9953 155.246 43.5695C155.783 43.1403 156.425 42.8625 157.106 42.7648C157.591 42.6779 158.088 42.6861 158.57 42.7889C158.978 42.884 159.364 43.0585 159.704 43.3023C160.031 43.5332 160.315 43.8194 160.543 44.148C160.776 44.4914 160.966 44.8618 161.109 45.2511C161.251 45.637 161.357 46.0351 161.427 46.4405L162.258 51.345L161.001 51.5668Z" fill="#333"/>
<path d="M170.874 50.8624C169.949 50.9552 169.018 50.7673 168.203 50.3232C167.859 50.1264 167.56 49.8616 167.322 49.545C167.084 49.2284 166.913 48.8666 166.82 48.4818L168.076 48.1992C168.241 48.7067 168.598 49.1296 169.07 49.3778C169.627 49.666 170.255 49.7877 170.879 49.7285C171.457 49.7258 172.02 49.5398 172.486 49.1972C172.669 49.0546 172.813 48.8687 172.906 48.6564C172.999 48.4441 173.037 48.212 173.017 47.9814C173.012 47.737 172.93 47.5007 172.783 47.3055C172.563 47.0759 172.283 46.9131 171.974 46.8359C171.574 46.7109 170.988 46.569 170.212 46.403C169.537 46.2727 168.874 46.0855 168.231 45.8435C167.826 45.7011 167.467 45.4524 167.192 45.1235C166.969 44.8131 166.845 44.4426 166.837 44.0606C166.801 43.5724 166.931 43.086 167.205 42.6802C167.492 42.2548 167.891 41.9169 168.358 41.7042C168.912 41.4515 169.51 41.3117 170.118 41.2931C170.744 41.2415 171.374 41.3161 171.97 41.5125C172.491 41.6777 172.96 41.9718 173.336 42.3675C173.689 42.7432 173.923 43.2141 174.011 43.722L172.776 43.9904C172.731 43.7357 172.633 43.4934 172.488 43.2795C172.343 43.0656 172.154 42.885 171.933 42.7496C171.411 42.4493 170.809 42.3176 170.209 42.3724C169.658 42.3614 169.118 42.5189 168.659 42.8237C168.481 42.9394 168.336 43.0999 168.239 43.2891C168.141 43.4783 168.096 43.6896 168.106 43.9018C168.12 44.1283 168.212 44.343 168.366 44.5097C168.605 44.7231 168.892 44.8774 169.202 44.9603C169.75 45.1287 170.308 45.2634 170.873 45.3636C171.56 45.492 172.232 45.6912 172.878 45.958C173.298 46.1121 173.669 46.3779 173.95 46.7268C174.182 47.0728 174.308 47.4784 174.315 47.8948C174.354 48.284 174.298 48.6769 174.152 49.0401C174.006 49.4033 173.775 49.726 173.477 49.9808C172.732 50.5568 171.815 50.8672 170.874 50.8624V50.8624Z" fill="#333"/>
<path d="M179.897 50.6941C179.08 50.7009 178.278 50.4702 177.59 50.03C176.952 49.605 176.452 49.0036 176.15 48.299C175.807 47.5131 175.649 46.6586 175.688 45.8016C175.684 44.9334 175.88 44.0758 176.261 43.2948C176.597 42.6093 177.125 42.0355 177.78 41.6421C178.486 41.2472 179.288 41.0554 180.096 41.0881C180.915 41.0827 181.717 41.3115 182.41 41.7474C183.052 42.1675 183.556 42.7681 183.857 43.4737C184.18 44.2681 184.337 45.1199 184.319 45.9773C184.302 46.8348 184.11 47.68 183.756 48.4614C183.425 49.1513 182.898 49.7286 182.241 50.1211C181.532 50.5361 180.717 50.7352 179.897 50.6941V50.6941ZM179.918 49.5085C180.348 49.5458 180.781 49.4771 181.179 49.3084C181.576 49.1397 181.926 48.8762 182.198 48.541C182.744 47.7913 183.027 46.8833 183.004 45.9573C183.071 45.0177 182.82 44.0833 182.293 43.3032C182.032 42.9644 181.693 42.6944 181.304 42.5167C180.915 42.3389 180.488 42.2587 180.061 42.2831C179.467 42.2425 178.875 42.3911 178.371 42.7075C177.914 43.0137 177.56 43.4493 177.353 43.9582C177.117 44.5548 176.995 45.1904 176.994 45.8318C176.927 46.7685 177.176 47.7002 177.7 48.4789C177.96 48.8153 178.298 49.0843 178.684 49.2635C179.07 49.4426 179.493 49.5266 179.918 49.5085V49.5085Z" fill="#333"/>
<path d="M189.267 51.217C188.779 51.1773 188.304 51.0434 187.868 50.8229C187.498 50.6287 187.171 50.3622 186.907 50.039C186.657 49.7261 186.462 49.3729 186.331 48.9945C186.19 48.6052 186.103 48.1986 186.071 47.7858C186.034 47.3743 186.037 46.9602 186.078 46.549L186.591 41.5669L187.86 41.7238L187.383 46.294C187.336 46.7605 187.337 47.2307 187.387 47.6968C187.429 48.0989 187.545 48.4895 187.731 48.8486C187.904 49.1805 188.159 49.4629 188.471 49.6695C188.828 49.8918 189.235 50.0215 189.656 50.0468C190.05 50.0994 190.45 50.0639 190.829 49.9427C191.168 49.8144 191.471 49.6082 191.716 49.3408C191.982 49.0562 192.193 48.7234 192.335 48.3603C192.504 47.9282 192.611 47.4748 192.654 47.0131L193.505 47.2906C193.451 48.1011 193.2 48.8865 192.775 49.579C192.422 50.1511 191.903 50.6026 191.288 50.8737C190.657 51.167 189.959 51.2856 189.267 51.217V51.217ZM192.369 51.28L192.616 49.0755L192.497 49.0649L193.195 42.2365L194.433 42.3632L193.502 51.417L192.369 51.28Z" fill="#333"/>
<path d="M195.589 51.7722L197.119 42.7901L198.253 42.9575L197.825 45.152L197.662 44.8355C197.804 44.591 197.976 44.3649 198.173 44.1622C198.363 43.9886 198.577 43.8434 198.808 43.731C199.084 43.5652 199.387 43.4522 199.704 43.3979C200.031 43.3385 200.365 43.3245 200.696 43.3561C200.989 43.3802 201.277 43.4535 201.546 43.5729L201.322 44.7439C200.986 44.5947 200.625 44.5115 200.258 44.4987C199.854 44.479 199.453 44.5778 199.104 44.7827C198.78 44.9565 198.501 45.2051 198.291 45.5078C198.084 45.8077 197.922 46.137 197.812 46.4847C197.698 46.8414 197.604 47.2045 197.531 47.5721L196.768 52.0514L195.589 51.7722Z" fill="#333"/>
<path d="M204.869 53.8436C204.067 53.6819 203.33 53.2905 202.748 52.7173C202.22 52.17 201.865 51.4798 201.726 50.7323C201.573 49.8895 201.597 49.024 201.795 48.1903C201.99 47.3459 202.362 46.5521 202.886 45.8612C203.343 45.2551 203.972 44.7999 204.691 44.5543C205.464 44.3047 206.292 44.2834 207.076 44.4929C207.91 44.6662 208.673 45.0842 209.268 45.6934C209.825 46.2644 210.16 47.0144 210.216 47.81L208.958 47.9407C208.893 47.3869 208.646 46.8705 208.257 46.4718C207.865 46.0684 207.363 45.7892 206.814 45.6689C206.249 45.5155 205.65 45.5413 205.1 45.7429C204.589 45.9506 204.153 46.3074 203.847 46.7666C203.494 47.3005 203.24 47.8936 203.098 48.5175C202.853 49.4184 202.901 50.3738 203.237 51.2446C203.412 51.6292 203.68 51.9646 204.016 52.2213C204.352 52.4779 204.746 52.648 205.164 52.7164C205.699 52.8491 206.262 52.8212 206.782 52.6362C207.292 52.4486 207.729 52.1051 208.033 51.6547L209.165 52.3013C208.705 52.9682 208.052 53.479 207.294 53.7655C206.51 54.0284 205.667 54.0556 204.869 53.8436V53.8436Z" fill="#333"/>
<path d="M213.486 56.2016C212.707 55.981 212.006 55.5468 211.462 54.9481C210.961 54.3709 210.636 53.6625 210.524 52.9062C210.405 52.0468 210.487 51.171 210.766 50.3487C211.018 49.4937 211.459 48.7064 212.058 48.0458C212.58 47.4864 213.253 47.0897 213.995 46.9037C214.781 46.7492 215.592 46.7988 216.352 47.0478C217.112 47.2967 217.796 47.7367 218.336 48.3255C218.823 48.9326 219.113 49.6738 219.167 50.4502C219.233 51.3895 219.093 52.3321 218.758 53.2126L217.555 52.8378L217.685 52.4135C218.019 51.5225 218.049 50.5462 217.769 49.6376C217.612 49.268 217.372 48.9398 217.067 48.6786C216.762 48.4173 216.401 48.2301 216.012 48.1315C215.616 47.9809 215.191 47.9237 214.769 47.9644C214.348 48.0052 213.941 48.1427 213.581 48.3663C212.805 48.9485 212.253 49.78 212.018 50.7208C211.669 51.6088 211.646 52.5916 211.953 53.4941C212.113 53.8808 212.36 54.2247 212.677 54.4979C212.994 54.7712 213.37 54.9662 213.776 55.0674C214.337 55.2699 214.946 55.3014 215.526 55.158C216.106 55.0146 216.63 54.7026 217.033 54.2617L217.996 55.0338C217.45 55.658 216.727 56.1023 215.924 56.308C215.117 56.5053 214.271 56.4683 213.486 56.2016V56.2016ZM211.517 50.8983L211.855 49.8946L218.489 51.99L218.15 52.9937L211.517 50.8983Z" fill="#333"/>
<path d="M222.284 59.1284L225.756 50.7225L226.903 51.196L223.432 59.6019L222.284 59.1284ZM226.428 49.1149L226.954 47.8313L228.102 48.3048L227.569 49.5932L226.428 49.1149Z" fill="#333"/>
<path d="M228.892 62.3719C228.14 62.0409 227.502 61.4974 227.055 60.8082C226.659 60.1622 226.463 59.4132 226.491 58.6554C226.522 57.8004 226.735 56.9616 227.115 56.1949C227.477 55.4039 228.003 54.6992 228.659 54.1282C229.24 53.6379 229.952 53.3283 230.706 53.2376C231.514 53.1579 232.327 53.3129 233.049 53.6839C233.825 54.0341 234.48 54.6066 234.931 55.3291C235.35 56.0057 235.516 56.8093 235.4 57.5973L234.138 57.4358C234.195 56.8812 234.067 56.3234 233.774 55.8493C233.453 55.3715 233.006 54.9913 232.483 54.7503C231.959 54.5093 231.38 54.4168 230.807 54.4828C230.264 54.5746 229.761 54.8305 229.367 55.2159C228.907 55.6633 228.533 56.1903 228.261 56.7713C227.868 57.5916 227.741 58.5144 227.901 59.4094C227.991 59.8225 228.181 60.207 228.455 60.529C228.728 60.851 229.077 61.1008 229.47 61.2562C229.965 61.5113 230.524 61.6136 231.077 61.5502C231.615 61.4777 232.115 61.2347 232.504 60.8569L233.472 61.7272C232.882 62.2814 232.137 62.6415 231.337 62.7589C230.501 62.8806 229.649 62.7457 228.892 62.3719V62.3719Z" fill="#333"/>
<path d="M236.775 66.4712C236.056 66.0813 235.465 65.4925 235.073 64.7753C234.725 64.0939 234.579 63.327 234.653 62.5651C234.742 61.7097 235.016 60.8837 235.457 60.1451C235.876 59.387 236.46 58.7328 237.166 58.2312C237.797 57.7943 238.54 57.5481 239.306 57.5221C240.116 57.5311 240.91 57.749 241.61 58.1547C242.311 58.5603 242.895 59.1401 243.305 59.8377C243.662 60.5065 243.822 61.263 243.767 62.0195C243.68 62.8739 243.404 63.6984 242.957 64.4326C242.545 65.1952 241.961 65.8526 241.253 66.3535C240.629 66.7979 239.888 67.0494 239.123 67.0765C238.298 67.1052 237.482 66.895 236.775 66.4712ZM237.368 65.4372C237.725 65.6784 238.137 65.8284 238.566 65.8742C238.995 65.92 239.429 65.8602 239.831 65.7C240.669 65.2931 241.354 64.6279 241.785 63.8026C242.3 63.0163 242.537 62.081 242.459 61.1453C242.393 60.723 242.226 60.323 241.972 59.9796C241.717 59.6363 241.383 59.3597 240.998 59.1737C240.495 58.8548 239.906 58.7 239.311 58.7307C238.764 58.7848 238.245 58.9957 237.816 59.3381C237.321 59.746 236.908 60.244 236.599 60.8057C236.084 61.592 235.85 62.5297 235.937 63.4652C235.991 63.8864 236.147 64.288 236.391 64.635C236.635 64.982 236.961 65.2639 237.34 65.4561L237.368 65.4372Z" fill="#333"/>
<path d="M241.971 69.3186L247.175 61.8438L248.097 62.4807L246.839 64.3531L246.941 64.427L243.017 70.0642L241.971 69.3186ZM247.375 73.0733L250.017 69.2432C250.292 68.8616 250.522 68.4492 250.702 68.0143C250.848 67.641 250.924 67.244 250.927 66.8433C250.939 66.4698 250.853 66.0996 250.677 65.7701C250.474 65.4009 250.181 65.0885 249.826 64.8614C249.506 64.6244 249.137 64.461 248.746 64.3825C248.393 64.3188 248.029 64.3389 247.685 64.4413C247.311 64.5571 246.964 64.7445 246.662 64.9929C246.303 65.2897 245.989 65.6367 245.73 66.0231L245.145 65.4018C245.585 64.7193 246.183 64.1526 246.889 63.7494C247.478 63.4241 248.149 63.2798 248.82 63.3345C249.511 63.4056 250.171 63.6612 250.73 64.0747C251.135 64.346 251.485 64.6929 251.76 65.0963C251.989 65.4457 252.147 65.8367 252.225 66.2471C252.289 66.645 252.289 67.0507 252.225 67.4487C252.157 67.855 252.034 68.2502 251.86 68.6234C251.697 69.0037 251.496 69.366 251.258 69.7043L248.392 73.8193L247.375 73.0733Z" fill="#333"/>
<path d="M252.424 77.3244C251.681 76.7677 251.122 76.0018 250.818 75.125C250.698 74.7473 250.658 74.349 250.699 73.9548C250.74 73.5606 250.862 73.1791 251.057 72.834L252.169 73.4645C251.946 73.9502 251.923 74.5035 252.104 75.0058C252.315 75.5943 252.689 76.11 253.184 76.4922C253.615 76.8797 254.155 77.1247 254.731 77.1936C254.962 77.2112 255.194 77.1711 255.406 77.077C255.618 76.9828 255.804 76.8376 255.946 76.6542C256.106 76.4699 256.207 76.2417 256.235 75.9993C256.221 75.7015 256.13 75.4126 255.971 75.16C255.657 74.6405 255.316 74.1379 254.949 73.6543C254.543 73.1032 254.186 72.5174 253.883 71.9036C253.684 71.5229 253.587 71.0966 253.604 70.667C253.655 70.2891 253.814 69.9337 254.062 69.6435C254.359 69.253 254.776 68.9701 255.248 68.8378C255.751 68.7226 256.275 68.747 256.765 68.9083C257.357 69.0889 257.907 69.3877 258.381 69.7867C258.873 70.1764 259.284 70.6588 259.59 71.2065C259.86 71.6796 260.008 72.2126 260.02 72.7574C260.02 73.273 259.871 73.7778 259.59 74.2108L258.471 73.585C258.606 73.3639 258.692 73.1168 258.723 72.8602C258.755 72.6035 258.731 72.3431 258.654 72.0964C258.482 71.5205 258.137 71.0118 257.665 70.6395C257.263 70.2614 256.757 70.0126 256.211 69.9256C256.002 69.8887 255.787 69.9083 255.588 69.9825C255.389 70.0566 255.214 70.1826 255.08 70.3473C254.932 70.5194 254.853 70.7399 254.858 70.9666C254.893 71.2794 254.999 71.58 255.169 71.8451C255.456 72.3285 255.772 72.794 256.116 73.2393C256.538 73.7924 256.906 74.3849 257.215 75.0085C257.417 75.4078 257.505 75.855 257.47 76.3014C257.41 76.7154 257.23 77.103 256.953 77.4166C256.717 77.7286 256.409 77.9789 256.056 78.1462C255.702 78.3135 255.313 78.3927 254.923 78.3772C253.996 78.3112 253.117 77.9411 252.424 77.3244Z" fill="#333"/>
<path d="M259.648 83.4287L266.5 76.4439L267.016 75.9717C267.19 75.823 267.379 75.6942 267.582 75.5878C267.794 75.4904 268.023 75.4352 268.256 75.425C268.51 75.4053 268.764 75.4455 268.999 75.5422C269.221 75.6262 269.43 75.7416 269.619 75.8849C269.804 76.0306 269.98 76.1859 270.149 76.3501L270.981 77.1701L270.25 77.9109L269.472 77.1558C269.347 77.0118 269.194 76.894 269.022 76.8093C268.851 76.7246 268.665 76.6746 268.474 76.6622C268.082 76.7012 267.721 76.8916 267.468 77.1927L260.517 84.2741L259.648 83.4287ZM264.169 76.5703L264.921 75.8153L268.702 79.5217L267.955 80.2836L264.169 76.5703Z" fill="#333"/>
<path d="M263.13 86.9205L269.828 80.7438L270.587 81.5622L268.966 83.0498L269.029 82.6915C269.294 82.5883 269.571 82.5167 269.853 82.4783C270.108 82.4441 270.368 82.4465 270.622 82.4853C270.942 82.5217 271.251 82.6197 271.532 82.774C271.822 82.9226 272.088 83.1123 272.323 83.3373C272.528 83.5317 272.704 83.7554 272.845 84.0012L271.988 84.7968C271.809 84.4765 271.574 84.1912 271.294 83.9545C270.986 83.6923 270.608 83.5273 270.207 83.4804C269.846 83.4148 269.474 83.4398 269.124 83.5533C268.775 83.6625 268.445 83.8248 268.146 84.0344C267.848 84.2443 267.563 84.4718 267.293 84.7155L263.951 87.7991L263.13 86.9205Z" fill="#333"/>
<path d="M269.199 94.2368C268.666 93.6194 268.325 92.8607 268.216 92.0527C268.135 91.2906 268.275 90.5212 268.617 89.835C269.017 89.0714 269.569 88.3979 270.24 87.8565C270.911 87.3151 271.687 86.9173 272.518 86.6879C273.26 86.5024 274.04 86.5351 274.764 86.7821C275.518 87.0822 276.182 87.5725 276.691 88.2054C277.199 88.8383 277.534 89.5921 277.665 90.3936C277.753 91.1514 277.618 91.9188 277.277 92.6017C276.873 93.3621 276.319 94.033 275.649 94.5739C274.978 95.1147 274.205 95.5145 273.377 95.7489C272.632 95.9359 271.85 95.9048 271.123 95.6595C270.357 95.3813 269.689 94.8871 269.199 94.2368V94.2368ZM270.119 93.4896C270.365 93.8434 270.695 94.1309 271.078 94.3268C271.462 94.5228 271.889 94.621 272.32 94.6129C273.24 94.4941 274.11 94.1222 274.832 93.5385C275.554 92.9548 276.1 92.1825 276.408 91.3074C276.498 90.8893 276.485 90.4558 276.371 90.044C276.257 89.6321 276.044 89.2543 275.751 88.9427C275.395 88.4638 274.9 88.1066 274.333 87.9199C273.809 87.7847 273.256 87.8059 272.743 87.9811C272.135 88.1846 271.572 88.5015 271.082 88.9149C270.335 89.4658 269.791 90.2473 269.532 91.1383C269.436 91.5489 269.439 91.9764 269.541 92.3854C269.643 92.7944 269.841 93.173 270.119 93.4896V93.4896Z" fill="#333"/>
<path d="M279.055 107.719L284.059 104.454C284.325 104.303 284.558 104.1 284.743 103.857C284.928 103.614 285.063 103.336 285.138 103.039C285.198 102.77 285.202 102.492 285.148 102.221C285.095 101.951 284.985 101.694 284.826 101.469C284.635 101.176 284.379 100.932 284.077 100.756C283.753 100.552 283.372 100.454 282.989 100.476C282.515 100.51 282.059 100.675 281.672 100.953L281.446 100.23C281.923 99.8817 282.486 99.6719 283.074 99.6238C283.618 99.5756 284.164 99.686 284.646 99.9415C285.153 100.202 285.581 100.594 285.885 101.076C286.123 101.404 286.289 101.779 286.374 102.175C286.459 102.572 286.46 102.982 286.378 103.379C286.279 103.785 286.098 104.167 285.847 104.502C285.596 104.837 285.28 105.118 284.917 105.328L279.751 108.744L279.055 107.719ZM276.082 103.189L281.025 99.9556C281.554 99.6455 281.944 99.1439 282.114 98.5547C282.171 98.2768 282.172 97.9904 282.116 97.7123C282.061 97.4342 281.95 97.1701 281.791 96.9356C281.632 96.7011 281.427 96.5008 281.189 96.3467C280.951 96.1926 280.685 96.0877 280.405 96.0382C279.79 95.9612 279.169 96.1179 278.664 96.4772L278.594 95.6385C279.052 95.3282 279.586 95.1488 280.138 95.1195C280.672 95.0945 281.203 95.2124 281.676 95.4609C282.176 95.7301 282.598 96.1242 282.901 96.6048C283.205 97.0503 283.39 97.566 283.439 98.1032C283.483 98.6174 283.371 99.1331 283.118 99.5836C282.823 100.104 282.401 100.541 281.891 100.855L276.72 104.233L276.082 103.189ZM273.095 98.6389L280.719 93.6461L281.343 94.5662L279.487 95.8268L279.562 95.9384L273.819 99.7054L273.095 98.6389Z" fill="#333"/>
<path d="M278.547 115.142L290.376 109.372L290.863 110.375L284.695 113.382L284.771 113.493L279.099 116.254L278.547 115.142ZM283.751 117.159C283.398 116.491 283.272 115.725 283.393 114.979C283.531 114.253 283.868 113.579 284.367 113.034C284.945 112.408 285.638 111.899 286.409 111.536C287.163 111.153 287.985 110.924 288.827 110.861C289.56 110.806 290.292 110.963 290.938 111.312C291.607 111.691 292.135 112.275 292.446 112.977C292.795 113.652 292.923 114.419 292.814 115.171C292.687 115.908 292.36 116.595 291.868 117.158C290.736 118.421 289.154 119.192 287.461 119.304C286.71 119.346 285.962 119.176 285.303 118.814C284.621 118.444 284.076 117.864 283.751 117.159ZM284.708 116.51C284.942 117.025 285.338 117.449 285.835 117.72C286.332 117.958 286.884 118.055 287.433 118C288.066 117.935 288.682 117.751 289.248 117.46C289.822 117.193 290.341 116.823 290.781 116.368C291.166 115.977 291.429 115.484 291.54 114.947C291.635 114.376 291.539 113.79 291.265 113.28C291.041 112.763 290.65 112.337 290.156 112.067C289.674 111.818 289.128 111.72 288.589 111.787C287.305 111.947 286.111 112.528 285.194 113.44C284.807 113.83 284.544 114.324 284.435 114.862C284.342 115.44 284.446 116.033 284.731 116.545L284.708 116.51Z" fill="#333"/>
<path d="M287.517 125.815C287.196 125.063 287.104 124.233 287.253 123.428C287.405 122.677 287.772 121.986 288.309 121.438C288.908 120.83 289.635 120.361 290.436 120.065C291.237 119.732 292.104 119.585 292.97 119.638C293.734 119.69 294.465 119.96 295.079 120.416C295.702 120.932 296.181 121.599 296.472 122.354C296.763 123.108 296.855 123.925 296.741 124.726C296.593 125.477 296.23 126.168 295.697 126.718C295.081 127.322 294.349 127.793 293.545 128.105C292.741 128.416 291.882 128.56 291.021 128.528C290.256 128.491 289.52 128.224 288.91 127.761C288.267 127.261 287.783 126.585 287.517 125.815ZM288.632 125.384C288.758 125.795 288.984 126.168 289.289 126.47C289.594 126.773 289.969 126.996 290.381 127.119C291.289 127.327 292.24 127.238 293.095 126.865C293.985 126.572 294.753 125.99 295.276 125.211C295.488 124.841 295.608 124.424 295.625 123.998C295.642 123.571 295.557 123.147 295.376 122.76C295.182 122.197 294.818 121.707 294.334 121.36C293.876 121.056 293.338 120.896 292.788 120.902C292.149 120.911 291.517 121.04 290.925 121.281C290.035 121.578 289.269 122.162 288.748 122.942C288.533 123.31 288.409 123.724 288.389 124.149C288.369 124.574 288.452 124.998 288.632 125.384V125.384Z" fill="#333"/>
<path d="M285.929 132.413L298.545 128.675L298.862 129.743L292.276 131.698L292.347 131.803L286.303 133.595L285.929 132.413ZM290.73 135.264C290.493 134.543 290.498 133.764 290.743 133.045C290.996 132.353 291.441 131.747 292.025 131.299C293.379 130.276 295.058 129.781 296.749 129.904C297.48 129.972 298.177 130.243 298.76 130.688C299.332 131.19 299.75 131.845 299.964 132.575C300.179 133.306 300.181 134.083 299.971 134.815C299.723 135.521 299.286 136.145 298.708 136.62C298.055 137.151 297.3 137.542 296.49 137.769C295.689 138.024 294.844 138.105 294.01 138.007C293.262 137.922 292.553 137.631 291.961 137.167C291.354 136.681 290.92 136.011 290.725 135.257L290.73 135.264ZM291.805 134.819C291.951 135.379 292.285 135.871 292.751 136.213C293.2 136.534 293.73 136.721 294.281 136.754C294.914 136.78 295.546 136.695 296.15 136.503C296.758 136.329 297.331 136.048 297.839 135.672C298.287 135.351 298.63 134.905 298.826 134.391C299.015 133.846 299.015 133.254 298.827 132.71C298.673 132.17 298.349 131.693 297.904 131.351C297.465 131.028 296.942 130.842 296.398 130.815C295.765 130.784 295.132 130.869 294.529 131.066C293.907 131.238 293.322 131.521 292.802 131.902C292.36 132.225 292.021 132.668 291.822 133.178C291.64 133.706 291.633 134.279 291.8 134.812L291.805 134.819Z" fill="#333"/>
<path d="M293.816 147.049L295.999 146.585L295.975 146.459L302.696 145.063L302.949 146.277L294.014 148.137L293.816 147.049ZM292.967 144.102C292.86 143.625 292.847 143.132 292.93 142.65C293.005 142.238 293.161 141.845 293.389 141.493C293.613 141.159 293.892 140.863 294.213 140.619C294.543 140.375 294.902 140.172 295.281 140.015C295.664 139.853 296.062 139.73 296.469 139.647L301.376 138.627L301.626 139.852L297.075 140.794C296.617 140.89 296.171 141.033 295.742 141.22C295.37 141.381 295.031 141.611 294.744 141.897C294.477 142.159 294.284 142.486 294.185 142.847C294.081 143.254 294.076 143.68 294.172 144.089C294.245 144.482 294.401 144.855 294.629 145.183C294.844 145.473 295.123 145.709 295.444 145.872C295.791 146.031 296.165 146.122 296.546 146.143C297.01 146.169 297.476 146.133 297.932 146.037L297.918 146.932C297.14 147.144 296.324 147.172 295.535 147.013C294.875 146.853 294.279 146.499 293.824 145.995C293.374 145.452 293.078 144.798 292.967 144.102V144.102Z" fill="#333"/>
<path d="M294.35 150.465L306.621 148.651L306.799 149.875L294.533 151.695L294.35 150.465Z" fill="#333"/>
<path d="M294.859 156.637C294.79 156.043 294.864 155.441 295.075 154.881C295.257 154.429 295.566 154.039 295.964 153.758C296.351 153.491 296.8 153.33 297.268 153.29C297.698 153.233 298.135 153.287 298.537 153.447C298.907 153.612 299.229 153.865 299.476 154.185C299.744 154.531 299.954 154.917 300.101 155.329C300.251 155.777 300.398 156.278 300.536 156.826C300.673 157.374 300.794 157.913 300.906 158.438C301.018 158.963 301.122 159.432 301.221 159.834L300.932 159.408C301.642 159.415 302.331 159.167 302.875 158.71C303.091 158.437 303.245 158.12 303.327 157.781C303.409 157.443 303.416 157.091 303.349 156.749C303.316 156.194 303.121 155.661 302.787 155.216C302.429 154.792 301.928 154.513 301.378 154.431L301.621 153.197C302.397 153.305 303.108 153.691 303.622 154.283C304.164 154.959 304.478 155.79 304.52 156.657C304.607 157.387 304.511 158.128 304.24 158.813C304.007 159.399 303.57 159.88 303.008 160.168C302.735 160.309 302.444 160.41 302.143 160.47C301.823 160.525 301.491 160.577 301.157 160.61L295.521 161.127L295.424 160.022L297.698 159.812L297.591 160.149C296.838 159.938 296.174 159.488 295.7 158.867C295.214 158.218 294.923 157.445 294.859 156.637ZM295.917 156.693C295.958 157.215 296.111 157.723 296.366 158.18C296.6 158.574 296.926 158.905 297.316 159.144C297.707 159.37 298.146 159.502 298.597 159.528C298.919 159.57 299.245 159.577 299.57 159.549L300.353 159.486L300.156 159.976C300.059 159.564 299.948 159.099 299.862 158.628C299.776 158.156 299.651 157.671 299.54 157.207C299.435 156.78 299.309 156.359 299.163 155.946C299.065 155.694 298.94 155.455 298.79 155.231C298.642 155.007 298.442 154.821 298.208 154.689C297.955 154.55 297.663 154.494 297.376 154.531C297.109 154.558 296.853 154.649 296.627 154.795C296.383 154.969 296.192 155.208 296.076 155.485C295.949 155.87 295.916 156.28 295.98 156.68L295.917 156.693Z" fill="#333"/>
<path d="M295.603 163.2L304.702 162.949L304.732 164.059L302.541 164.121L302.841 163.917C303.108 164.008 303.361 164.134 303.595 164.292C303.812 164.433 304.005 164.607 304.169 164.808C304.388 165.043 304.558 165.318 304.669 165.619C304.786 165.922 304.857 166.24 304.883 166.564C304.918 166.857 304.902 167.154 304.836 167.441L303.676 167.475C303.753 167.118 303.762 166.749 303.702 166.388C303.644 165.988 303.471 165.614 303.205 165.31C302.972 165.027 302.676 164.803 302.341 164.654C302.003 164.502 301.643 164.403 301.275 164.359C300.909 164.319 300.541 164.303 300.173 164.313L295.638 164.439L295.603 163.2Z" fill="#333"/>
<path d="M295.595 172.636L307.977 173.15L307.929 174.385L295.539 173.875L295.595 172.636Z" fill="#333"/>
<path d="M295.402 176.453L304.488 177.128L304.397 178.361L295.326 177.707L295.402 176.453ZM306.218 177.257L307.591 177.343L307.493 178.581L306.12 178.495L306.218 177.257Z" fill="#333"/>
<path d="M294.364 184.072C294.442 183.318 294.762 182.608 295.275 182.049C295.791 181.519 296.445 181.145 297.164 180.97C297.977 180.769 298.822 180.728 299.651 180.849C300.492 180.943 301.305 181.205 302.041 181.62C302.682 181.979 303.207 182.513 303.555 183.159C303.875 183.849 303.991 184.617 303.889 185.372C303.787 186.127 303.472 186.837 302.98 187.419C302.466 187.965 301.811 188.357 301.087 188.551C299.446 188.984 297.702 188.752 296.233 187.906C295.571 187.528 295.029 186.971 294.672 186.297C294.339 185.606 294.231 184.828 294.364 184.072V184.072ZM295.525 184.099C295.43 184.657 295.525 185.231 295.795 185.729C296.074 186.204 296.482 186.591 296.971 186.845C297.533 187.14 298.145 187.329 298.776 187.401C299.403 187.492 300.04 187.469 300.659 187.335C301.197 187.218 301.691 186.95 302.082 186.562C302.479 186.153 302.729 185.625 302.795 185.059C302.893 184.506 302.804 183.936 302.542 183.439C302.277 182.966 301.877 182.582 301.394 182.334C300.822 182.038 300.199 181.849 299.558 181.778C298.922 181.681 298.273 181.703 297.645 181.845C297.109 181.951 296.618 182.217 296.236 182.608C295.842 183.014 295.592 183.538 295.525 184.099V184.099ZM295.156 180.041L307.199 181.632L307.021 182.873L301.781 182.184L301.801 182.048L295.004 181.153L295.156 180.041Z" fill="#333"/>
<path d="M293.723 189.752L302.656 191.539L302.436 192.626L300.29 192.199L300.611 192.042C300.86 192.197 301.085 192.387 301.28 192.606C301.454 192.795 301.599 193.009 301.711 193.24C301.869 193.519 301.973 193.825 302.017 194.142C302.073 194.475 302.08 194.813 302.037 195.148C302.002 195.441 301.92 195.726 301.795 195.994L300.624 195.771C300.789 195.437 300.89 195.075 300.92 194.704C300.952 194.303 300.867 193.901 300.675 193.547C300.514 193.214 300.273 192.926 299.973 192.709C299.68 192.492 299.354 192.321 299.008 192.203C298.663 192.078 298.308 191.978 297.948 191.904L293.488 191.012L293.723 189.752Z" fill="#333"/>
<path d="M291.706 197.67C291.842 197.088 292.121 196.549 292.517 196.101C292.838 195.736 293.26 195.475 293.73 195.349C294.186 195.231 294.664 195.232 295.119 195.353C295.533 195.442 295.915 195.64 296.227 195.926C296.539 196.211 296.77 196.574 296.896 196.978C297.027 197.398 297.091 197.836 297.084 198.276C297.078 198.748 297.04 199.263 296.981 199.822C296.922 200.382 296.847 200.932 296.779 201.477C296.71 202.022 296.646 202.484 296.598 202.893L296.435 202.413C297.096 202.662 297.823 202.669 298.489 202.434C298.786 202.252 299.039 202.007 299.231 201.716C299.423 201.426 299.55 201.097 299.601 200.752C299.762 200.22 299.764 199.653 299.605 199.121C299.412 198.599 299.035 198.167 298.545 197.905L299.201 196.828C299.893 197.191 300.43 197.794 300.709 198.524C300.987 199.349 300.996 200.241 300.736 201.072C300.562 201.785 300.221 202.446 299.74 203C299.316 203.468 298.74 203.769 298.114 203.85C297.81 203.889 297.502 203.886 297.199 203.839C296.876 203.784 296.548 203.721 296.225 203.635L290.754 202.186L291.045 201.113L293.258 201.698L293.04 201.979C292.398 201.523 291.92 200.872 291.678 200.123C291.454 199.32 291.464 198.469 291.706 197.67V197.67ZM292.708 198.08C292.563 198.583 292.532 199.112 292.617 199.628C292.702 200.077 292.894 200.499 293.176 200.858C293.461 201.206 293.824 201.483 294.235 201.666C294.522 201.817 294.825 201.936 295.139 202.02L295.9 202.226L295.539 202.625C295.596 202.199 295.653 201.742 295.729 201.253C295.805 200.764 295.862 200.277 295.916 199.802C295.971 199.327 295.989 198.887 295.986 198.492C295.984 198.219 295.951 197.948 295.886 197.684C295.822 197.425 295.7 197.184 295.53 196.979C295.338 196.762 295.082 196.611 294.799 196.548C294.537 196.482 294.262 196.479 293.999 196.541C293.709 196.623 293.447 196.783 293.242 197.004C292.98 197.315 292.797 197.684 292.708 198.08V198.08Z" fill="#333"/>
<path d="M290.154 204.051L298.786 206.927L298.432 207.983L296.354 207.296L296.699 207.173C296.921 207.353 297.118 207.562 297.284 207.794C297.439 208.002 297.561 208.232 297.645 208.476C297.762 208.762 297.821 209.068 297.818 209.377C297.823 209.703 297.783 210.028 297.7 210.344C297.627 210.631 297.51 210.906 297.355 211.158L296.248 210.789C296.445 210.479 296.581 210.134 296.65 209.773C296.734 209.377 296.699 208.965 296.549 208.589C296.418 208.246 296.209 207.938 295.939 207.69C295.674 207.439 295.372 207.232 295.043 207.076C294.717 206.908 294.379 206.767 294.031 206.653L289.723 205.219L290.154 204.051Z" fill="#333"/>
<path d="M288.14 209.827L296.649 213.063L296.209 214.217L287.698 210.993L288.14 209.827ZM298.268 213.675L299.57 214.166L299.123 215.325L297.828 214.829L298.268 213.675Z" fill="#333"/>
<path d="M285.059 216.644C285.371 215.897 285.886 215.251 286.546 214.779C287.174 214.343 287.914 214.099 288.678 214.075C289.547 214.05 290.409 214.233 291.192 214.609C292.012 214.951 292.744 215.474 293.333 216.139C293.832 216.721 294.15 217.435 294.249 218.195C294.337 218.987 294.198 219.787 293.849 220.504C293.54 221.256 293.017 221.901 292.345 222.36C291.684 222.775 290.912 222.979 290.132 222.946C289.192 222.905 288.271 222.662 287.434 222.232L287.954 221.074L288.351 221.253C289.199 221.686 290.168 221.824 291.105 221.644C291.492 221.536 291.848 221.337 292.143 221.064C292.438 220.791 292.664 220.452 292.802 220.074C292.997 219.697 293.102 219.281 293.11 218.857C293.118 218.433 293.027 218.014 292.846 217.63C292.357 216.796 291.594 216.156 290.687 215.817C289.841 215.373 288.866 215.238 287.931 215.438C287.53 215.556 287.163 215.765 286.856 216.049C286.55 216.332 286.314 216.683 286.166 217.074C285.904 217.615 285.804 218.22 285.88 218.816C285.96 219.393 286.204 219.934 286.582 220.376L285.698 221.251C285.14 220.638 284.781 219.869 284.67 219.047C284.568 218.226 284.703 217.392 285.059 216.644V216.644ZM290.559 215.283L291.486 215.672L288.654 222.015L287.727 221.626L290.559 215.283Z" fill="#333"/>
<path d="M281.004 224.836C281.414 224.003 282.062 223.311 282.866 222.848C283.217 222.661 283.602 222.546 283.998 222.512C284.393 222.478 284.792 222.525 285.169 222.65L284.748 223.862C284.228 223.734 283.679 223.815 283.218 224.086C282.678 224.406 282.242 224.875 281.963 225.437C281.66 225.927 281.52 226.499 281.564 227.073C281.585 227.305 281.665 227.527 281.796 227.72C281.927 227.912 282.104 228.069 282.312 228.174C282.52 228.298 282.761 228.355 283.003 228.336C283.309 228.265 283.588 228.111 283.811 227.889C284.265 227.488 284.699 227.064 285.111 226.62C285.578 226.118 286.087 225.657 286.632 225.241C286.965 224.97 287.366 224.797 287.791 224.739C288.178 224.713 288.563 224.807 288.893 225.01C289.327 225.234 289.674 225.597 289.878 226.041C290.09 226.51 290.167 227.029 290.101 227.54C290.028 228.155 289.831 228.75 289.522 229.287C289.23 229.844 288.832 230.34 288.35 230.745C287.933 231.096 287.436 231.339 286.903 231.452C286.405 231.531 285.896 231.467 285.433 231.269L285.837 230.048C286.079 230.137 286.337 230.174 286.594 230.158C286.852 230.141 287.103 230.07 287.331 229.95C287.864 229.665 288.298 229.224 288.575 228.688C288.871 228.221 289.019 227.676 289.003 227.125C289 226.914 288.94 226.708 288.831 226.528C288.721 226.348 288.565 226.201 288.379 226.102C288.183 225.985 287.95 225.947 287.726 225.995C287.426 226.089 287.152 226.251 286.925 226.468C286.494 226.844 286.086 227.247 285.704 227.674C285.242 228.193 284.728 228.664 284.171 229.081C283.816 229.353 283.395 229.526 282.952 229.583C282.528 229.607 282.106 229.507 281.738 229.297C281.387 229.125 281.083 228.871 280.852 228.556C280.621 228.242 280.469 227.876 280.409 227.49C280.313 226.565 280.522 225.633 281.004 224.836Z" fill="#333"/>
<path d="M232.286 272.688C233.223 272.154 234.297 271.907 235.373 271.978C236.364 272.067 237.307 272.448 238.083 273.071C238.969 273.788 239.691 274.687 240.199 275.707C240.742 276.696 241.07 277.789 241.162 278.913C241.236 279.908 241.013 280.902 240.523 281.771C239.939 282.673 239.133 283.409 238.182 283.909C237.231 284.408 236.168 284.654 235.095 284.621C234.104 284.526 233.163 284.146 232.384 283.528C230.644 282.063 229.548 279.974 229.331 277.709C229.259 276.719 229.481 275.729 229.968 274.863C230.51 273.926 231.316 273.169 232.286 272.688V272.688ZM232.837 273.74C232.081 274.109 231.453 274.695 231.032 275.423C230.672 276.135 230.535 276.938 230.639 277.728C230.875 279.55 231.757 281.228 233.125 282.456C233.717 282.969 234.449 283.294 235.228 283.39C236.063 283.434 236.895 283.252 237.636 282.864C238.377 282.475 239 281.895 239.44 281.183C239.796 280.484 239.939 279.697 239.85 278.918C239.751 278.008 239.475 277.127 239.037 276.323C238.633 275.508 238.071 274.782 237.383 274.188C236.789 273.672 236.054 273.348 235.273 273.257C234.431 273.167 233.581 273.336 232.837 273.74V273.74Z" fill="#333"/>
<path d="M222.241 277.39C222.932 277.078 223.705 277 224.445 277.166C225.159 277.348 225.808 277.726 226.317 278.258C227.474 279.492 228.142 281.106 228.196 282.797C228.206 283.533 228.008 284.256 227.625 284.885C227.201 285.527 226.584 286.017 225.863 286.286C225.166 286.601 224.386 286.684 223.638 286.523C222.913 286.352 222.248 285.986 221.717 285.465C221.102 284.875 220.618 284.163 220.297 283.374C219.961 282.602 219.794 281.768 219.807 280.926C219.806 280.179 220.016 279.447 220.413 278.814C220.854 278.155 221.494 277.656 222.241 277.39V277.39ZM222.798 278.406C222.253 278.606 221.791 278.985 221.487 279.48C221.213 279.957 221.081 280.503 221.107 281.052C221.187 282.326 221.687 283.537 222.528 284.497C222.896 284.902 223.374 285.193 223.903 285.335C224.46 285.442 225.037 285.385 225.563 285.17C226.089 284.956 226.542 284.594 226.866 284.128C227.141 283.66 227.272 283.121 227.242 282.579C227.21 281.936 227.064 281.304 226.811 280.713C226.576 280.114 226.233 279.563 225.8 279.088C225.434 278.68 224.956 278.388 224.425 278.249C223.88 278.128 223.31 278.183 222.798 278.406V278.406ZM224.58 272.319L229.596 284.454L228.566 284.889L225.931 278.53L225.82 278.606L223.421 272.79L224.58 272.319Z" fill="#333"/>
<path d="M213.317 280.648C214.081 280.383 214.904 280.332 215.695 280.5C216.437 280.681 217.112 281.071 217.64 281.624C218.227 282.247 218.66 282.999 218.906 283.819C219.193 284.661 219.289 285.556 219.186 286.44C219.084 287.198 218.764 287.911 218.265 288.491C217.734 289.091 217.044 289.528 216.274 289.751C215.509 290.024 214.679 290.062 213.892 289.861C213.15 289.639 212.494 289.196 212.01 288.592C211.419 287.863 210.989 287.016 210.751 286.107L211.955 285.717L212.087 286.137C212.339 287.052 212.886 287.859 213.644 288.43C213.984 288.646 214.37 288.777 214.77 288.813C215.171 288.849 215.575 288.789 215.948 288.639C216.359 288.535 216.741 288.337 217.063 288.06C217.385 287.783 217.638 287.435 217.802 287.044C218.1 286.123 218.073 285.127 217.724 284.225C217.486 283.3 216.934 282.486 216.162 281.924C215.807 281.704 215.406 281.57 214.99 281.53C214.574 281.491 214.155 281.549 213.765 281.698C213.189 281.867 212.673 282.196 212.278 282.647C211.896 283.101 211.652 283.655 211.577 284.243L210.341 284.166C210.424 283.339 210.759 282.558 211.299 281.927C211.839 281.321 212.538 280.878 213.317 280.648ZM217.994 283.827L218.308 284.816L211.684 286.94L211.37 285.952L217.994 283.827Z" fill="#333"/>
<path d="M201.722 284.029L202.759 288.56C202.864 289.017 203.019 289.462 203.221 289.886C203.381 290.258 203.611 290.596 203.898 290.882C204.178 291.121 204.514 291.285 204.874 291.36C205.286 291.457 205.715 291.449 206.123 291.337C206.514 291.256 206.881 291.09 207.2 290.85C207.487 290.632 207.718 290.35 207.874 290.026C208.028 289.673 208.117 289.295 208.137 288.911C208.152 288.444 208.103 287.977 207.991 287.523L208.891 287.513C209.099 288.295 209.118 289.116 208.947 289.909C208.787 290.559 208.439 291.149 207.948 291.606C207.433 292.063 206.81 292.381 206.137 292.529C205.662 292.649 205.168 292.677 204.683 292.61C204.269 292.545 203.872 292.399 203.515 292.181C203.176 291.965 202.875 291.694 202.624 291.38C202.37 291.056 202.157 290.701 201.989 290.325C201.821 289.945 201.689 289.55 201.596 289.145L200.461 284.274L201.722 284.029ZM208.141 282.533L210.203 291.398L209.11 291.651L208.635 289.448L208.509 289.473L206.955 282.798L208.141 282.533Z" fill="#333"/>
<path d="M191.878 285.345C192.796 285.194 193.737 285.321 194.582 285.709C194.939 285.88 195.255 286.124 195.512 286.425C195.769 286.726 195.961 287.077 196.074 287.456L194.844 287.822C194.749 287.576 194.605 287.351 194.422 287.161C194.238 286.97 194.019 286.819 193.776 286.714C193.204 286.46 192.57 286.377 191.952 286.476C191.362 286.511 190.8 286.739 190.352 287.124C190.179 287.279 190.047 287.474 189.969 287.692C189.891 287.911 189.87 288.145 189.906 288.374C189.922 288.618 190.016 288.851 190.173 289.038C190.407 289.241 190.692 289.375 190.997 289.426C191.588 289.565 192.185 289.672 192.787 289.749C193.468 289.837 194.141 289.983 194.797 290.186C195.211 290.299 195.586 290.523 195.881 290.836C196.124 291.13 196.272 291.49 196.307 291.87C196.379 292.355 196.283 292.85 196.038 293.275C195.774 293.72 195.394 294.084 194.937 294.328C194.395 294.624 193.801 294.809 193.187 294.874C192.563 294.962 191.929 294.925 191.32 294.767C190.792 294.635 190.306 294.374 189.905 294.006C189.531 293.653 189.268 293.198 189.149 292.697L190.376 292.312C190.443 292.561 190.562 292.793 190.724 292.993C190.887 293.193 191.089 293.357 191.319 293.475C191.861 293.74 192.47 293.837 193.068 293.753C193.621 293.721 194.151 293.524 194.591 293.188C194.763 293.063 194.897 292.895 194.981 292.7C195.064 292.505 195.093 292.292 195.065 292.082C195.042 291.858 194.937 291.65 194.77 291.498C194.524 291.305 194.235 291.173 193.927 291.113C193.376 290.98 192.819 290.876 192.257 290.801C191.563 290.73 190.878 290.588 190.214 290.375C189.785 290.249 189.399 290.007 189.097 289.677C188.843 289.346 188.689 288.947 188.656 288.531C188.59 288.147 188.619 287.752 188.741 287.382C188.863 287.011 189.074 286.676 189.355 286.406C190.055 285.782 190.942 285.409 191.878 285.345Z" fill="#333"/>
<path d="M182.929 286.074C183.751 286.005 184.574 286.175 185.3 286.562C185.962 286.95 186.499 287.518 186.85 288.199C187.244 288.959 187.464 289.797 187.496 290.652C187.553 291.516 187.412 292.382 187.083 293.183C186.792 293.888 186.305 294.495 185.679 294.931C185.002 295.374 184.215 295.62 183.406 295.639C182.583 295.71 181.757 295.538 181.031 295.144C180.365 294.767 179.825 294.201 179.479 293.519C179.106 292.743 178.895 291.899 178.857 291.039C178.82 290.178 178.958 289.319 179.262 288.513C179.554 287.806 180.044 287.197 180.673 286.761C181.346 286.325 182.128 286.087 182.929 286.074ZM182.981 287.261C182.549 287.249 182.121 287.344 181.734 287.537C181.348 287.73 181.015 288.016 180.765 288.369C180.275 289.16 180.054 290.089 180.135 291.016C180.13 291.952 180.433 292.863 180.998 293.608C181.282 293.929 181.64 294.177 182.04 294.33C182.441 294.483 182.873 294.538 183.299 294.49C183.898 294.483 184.481 294.293 184.97 293.946C185.405 293.609 185.729 293.148 185.897 292.624C186.088 292.021 186.16 291.388 186.11 290.758C186.116 289.82 185.808 288.907 185.236 288.164C184.956 287.844 184.603 287.596 184.207 287.442C183.811 287.287 183.383 287.23 182.96 287.275L182.981 287.261Z" fill="#333"/>
<path d="M170.452 286.276L170.366 288.524L170.488 288.522L170.228 295.38L168.986 295.337L169.336 286.239L170.452 286.276ZM173.52 286.169C174.008 286.173 174.49 286.275 174.937 286.469C175.318 286.64 175.661 286.885 175.946 287.189C176.226 287.481 176.455 287.818 176.623 288.186C176.78 288.566 176.889 288.964 176.948 289.371C177.014 289.781 177.04 290.197 177.026 290.612L176.831 295.612L175.584 295.562L175.758 290.922C175.781 290.455 175.751 289.988 175.668 289.528C175.603 289.126 175.463 288.741 175.254 288.393C175.059 288.076 174.788 287.812 174.467 287.624C174.09 287.43 173.672 287.33 173.248 287.331C172.849 287.308 172.451 287.371 172.078 287.514C171.739 287.642 171.435 287.849 171.191 288.116C170.941 288.415 170.753 288.761 170.638 289.134C170.494 289.577 170.415 290.038 170.405 290.503L169.538 290.277C169.542 289.466 169.741 288.667 170.119 287.948C170.437 287.356 170.925 286.872 171.521 286.559C172.141 286.255 172.831 286.12 173.52 286.169Z" fill="#333"/>
<path d="M167.168 286.021L166.191 295.096L165.09 294.977L165.316 292.787L165.515 293.08C165.394 293.337 165.236 293.574 165.046 293.785C164.875 293.979 164.677 294.148 164.458 294.286C164.196 294.471 163.901 294.602 163.589 294.673C163.275 294.746 162.952 294.776 162.63 294.764C162.334 294.756 162.041 294.7 161.763 294.598L161.888 293.445C162.232 293.564 162.596 293.621 162.96 293.613C163.365 293.608 163.76 293.485 164.097 293.259C164.407 293.064 164.667 292.8 164.858 292.487C165.047 292.172 165.186 291.831 165.271 291.474C165.363 291.121 165.426 290.762 165.459 290.399L165.95 285.91L167.168 286.021Z" fill="#333"/>
<path d="M157.769 284.539C158.583 284.65 159.345 284.996 159.964 285.534C160.525 286.045 160.923 286.71 161.109 287.446C161.315 288.277 161.343 289.143 161.192 289.986C161.063 290.844 160.744 291.662 160.259 292.382C159.839 293.015 159.244 293.511 158.546 293.809C157.765 294.093 156.922 294.165 156.105 294.017C155.287 293.868 154.524 293.506 153.894 292.965C153.303 292.433 152.919 291.709 152.811 290.92L154.073 290.736C154.179 291.281 154.456 291.777 154.863 292.155C155.284 292.529 155.804 292.773 156.361 292.859C156.939 292.994 157.545 292.94 158.09 292.703C158.584 292.466 158.994 292.085 159.265 291.61C159.602 291.037 159.828 290.407 159.932 289.752C160.117 288.835 160.006 287.883 159.616 287.034C159.414 286.664 159.126 286.348 158.775 286.114C158.425 285.881 158.022 285.735 157.603 285.691C157.054 285.588 156.487 285.644 155.969 285.853C155.474 286.078 155.061 286.451 154.787 286.921L153.566 286.385C153.98 285.688 154.599 285.136 155.339 284.805C156.105 284.478 156.951 284.386 157.769 284.539V284.539Z" fill="#333"/>
<path d="M149.042 282.725C149.833 282.9 150.558 283.293 151.137 283.859C151.675 284.4 152.047 285.083 152.21 285.829C152.383 286.678 152.353 287.556 152.125 288.392C151.933 289.262 151.544 290.077 150.988 290.773C150.5 291.364 149.853 291.803 149.124 292.038C148.354 292.264 147.537 292.272 146.764 292.062C145.972 291.89 145.249 291.488 144.685 290.907C144.157 290.334 143.817 289.613 143.71 288.84C143.587 287.907 143.666 286.957 143.941 286.056L145.169 286.363L145.069 286.787C144.79 287.698 144.822 288.676 145.161 289.566C145.34 289.924 145.601 290.235 145.921 290.475C146.242 290.715 146.614 290.878 147.008 290.949C147.412 291.074 147.84 291.104 148.258 291.037C148.676 290.971 149.073 290.809 149.419 290.565C150.152 289.936 150.647 289.075 150.822 288.126C151.107 287.212 151.066 286.229 150.707 285.342C150.52 284.97 150.25 284.645 149.917 284.394C149.584 284.143 149.197 283.973 148.787 283.896C148.208 283.738 147.595 283.747 147.021 283.924C146.459 284.107 145.96 284.445 145.583 284.9L144.572 284.192C145.075 283.533 145.769 283.044 146.558 282.792C147.363 282.53 148.225 282.507 149.042 282.725V282.725ZM151.347 287.892L151.092 288.899L144.34 287.231L144.594 286.223L151.347 287.892Z" fill="#333"/>
<path d="M136.559 290.64L136.118 291.958L134.943 291.564L135.391 290.241L136.559 290.64ZM140.053 280.375L137.117 288.998L135.942 288.604L138.878 279.981L140.053 280.375Z" fill="#333"/>
<path d="M133.213 277.585C133.981 277.864 134.652 278.361 135.142 279.014C135.575 279.638 135.82 280.374 135.846 281.133C135.871 281.993 135.715 282.848 135.389 283.644C135.075 284.454 134.586 285.186 133.957 285.786C133.412 286.312 132.725 286.668 131.982 286.812C131.163 286.91 130.334 286.79 129.577 286.466C128.82 286.142 128.161 285.624 127.668 284.964C127.204 284.314 126.987 283.52 127.054 282.723L128.323 282.819C128.309 283.375 128.472 283.92 128.789 284.377C129.119 284.83 129.572 285.18 130.095 285.384C130.632 285.622 131.229 285.69 131.806 285.577C132.341 285.449 132.826 285.162 133.196 284.755C133.629 284.28 133.971 283.731 134.206 283.133C134.588 282.279 134.684 281.324 134.479 280.412C134.362 280.006 134.148 279.636 133.855 279.332C133.562 279.029 133.199 278.802 132.798 278.671C132.288 278.452 131.725 278.385 131.178 278.478C130.647 278.592 130.164 278.866 129.794 279.264L128.773 278.45C129.328 277.862 130.05 277.458 130.841 277.291C131.644 277.158 132.467 277.26 133.213 277.585V277.585Z" fill="#333"/>
<path d="M125.147 273.966C125.892 274.307 126.52 274.857 126.956 275.549C127.349 276.205 127.544 276.961 127.516 277.725C127.488 278.588 127.268 279.433 126.871 280.2C126.505 280.987 125.963 281.679 125.287 282.223C124.688 282.697 123.966 282.989 123.207 283.064C122.398 283.105 121.592 282.938 120.867 282.577C120.142 282.217 119.522 281.676 119.067 281.007C118.67 280.356 118.471 279.603 118.493 278.841C118.517 277.978 118.738 277.131 119.138 276.366C119.507 275.58 120.047 274.887 120.718 274.336C121.312 273.854 122.034 273.555 122.795 273.476C123.61 273.417 124.425 273.587 125.147 273.966V273.966ZM124.62 275.037C124.248 274.814 123.826 274.686 123.393 274.666C122.959 274.646 122.527 274.734 122.135 274.922C121.326 275.38 120.687 276.086 120.31 276.935C119.849 277.752 119.674 278.699 119.812 279.626C119.904 280.043 120.096 280.432 120.372 280.76C120.647 281.087 120.998 281.343 121.393 281.505C121.917 281.79 122.516 281.906 123.108 281.838C123.652 281.757 124.157 281.51 124.555 281.13C125.028 280.696 125.411 280.173 125.683 279.591C126.14 278.772 126.311 277.825 126.169 276.898C126.081 276.486 125.894 276.101 125.624 275.777C125.355 275.452 125.01 275.199 124.62 275.037V275.037Z" fill="#333"/>
<path d="M114.145 268.125L111.744 272.098C111.5 272.499 111.301 272.925 111.148 273.369C111.004 273.754 110.936 274.163 110.947 274.574C110.957 274.946 111.066 275.308 111.261 275.624C111.495 275.957 111.796 276.238 112.143 276.451C112.491 276.663 112.879 276.802 113.282 276.858C113.643 276.902 114.009 276.859 114.35 276.734C114.709 276.584 115.034 276.363 115.307 276.085C115.647 275.768 115.938 275.402 116.171 274.999L116.805 275.587C116.406 276.297 115.845 276.901 115.167 277.351C114.601 277.715 113.939 277.902 113.267 277.887C112.579 277.867 111.909 277.66 111.33 277.288C110.903 277.048 110.529 276.722 110.233 276.332C109.982 276 109.8 275.621 109.7 275.217C109.606 274.825 109.579 274.42 109.621 274.018C109.662 273.607 109.754 273.203 109.894 272.814C110.037 272.426 110.217 272.051 110.431 271.696L113.026 267.409L114.145 268.125ZM119.734 271.46L115.079 279.264L114.122 278.681L115.279 276.765L115.171 276.696L118.728 270.819L119.734 271.46Z" fill="#333"/>
<path d="M108.793 264.162C109.572 264.669 110.18 265.398 110.54 266.255C110.686 266.624 110.753 267.019 110.738 267.415C110.722 267.811 110.624 268.2 110.45 268.556L109.295 267.997C109.49 267.499 109.481 266.946 109.269 266.456C109.017 265.881 108.606 265.39 108.084 265.041C107.634 264.681 107.081 264.471 106.505 264.442C106.272 264.437 106.041 264.491 105.835 264.599C105.628 264.707 105.452 264.866 105.324 265.061C105.173 265.25 105.088 265.483 105.081 265.725C105.112 266.035 105.227 266.33 105.415 266.578C105.652 266.926 105.988 267.421 106.514 268.031C106.958 268.552 107.355 269.111 107.699 269.701C107.923 270.068 108.046 270.487 108.055 270.916C108.033 271.299 107.895 271.667 107.658 271.969C107.382 272.373 106.978 272.672 106.512 272.819C106.015 272.969 105.485 272.975 104.985 272.838C104.386 272.693 103.823 272.427 103.332 272.055C102.811 271.7 102.366 271.243 102.023 270.714C101.727 270.258 101.548 269.736 101.501 269.194C101.465 268.68 101.58 268.166 101.834 267.716L102.996 268.271C102.877 268.5 102.806 268.75 102.789 269.007C102.773 269.264 102.809 269.522 102.898 269.764C103.117 270.324 103.501 270.805 103.998 271.145C104.423 271.497 104.944 271.715 105.493 271.769C105.704 271.789 105.916 271.754 106.11 271.668C106.303 271.581 106.47 271.446 106.596 271.275C106.731 271.093 106.796 270.868 106.778 270.642C106.723 270.331 106.599 270.036 106.416 269.778C106.099 269.313 105.752 268.867 105.378 268.446C104.931 267.91 104.538 267.331 104.205 266.717C103.972 266.336 103.854 265.897 103.865 265.451C103.896 265.035 104.048 264.638 104.303 264.308C104.518 263.983 104.809 263.713 105.149 263.523C105.49 263.332 105.871 263.226 106.262 263.213C107.187 263.243 108.077 263.576 108.793 264.162V264.162Z" fill="#333"/>
<path d="M101.215 258.573L94.8306 265.963C94.678 266.139 94.5161 266.306 94.3457 266.465C94.1746 266.617 93.9845 266.746 93.7803 266.849C93.5771 266.961 93.3531 267.03 93.1222 267.051C92.8696 267.084 92.613 267.064 92.3686 266.993C92.1425 266.919 91.9276 266.815 91.7299 266.683C91.5376 266.55 91.3522 266.407 91.1745 266.255L90.2938 265.499L90.9381 264.736L91.7553 265.444C92.0269 265.715 92.3945 265.867 92.7785 265.869C92.9736 265.84 93.1609 265.772 93.3296 265.67C93.4983 265.568 93.6449 265.433 93.761 265.273L100.236 257.761L101.215 258.573ZM97.1583 265.696L96.4582 266.497L92.4476 263.039L93.1361 262.235L97.1583 265.696Z" fill="#333"/>
<path d="M97.4933 255.285L91.2081 261.874L90.4021 261.107L91.9148 259.52L91.8755 259.883C91.6127 260.013 91.3333 260.107 91.045 260.162C90.7906 260.215 90.5299 260.23 90.2711 260.209C89.95 260.194 89.6347 260.118 89.3431 259.983C89.0466 259.847 88.7699 259.672 88.5203 259.462C88.3003 259.281 88.108 259.068 87.9493 258.832L88.7544 257.99C88.9553 258.294 89.2084 258.56 89.502 258.775C89.825 259.021 90.2136 259.164 90.6187 259.188C90.9828 259.228 91.3511 259.177 91.6912 259.041C92.0332 258.91 92.3517 258.725 92.6343 258.492C92.9289 258.258 93.2053 258.003 93.461 257.727L96.6002 254.435L97.4933 255.285Z" fill="#333"/>
<path d="M90.9762 248.374C91.5446 248.961 91.932 249.698 92.0922 250.499C92.2134 251.249 92.1205 252.018 91.8241 252.718C91.4768 253.501 90.9616 254.198 90.315 254.761C89.6972 255.354 88.9516 255.797 88.1356 256.057C87.4082 256.29 86.6287 256.306 85.8928 256.103C85.134 255.852 84.4519 255.412 83.9104 254.825C83.369 254.238 82.9861 253.522 82.7977 252.746C82.6714 251.998 82.762 251.23 83.0587 250.532C83.4046 249.748 83.92 249.05 84.5679 248.489C85.1868 247.899 85.9275 247.452 86.7377 247.178C87.4675 246.946 88.2486 246.928 88.9876 247.128C89.7536 247.351 90.4421 247.782 90.9762 248.374V248.374ZM90.0983 249.184C89.8365 248.847 89.4954 248.579 89.1052 248.406C88.715 248.232 88.2877 248.157 87.8614 248.188C86.9374 248.324 86.0818 248.755 85.4219 249.416C84.7013 250.014 84.1999 250.835 83.9969 251.748C83.9323 252.171 83.972 252.602 84.1126 253.006C84.2531 253.409 84.4902 253.772 84.8032 254.063C85.1857 254.521 85.7031 254.846 86.2818 254.994C86.8164 255.108 87.3733 255.06 87.8807 254.855C88.4763 254.617 89.0213 254.268 89.4866 253.826C90.2208 253.22 90.7314 252.385 90.9371 251.456C90.9905 251.038 90.9422 250.613 90.7962 250.217C90.6502 249.822 90.4108 249.467 90.0983 249.184V249.184Z" fill="#333"/>
<path d="M80.2871 235.529L75.4965 239.107C75.2458 239.276 75.0308 239.492 74.8638 239.743C74.6968 239.995 74.581 240.276 74.5231 240.573C74.4819 240.846 74.4972 241.125 74.5681 241.392C74.639 241.659 74.764 241.909 74.9352 242.126C75.143 242.404 75.4142 242.628 75.7263 242.78C76.0614 242.951 76.44 243.016 76.8131 242.969C77.287 242.905 77.7331 242.708 78.0999 242.401L78.3698 243.114C77.9203 243.482 77.3815 243.725 76.808 243.818C76.2616 243.922 75.697 243.867 75.1811 243.66C74.6478 243.426 74.1887 243.051 73.8534 242.575C73.5938 242.264 73.4026 241.902 73.2924 241.511C73.1822 241.121 73.1553 240.712 73.2135 240.311C73.2862 239.9 73.4417 239.507 73.6706 239.157C73.8995 238.808 74.1969 238.508 74.545 238.277L79.5216 234.552L80.2871 235.529ZM83.5419 239.857L78.8071 243.398C78.2854 243.744 77.9175 244.279 77.7801 244.889C77.7276 245.169 77.7371 245.457 77.808 245.733C77.8788 246.008 78.0093 246.265 78.1902 246.485C78.352 246.721 78.5644 246.918 78.8119 247.061C79.0594 247.205 79.3359 247.292 79.6212 247.316C80.2452 247.356 80.8614 247.157 81.3432 246.758L81.4689 247.589C81.0311 247.927 80.5097 248.14 79.9603 248.206C79.429 248.263 78.8921 248.177 78.4052 247.958C77.905 247.724 77.4685 247.373 77.1321 246.935C76.7958 246.497 76.5695 245.985 76.4722 245.441C76.4011 244.93 76.48 244.41 76.6991 243.943C76.9573 243.409 77.3463 242.948 77.8301 242.605L82.7789 238.899L83.5419 239.857ZM86.8108 244.206L79.5251 249.683L78.8585 248.791L80.6468 247.444L80.5711 247.333L86.0615 243.208L86.8108 244.206Z" fill="#333"/>
<path d="M80.3411 228.098L68.8765 234.629L68.3333 233.664L74.2903 230.272L74.2146 230.16L79.6895 227.034L80.3411 228.098ZM75.0091 226.464C75.4065 227.109 75.5808 227.867 75.5055 228.622C75.4137 229.356 75.1186 230.05 74.6533 230.626C74.1272 231.276 73.481 231.818 72.75 232.224C72.0212 232.655 71.2139 232.936 70.3753 233.052C69.6312 233.159 68.8721 233.048 68.1904 232.733C67.5158 232.379 66.9574 231.839 66.5818 231.177C66.2063 230.514 66.0294 229.758 66.0724 228.997C66.1511 228.255 66.4338 227.548 66.8892 226.956C67.3996 226.287 68.0458 225.734 68.7852 225.332C69.5089 224.904 70.3139 224.632 71.1485 224.532C71.8955 224.445 72.6519 224.566 73.3337 224.882C74.049 225.214 74.6369 225.769 75.0091 226.464ZM74.0458 227.118C73.7848 226.613 73.3614 226.212 72.844 225.978C72.3367 225.767 71.779 225.707 71.238 225.806C70.6099 225.914 70.0063 226.134 69.456 226.455C68.9024 226.761 68.4093 227.165 68.001 227.647C67.6389 228.06 67.4076 228.572 67.3365 229.117C67.2758 229.69 67.4087 230.266 67.7141 230.754C67.97 231.256 68.3864 231.658 68.8973 231.896C69.3957 232.112 69.9469 232.177 70.4823 232.083C71.116 231.965 71.7245 231.738 72.2806 231.412C72.8446 231.103 73.3485 230.696 73.7682 230.208C74.1242 229.791 74.3546 229.282 74.4328 228.739C74.4857 228.17 74.3497 227.601 74.0458 227.118Z" fill="#333"/>
<path d="M70.6721 218.033C71.0369 218.764 71.1807 219.587 71.0858 220.399C70.9817 221.157 70.6616 221.87 70.1639 222.451C69.6058 223.099 68.9118 223.615 68.1313 223.964C67.3524 224.342 66.4988 224.543 65.633 224.55C64.8664 224.546 64.117 224.323 63.4736 223.908C62.8084 223.453 62.288 222.816 61.974 222.074C61.6079 221.342 61.4602 220.52 61.5485 219.705C61.648 218.958 61.96 218.255 62.4473 217.679C63.0066 217.033 63.7025 216.519 64.4846 216.174C65.2627 215.789 66.1175 215.585 66.9851 215.576C67.7585 215.554 68.5212 215.758 69.1791 216.164C69.8442 216.633 70.3619 217.281 70.6721 218.033V218.033ZM69.5859 218.536C69.4363 218.131 69.1872 217.771 68.8617 217.489C68.5361 217.206 68.1446 217.01 67.7231 216.918C66.8051 216.761 65.8604 216.912 65.0364 217.347C64.1668 217.696 63.4376 218.323 62.9638 219.131C62.7759 219.516 62.684 219.941 62.6959 220.369C62.7078 220.798 62.8232 221.216 63.0322 221.59C63.2591 222.137 63.649 222.601 64.1489 222.92C64.6269 223.193 65.1763 223.317 65.7259 223.275C66.3638 223.228 66.9872 223.06 67.563 222.781C68.4345 222.427 69.1631 221.793 69.6331 220.978C69.8242 220.598 69.9199 220.176 69.9116 219.751C69.9034 219.325 69.7916 218.908 69.5859 218.536V218.536Z" fill="#333"/>
<path d="M71.8082 211.324L59.4746 215.899L59.1109 214.853L65.565 212.508L65.4892 212.396L71.4066 210.222L71.8082 211.324ZM66.8365 208.793C67.119 209.495 67.1661 210.271 66.9707 211.003C66.7581 211.71 66.3484 212.341 65.7897 212.824C65.1826 213.38 64.4745 213.816 63.7038 214.107C62.9183 214.417 62.0784 214.564 61.2347 214.541C60.5023 214.526 59.7893 214.304 59.1783 213.901C58.5625 213.438 58.0934 212.808 57.8273 212.086C57.5611 211.363 57.5091 210.579 57.6776 209.827C57.8825 209.108 58.2802 208.457 58.8278 207.947C59.4474 207.358 60.1857 206.909 60.9929 206.629C61.7786 206.327 62.6194 206.193 63.4599 206.238C64.2095 206.27 64.9348 206.512 65.5542 206.934C66.1779 207.408 66.6337 208.069 66.8555 208.821L66.8365 208.793ZM65.7903 209.31C65.6188 208.757 65.2625 208.28 64.7809 207.958C64.311 207.671 63.7707 207.52 63.2197 207.521C62.5835 207.524 61.9531 207.645 61.3605 207.877C60.7637 208.084 60.2097 208.398 59.7257 208.804C59.2999 209.154 58.9864 209.622 58.8239 210.149C58.6944 210.701 58.7275 211.278 58.9193 211.811C59.1111 212.344 59.4533 212.81 59.9046 213.153C60.361 213.445 60.8932 213.597 61.4355 213.59C62.0806 213.586 62.7196 213.463 63.3203 213.227C63.9293 213.02 64.4947 212.702 64.9878 212.288C65.4099 211.938 65.7208 211.472 65.8826 210.948C66.0346 210.417 66.0088 209.852 65.8092 209.338L65.7903 209.31Z" fill="#333"/>
<path d="M64.0464 200.147C64.1824 200.613 64.2267 201.102 64.177 201.586C64.1344 202.002 64.0053 202.406 63.7979 202.77C63.5953 203.119 63.3361 203.433 63.0309 203.698C62.7206 203.969 62.3783 204.202 62.0118 204.39C61.6422 204.576 61.2556 204.726 60.8574 204.838L56.0235 206.174L55.6865 204.957L60.1727 203.724C60.6221 203.601 61.0575 203.432 61.4716 203.219C61.8305 203.029 62.1539 202.779 62.4272 202.478C62.6739 202.195 62.8458 201.854 62.9271 201.487C63.0018 201.073 62.9752 200.648 62.8496 200.247C62.7528 199.86 62.5736 199.499 62.3244 199.188C62.0965 198.911 61.8051 198.693 61.475 198.552C61.1041 198.398 60.7054 198.322 60.3037 198.329C59.8375 198.33 59.3736 198.394 58.9251 198.522L58.8783 197.627C59.6562 197.386 60.4798 197.333 61.2818 197.472C61.941 197.596 62.5478 197.915 63.0245 198.386C63.5133 198.874 63.8656 199.481 64.0464 200.147ZM63.011 197.255L60.8357 197.866L60.8671 197.987L54.2709 199.808L53.9411 198.616L62.7405 196.165L63.011 197.255Z" fill="#333"/>
<path d="M62.2476 193.862L50.1468 196.497L49.8774 195.244L61.9879 192.654L62.2476 193.862Z" fill="#333"/>
<path d="M61.3271 187.715C61.4415 188.294 61.414 188.893 61.2472 189.46C61.0955 189.925 60.8119 190.337 60.4307 190.645C60.0608 190.933 59.6233 191.122 59.1602 191.192C58.7175 191.269 58.2626 191.226 57.8423 191.069C57.4671 190.927 57.1322 190.697 56.8663 190.397C56.5828 190.086 56.3496 189.732 56.1751 189.349C55.9985 188.909 55.8193 188.419 55.649 187.883C55.4788 187.347 55.3132 186.818 55.1711 186.293C55.029 185.768 54.8852 185.316 54.7652 184.929L55.1027 185.321C54.3914 185.358 53.7169 185.649 53.2028 186.143C53.0054 186.429 52.8724 186.755 52.8129 187.098C52.7534 187.441 52.7688 187.792 52.858 188.128C52.9256 188.682 53.155 189.203 53.5176 189.626C53.9107 190.025 54.4371 190.266 54.9966 190.302L54.8239 191.55C54.0412 191.496 53.3053 191.159 52.7534 190.603C52.162 189.956 51.7919 189.137 51.6965 188.265C51.5717 187.551 51.623 186.817 51.8459 186.127C52.0448 185.528 52.4526 185.019 52.995 184.695C53.2565 184.537 53.5391 184.418 53.8343 184.339C54.1552 184.255 54.4802 184.187 54.8081 184.136L60.4035 183.26L60.5476 184.344L58.2932 184.703L58.377 184.361C59.1422 184.514 59.837 184.911 60.3577 185.491C60.8864 186.125 61.2227 186.896 61.3271 187.715V187.715ZM60.2419 187.739C60.1765 187.221 59.9934 186.725 59.7067 186.289C59.4524 185.913 59.1091 185.605 58.7072 185.393C58.3053 185.181 57.8572 185.071 57.4025 185.074C57.0728 185.056 56.7422 185.072 56.4158 185.122L55.6354 185.235L55.8046 184.733C55.9293 185.137 56.0568 185.58 56.1868 186.062C56.3145 186.535 56.4561 186.999 56.5978 187.463C56.7394 187.927 56.8756 188.293 57.0541 188.691C57.1724 188.947 57.3195 189.189 57.4925 189.412C57.6563 189.627 57.8684 189.8 58.1116 189.918C58.3762 190.035 58.6698 190.07 58.9545 190.018C59.2181 189.975 59.4666 189.865 59.6772 189.701C59.9198 189.514 60.1018 189.259 60.2001 188.969C60.323 188.57 60.3375 188.145 60.2419 187.739V187.739Z" fill="#333"/>
<path d="M60.1817 181.252L51.131 182.07L51.0335 180.965L53.2213 180.763L52.9496 181.009C52.6778 180.934 52.4174 180.823 52.1751 180.679C51.6745 180.385 51.2723 179.949 51.0192 179.427C50.8845 179.131 50.7892 178.819 50.7359 178.499C50.6879 178.207 50.6856 177.91 50.729 177.618L51.886 177.504C51.8318 177.868 51.845 178.239 51.9249 178.598C52.0095 178.993 52.2084 179.354 52.4968 179.636C52.7431 179.908 53.0545 180.114 53.402 180.233C53.7457 180.358 54.1069 180.429 54.4726 180.443C54.8368 180.462 55.202 180.452 55.5648 180.414L60.0947 179.997L60.1817 181.252Z" fill="#333"/>
<path d="M59.5659 171.842L47.166 172.114L47.1375 170.87L59.5375 170.599L59.5659 171.842Z" fill="#333"/>
<path d="M48.6864 167.955L47.2987 167.879L47.3124 166.637L48.6997 166.653L48.6864 167.955ZM59.531 168.006L50.4241 167.916L50.4378 166.674L59.5447 166.765L59.531 168.006Z" fill="#333"/>
<path d="M59.5451 164.422L47.4267 163.606L47.5152 162.355L52.788 162.716L52.782 162.842L59.6158 163.295L59.5451 164.422ZM60.0723 160.347C60.0503 161.105 59.778 161.834 59.2979 162.421C58.8226 162.987 58.199 163.411 57.4969 163.644C56.6981 163.898 55.8568 163.992 55.0219 163.918C54.1744 163.883 53.3428 163.679 52.5752 163.319C51.9122 163 51.3535 162.5 50.964 161.877C50.5772 161.214 50.4122 160.445 50.4931 159.681C50.5201 158.919 50.7907 158.186 51.265 157.589C51.7469 157.017 52.3774 156.589 53.0869 156.352C53.8793 156.075 54.721 155.969 55.5569 156.039C56.3976 156.085 57.2196 156.303 57.9712 156.682C58.6415 157.024 59.2052 157.542 59.6016 158.182C59.9831 158.836 60.1478 159.593 60.0723 160.347V160.347ZM58.9148 160.4C58.9758 159.836 58.8453 159.268 58.5444 158.787C58.2392 158.328 57.8064 157.967 57.2989 157.749C56.7181 157.49 56.0945 157.34 55.4592 157.308C54.8193 157.256 54.1752 157.327 53.5615 157.516C53.0316 157.661 52.5562 157.959 52.1951 158.373C51.8235 158.815 51.614 159.37 51.6015 159.947C51.5402 160.509 51.6637 161.076 51.9533 161.562C52.2603 162.011 52.6901 162.362 53.1916 162.574C53.7816 162.831 54.4138 162.978 55.0569 163.009C55.7002 163.061 56.3478 162.997 56.9689 162.821C57.4971 162.672 57.9715 162.375 58.3353 161.964C58.692 161.519 58.8953 160.97 58.9148 160.4V160.4Z" fill="#333"/>
<path d="M60.351 154.659L51.3544 153.424L51.4954 152.31L53.6614 152.601L53.3682 152.8C53.1172 152.669 52.8854 152.505 52.679 152.311C52.4885 152.137 52.3267 151.934 52.1995 151.71C52.0204 151.443 51.8964 151.143 51.8347 150.827C51.7681 150.508 51.7451 150.181 51.7663 149.855C51.7862 149.562 51.8518 149.273 51.9608 149L53.0943 149.167C52.9597 149.508 52.888 149.871 52.8827 150.238C52.8763 150.64 52.9883 151.035 53.205 151.373C53.3859 151.692 53.6397 151.963 53.9457 152.164C54.2527 152.357 54.5864 152.504 54.9362 152.601C55.2889 152.7 55.6483 152.772 56.0116 152.818L60.5075 153.432L60.351 154.659Z" fill="#333"/>
<path d="M61.8555 146.631C61.7705 147.226 61.5368 147.791 61.1759 148.273C60.8662 148.65 60.4541 148.93 59.9893 149.079C59.5436 149.226 59.0673 149.255 58.6075 149.162C58.1725 149.088 57.7646 148.901 57.4243 148.621C57.1251 148.352 56.896 148.015 56.757 147.638C56.5955 147.235 56.499 146.809 56.4712 146.375C56.4464 145.903 56.4446 145.375 56.4451 144.835C56.4456 144.295 56.5019 143.717 56.5445 143.179C56.587 142.641 56.6114 142.166 56.6083 141.771L56.7828 142.253C56.1185 142.045 55.4014 142.08 54.7603 142.353C54.4739 142.547 54.2335 142.801 54.056 143.098C53.8784 143.394 53.7681 143.726 53.7328 144.069C53.597 144.612 53.6292 145.184 53.8251 145.707C54.0452 146.217 54.4468 146.627 54.9522 146.857L54.3737 147.973C53.6579 147.653 53.0831 147.084 52.7566 146.372C52.4284 145.567 52.3609 144.68 52.5637 143.834C52.688 143.111 52.9879 142.428 53.4371 141.846C53.8311 141.355 54.386 141.018 55.0039 140.895C55.3061 140.833 55.6162 140.818 55.9228 140.851C56.2499 140.881 56.5751 140.929 56.897 140.994L62.4492 142.083L62.2355 143.165L59.9935 142.731L60.1831 142.44C60.8542 142.848 61.3732 143.465 61.6611 144.196C61.9576 144.972 62.0251 145.817 61.8555 146.631V146.631ZM60.8447 146.298C60.9496 145.789 60.9407 145.263 60.8187 144.758C60.7085 144.312 60.4891 143.901 60.1801 143.562C59.8735 143.235 59.4963 142.983 59.0773 142.824C58.7796 142.693 58.4692 142.593 58.151 142.526L57.3802 142.367L57.7091 141.95L57.6216 143.323C57.581 143.819 57.5427 144.304 57.5231 144.785C57.5034 145.267 57.5115 145.7 57.5333 146.092C57.5574 146.364 57.6096 146.632 57.6892 146.893C57.771 147.148 57.9087 147.381 58.0922 147.576C58.2962 147.783 58.5627 147.917 58.8507 147.958C59.113 148.012 59.3849 147.999 59.641 147.92C59.9299 147.825 60.1863 147.651 60.381 147.418C60.6227 147.083 60.7786 146.693 60.8353 146.284L60.8447 146.298Z" fill="#333"/>
<path d="M63.0093 140.144L54.2031 137.823L54.4894 136.742L56.6296 137.326L56.2938 137.463C56.0567 137.296 55.8434 137.098 55.66 136.874C55.485 136.686 55.3398 136.472 55.2293 136.24C55.0858 135.953 55.0014 135.64 54.9812 135.319C54.9576 134.994 54.9755 134.667 55.0344 134.346C55.0916 134.056 55.1902 133.777 55.3274 133.516L56.4358 133.781C56.264 134.099 56.154 134.447 56.1117 134.806C56.0553 135.206 56.1161 135.614 56.2869 135.98C56.4176 136.324 56.6266 136.632 56.8974 136.88C57.1787 137.111 57.4922 137.299 57.8281 137.439C58.1636 137.565 58.5057 137.673 58.8528 137.762L63.2453 138.914L63.0093 140.144Z" fill="#333"/>
<path d="M54.2957 131.049L52.9872 130.624L53.3545 129.437L54.6631 129.863L54.2957 131.049ZM64.6127 134.229L55.9464 131.558L56.3138 130.371L65.0152 133.049L64.6127 134.229Z" fill="#333"/>
<path d="M67.2807 127.254C67.0152 128.018 66.5408 128.693 65.9111 129.202C65.3124 129.676 64.5905 129.968 63.8312 130.044C62.9652 130.121 62.0934 129.994 61.2856 129.674C60.457 129.39 59.7022 128.925 59.0762 128.313C58.5392 127.768 58.1736 127.078 58.0245 126.328C57.8905 125.539 57.9747 124.728 58.2682 123.983C58.5258 123.212 59.0044 122.532 59.6447 122.03C60.276 121.568 61.0329 121.31 61.8143 121.29C62.7553 121.274 63.6884 121.461 64.5507 121.836L64.0735 123.026L63.6653 122.875C62.793 122.495 61.8182 122.418 60.8964 122.657C60.5166 122.791 60.174 123.013 59.8972 123.305C59.6204 123.598 59.4174 123.952 59.3049 124.338C59.1449 124.724 59.0755 125.141 59.1018 125.557C59.1282 125.974 59.2497 126.378 59.4569 126.74C59.998 127.544 60.7998 128.136 61.7273 128.417C62.6015 128.804 63.5836 128.876 64.5054 128.619C64.8979 128.475 65.2519 128.242 65.5397 127.939C65.8275 127.636 66.0413 127.271 66.1642 126.871C66.379 126.316 66.4319 125.712 66.3167 125.128C66.1943 124.55 65.9057 124.02 65.4861 123.604L66.307 122.68C66.9052 123.254 67.3134 123.997 67.4768 124.809C67.6469 125.626 67.5788 126.474 67.2807 127.254V127.254ZM61.8836 128.963L60.9077 128.607L63.3433 122.085L64.3122 122.446L61.8836 128.963Z" fill="#333"/>
<path d="M70.8102 118.798C70.4546 119.656 69.8511 120.388 69.077 120.902C68.741 121.114 68.3647 121.255 67.9718 121.315C67.5789 121.374 67.178 121.352 66.7943 121.25L67.1308 120.003C67.6552 120.099 68.1965 119.984 68.637 119.683C69.1557 119.332 69.5608 118.838 69.8025 118.26C70.0775 117.75 70.1812 117.166 70.0983 116.593C70.0587 116.365 69.963 116.15 69.8199 115.968C69.6769 115.786 69.4908 115.643 69.2785 115.551C69.0625 115.441 68.818 115.401 68.5782 115.435C68.2836 115.538 68.0211 115.716 67.8173 115.952C67.3852 116.38 66.9764 116.831 66.5928 117.303C66.1623 117.836 65.6856 118.33 65.1681 118.779C64.8473 119.065 64.458 119.263 64.0381 119.353C63.6519 119.417 63.2555 119.358 62.9046 119.185C62.458 118.987 62.09 118.646 61.8585 118.215C61.6165 117.761 61.5048 117.248 61.5358 116.734C61.5758 116.118 61.7347 115.515 62.0038 114.96C62.2561 114.363 62.6239 113.823 63.0861 113.369C63.4811 112.996 63.9604 112.722 64.4834 112.574C64.9804 112.442 65.5046 112.458 65.9925 112.618L65.663 113.86C65.4161 113.787 65.1566 113.765 64.9008 113.797C64.645 113.828 64.3984 113.913 64.1768 114.044C63.6755 114.367 63.2804 114.83 63.041 115.376C62.7765 115.861 62.6619 116.414 62.7119 116.964C62.7262 117.174 62.7959 117.376 62.914 117.55C63.0321 117.724 63.1942 117.863 63.3839 117.954C63.5866 118.056 63.8204 118.079 64.0394 118.018C64.3356 117.906 64.6011 117.726 64.8142 117.492C65.2254 117.082 65.6125 116.65 65.9736 116.195C66.4005 115.643 66.8842 115.137 67.4168 114.686C67.7503 114.391 68.1579 114.191 68.5959 114.11C68.9997 114.073 69.4055 114.15 69.7672 114.333C70.1265 114.483 70.4442 114.717 70.6933 115.016C70.9424 115.315 71.1156 115.67 71.1981 116.05C71.3828 116.983 71.2461 117.952 70.8102 118.798V118.798Z" fill="#333"/>
</g>
<defs>
<clipPath id="clip0">
<rect width="256" height="258" fill="white" transform="translate(0 133.795) rotate(-34.1735)"/>
</clipPath>
</defs>
</svg>
