<svg width="110" height="106" viewBox="0 0 110 106" fill="none" xmlns="http://www.w3.org/2000/svg">
<g clip-path="url(#clip0)">
<path d="M67.71 9.89L71.43 0L77.19 2.17L76.74 3.39L72.19 1.68L71 4.79L74.72 6.19L74.26 7.41L70.56 6L68.94 10.33L67.71 9.89Z" fill="black"/>
<path d="M75.1099 12.8399L80.7399 3.8999L84.2699 6.1299L84.5799 6.3299L84.8999 6.5899C85.304 6.92889 85.6139 7.36628 85.7999 7.8599C85.9681 8.32035 86.0129 8.81678 85.9299 9.2999C85.8407 9.81703 85.6467 10.3105 85.3599 10.7499C84.9734 11.4025 84.3882 11.9141 83.6899 12.2099C83.3416 12.3478 82.9692 12.4144 82.5948 12.4058C82.2203 12.3972 81.8514 12.3136 81.5099 12.1599L80.9999 11.9999L78.2499 10.2599L76.1699 13.5599L75.1099 12.8399ZM78.9999 9.1799L81.3799 10.6899L81.6599 10.8499L81.9799 10.9899C82.2734 11.1014 82.5929 11.1257 82.8999 11.0599C83.1902 11.0052 83.462 10.8779 83.6899 10.6899C83.9212 10.5104 84.1178 10.2901 84.2699 10.0399C84.4278 9.79087 84.5427 9.51705 84.6099 9.2299C84.6798 8.94412 84.6798 8.64569 84.6099 8.3599C84.5304 8.05481 84.3677 7.77783 84.1399 7.5599L83.8799 7.3299L83.6099 7.1499L81.2199 5.6499L78.9999 9.1799ZM80.4699 16.1799L80.9999 11.4399L82.2999 11.7999L81.6899 16.9999L80.4699 16.1799Z" fill="black"/>
<path d="M83.3101 18.3901L90.7001 10.8501L95.4701 15.5301L94.6001 16.4101L90.7701 12.6501L88.4501 15.0001L91.6601 18.1501L90.7901 19.0301L87.5801 15.9001L85.1101 18.4201L88.9401 22.1801L88.0701 23.0601L83.3101 18.3901Z" fill="black"/>
<path d="M89.5 24.8199L98.25 18.9199L102 24.4499L101 25.1399L98 20.6899L95.25 22.5399L97.76 26.2599L96.76 26.9599L94.25 23.2299L91.32 25.2299L94.32 29.6799L93.32 30.3699L89.5 24.8199Z" fill="black"/>
<path d="M95.8101 36.0999L105.7 32.4199L106.16 33.6399L96.2601 37.3199L95.8101 36.0999Z" fill="black"/>
<path d="M97.8601 44.2201C97.6611 43.2992 97.7341 42.3403 98.0701 41.4601C98.3944 40.6501 98.9511 39.9543 99.6701 39.4601C100.499 38.9287 101.425 38.5668 102.395 38.3952C103.365 38.2235 104.359 38.2456 105.32 38.4601C106.163 38.6728 106.927 39.1242 107.52 39.7601C108.142 40.4665 108.545 41.3386 108.68 42.2701C108.935 43.297 108.818 44.3807 108.352 45.3303C107.885 46.2798 107.099 47.0341 106.13 47.4601L105.55 46.2201C106.234 45.917 106.802 45.4015 107.17 44.7501C107.532 44.0587 107.635 43.2607 107.46 42.5001C107.361 41.8115 107.054 41.1697 106.58 40.6601C106.12 40.2019 105.536 39.8889 104.9 39.7601C104.153 39.6198 103.387 39.6198 102.64 39.7601C101.893 39.8799 101.176 40.1449 100.53 40.5401C99.9708 40.8866 99.5311 41.3961 99.2701 42.0001C99.012 42.6339 98.9493 43.3304 99.0901 44.0001C99.1941 44.7717 99.57 45.4809 100.15 46.0001C100.719 46.4658 101.417 46.7451 102.15 46.8001L102.04 48.1701C100.979 48.1044 99.9752 47.6678 99.2037 46.9365C98.4322 46.2053 97.9425 45.226 97.8201 44.1701L97.8601 44.2201Z" fill="black"/>
<path d="M98.4503 55.1001C98.4897 54.158 98.7948 53.2463 99.3303 52.4701C99.8353 51.7778 100.53 51.2464 101.33 50.9401C102.256 50.5981 103.247 50.4683 104.23 50.5601C105.216 50.6054 106.179 50.8684 107.05 51.3301C107.818 51.7417 108.45 52.3669 108.87 53.1301C109.269 53.9796 109.445 54.9169 109.38 55.8531C109.315 56.7894 109.012 57.6937 108.5 58.4801C107.993 59.1726 107.299 59.7066 106.5 60.0201C105.572 60.3535 104.582 60.4798 103.6 60.3901C102.615 60.3448 101.652 60.0818 100.78 59.6201C100.023 59.2079 99.404 58.5819 99.0003 57.8201C98.564 56.9835 98.3733 56.0405 98.4503 55.1001V55.1001ZM99.7003 55.1801C99.6208 55.871 99.757 56.5696 100.09 57.1801C100.423 57.7407 100.918 58.187 101.51 58.4601C102.197 58.7856 102.941 58.9725 103.7 59.0101C104.455 59.0796 105.217 58.9981 105.94 58.7701C106.558 58.5713 107.104 58.1958 107.51 57.6901C107.92 57.1311 108.153 56.4625 108.18 55.7701C108.26 55.0792 108.124 54.3806 107.79 53.7701C107.458 53.2155 106.966 52.7732 106.38 52.5001C105.691 52.1701 104.943 51.9798 104.18 51.9401C103.428 51.8703 102.67 51.9519 101.95 52.1801C101.331 52.3762 100.785 52.7522 100.38 53.2601C99.9616 53.815 99.7241 54.4854 99.7003 55.1801V55.1801Z" fill="black"/>
<path d="M97.8701 61.8601L107.87 65.1501L107.46 66.4001L97.9001 69.0701L105.74 71.6401L105.33 72.8901L95.3301 69.6101L95.7401 68.3501L105.3 65.6901L97.4501 63.1201L97.8701 61.8601Z" fill="black"/>
<path d="M92.0899 75.0001C92.4417 74.402 92.9112 73.8815 93.4699 73.4701C93.9713 73.1022 94.5548 72.8619 95.1699 72.7701C95.7895 72.687 96.4201 72.7662 96.9999 73.0001L96.4799 74.2601C95.8622 74.0612 95.193 74.0968 94.5999 74.3601C93.9793 74.6421 93.462 75.1105 93.1199 75.7001C92.8835 76.0687 92.7205 76.4796 92.6399 76.9101C92.568 77.2727 92.5886 77.6475 92.6999 78.0001C92.8262 78.3349 93.0624 78.617 93.3699 78.8001C93.5618 78.914 93.7774 78.9824 93.9999 79.0001C94.1781 79.0356 94.3617 79.0356 94.5399 79.0001C94.7063 78.9217 94.8611 78.8207 94.9999 78.7001C95.1663 78.5977 95.3206 78.477 95.4599 78.3401L97.5499 76.4601C97.7743 76.2572 98.0151 76.0732 98.2699 75.9101C98.5203 75.7435 98.7978 75.6217 99.0899 75.5501C99.3793 75.4695 99.6822 75.4491 99.9799 75.4901C100.336 75.5382 100.678 75.6645 100.98 75.8601C101.476 76.1443 101.866 76.5834 102.09 77.1101C102.302 77.6361 102.364 78.2107 102.27 78.7701C102.163 79.4071 101.928 80.0159 101.58 80.5601C101.239 81.1285 100.782 81.619 100.24 82.0001C99.7488 82.3513 99.177 82.5731 98.5774 82.6447C97.9779 82.7164 97.37 82.6357 96.8099 82.4101L97.3299 81.1101C97.7095 81.2655 98.1228 81.3206 98.5299 81.2701C98.9241 81.2106 99.2999 81.0637 99.6299 80.8401C99.9807 80.5972 100.277 80.2839 100.5 79.9201C100.716 79.5825 100.862 79.2051 100.93 78.8101C100.992 78.4762 100.968 78.132 100.86 77.8101C100.758 77.5089 100.553 77.2537 100.28 77.0901C100.041 76.9346 99.7504 76.8773 99.4699 76.9301C99.1954 76.9828 98.9359 77.0955 98.7099 77.2601C98.4796 77.4271 98.2592 77.6074 98.0499 77.8001L96.5099 79.2101C96.3399 79.3701 96.1199 79.5501 95.8699 79.7501C95.6088 79.9573 95.3192 80.1257 95.0099 80.2501C94.6889 80.3758 94.3436 80.4271 93.9999 80.4001C93.5478 80.3865 93.1082 80.2481 92.7299 80.0001C92.3216 79.7512 91.9788 79.4083 91.7299 79.0001C91.4976 78.6218 91.3604 78.1929 91.3299 77.7501C91.2914 77.2827 91.3354 76.8122 91.4599 76.3601C91.6036 75.8789 91.8158 75.4209 92.0899 75.0001V75.0001Z" fill="black"/>
<path d="M45.11 95.0599L42.17 105.2L36.25 103.49L36.62 102.24L41.28 103.59L42.21 100.4L38.39 99.2899L38.75 97.9999L42.57 99.0999L43.86 94.6599L45.11 95.0599Z" fill="black"/>
<path d="M37.4903 92.68L32.5603 102L28.8703 100L28.5503 99.82C28.432 99.7472 28.3185 99.667 28.2103 99.58C27.7782 99.2781 27.4333 98.8676 27.2103 98.39C27.0188 97.9533 26.9463 97.4737 27.0003 97C27.0469 96.4765 27.2037 95.9687 27.4603 95.51C27.8067 94.8607 28.3443 94.3336 29.0003 94C29.3374 93.8361 29.7039 93.7411 30.0782 93.7205C30.4525 93.6999 30.8272 93.7541 31.1803 93.88L31.6603 94.04L34.5303 95.56L36.3603 92.11L37.4903 92.68ZM33.9303 96.61L31.4403 95.3C31.3465 95.2475 31.2497 95.2007 31.1503 95.16C31.0452 95.11 30.9344 95.073 30.8203 95.05C30.5168 94.9603 30.1938 94.9603 29.8903 95.05C29.6102 95.1331 29.3535 95.2804 29.1403 95.48C28.9224 95.6752 28.7426 95.9091 28.6103 96.17C28.4725 96.4297 28.378 96.71 28.3303 97C28.2893 97.2916 28.3132 97.5887 28.4003 97.87C28.4997 98.1693 28.6838 98.4333 28.9303 98.63C29.0129 98.7132 29.1072 98.7839 29.2103 98.84C29.2961 98.9 29.3864 98.9535 29.4803 99L31.9803 100.32L33.9303 96.61ZM31.9303 89.74L31.7703 94.52L30.4403 94.26L30.6103 89L31.9303 89.74Z" fill="black"/>
<path d="M28.91 87.7799L22.12 95.8599L17 91.5699L17.8 90.6199L21.91 94.0799L24 91.5399L20.57 88.6599L21.37 87.6599L24.8 90.5499L27.08 87.8399L23 84.4399L23.8 83.4399L28.91 87.7799Z" fill="black"/>
<path d="M22.2498 81.8401L13.9998 88.3901L9.81982 83.1601L10.8198 82.3901L14.1498 86.6001L16.7398 84.6001L13.9298 81.0001L14.9298 80.2301L17.7098 83.7501L20.4798 81.5501L17.1498 77.3401L18.1498 76.5701L22.2498 81.8401Z" fill="black"/>
<path d="M15.09 71.0699L5.51 75.5099L5 74.3199L14.58 69.8899L15.09 71.0699Z" fill="black"/>
<path d="M12.4101 63.11C12.6806 64.0135 12.6806 64.9765 12.4101 65.88C12.1588 66.7099 11.6684 67.4473 11.0001 68C10.2273 68.6154 9.3299 69.0556 8.37014 69.29C7.4204 69.5562 6.42436 69.6142 5.45014 69.46C4.58962 69.3159 3.7901 68.9231 3.15014 68.33C2.48276 67.6694 2.0149 66.8342 1.80014 65.92C1.48442 64.8816 1.53383 63.7664 1.94014 62.76C2.34999 61.8262 3.05182 61.0507 3.94014 60.55L4.61014 61.74C3.95408 62.0974 3.42874 62.6542 3.11014 63.33C2.80657 64.0464 2.76758 64.8475 3.00014 65.59C3.14463 66.2655 3.49381 66.8801 4.00014 67.35C4.49472 67.7737 5.10361 68.0416 5.75014 68.12C6.50475 68.2044 7.26854 68.1432 8.00014 67.94C8.72236 67.7619 9.40212 67.4424 10.0001 67C10.5257 66.6209 10.9234 66.0907 11.1401 65.48C11.3517 64.813 11.3517 64.0969 11.1401 63.43C10.9997 62.6751 10.5956 61.9947 10.0001 61.51C9.38902 61.0792 8.65778 60.8518 7.91014 60.86V59.49C8.93311 59.4907 9.92876 59.8202 10.7501 60.43C11.5918 61.1088 12.1773 62.054 12.4101 63.11V63.11Z" fill="black"/>
<path d="M11.0001 52.3601C11.0384 53.2839 10.813 54.1996 10.3501 55.0001C9.89401 55.7443 9.23003 56.3388 8.44006 56.7101C7.54536 57.1288 6.56785 57.3407 5.58006 57.3301C4.59287 57.366 3.60981 57.185 2.70006 56.8001C1.88542 56.464 1.1892 55.8931 0.700063 55.1601C0.230006 54.3482 -0.0249772 53.4298 -0.0407272 52.4918C-0.0564772 51.5538 0.167527 50.6273 0.610063 49.8001C1.06671 49.0588 1.7308 48.4677 2.52006 48.1001C3.41669 47.6871 4.39289 47.4754 5.38006 47.4801C6.3796 47.4394 7.37602 47.6168 8.30006 48.0001C9.11255 48.3398 9.80781 48.9099 10.3001 49.6401C10.7917 50.4599 11.0348 51.4048 11.0001 52.3601V52.3601ZM9.75006 52.3601C9.78424 51.6504 9.58778 50.9488 9.19006 50.3601C8.81162 49.8293 8.28189 49.425 7.67006 49.2001C6.95666 48.9383 6.1996 48.8161 5.44006 48.8401C4.68286 48.8427 3.933 48.9886 3.23006 49.2701C2.63058 49.5181 2.11874 49.9394 1.76006 50.4801C1.38936 51.0788 1.21134 51.7769 1.25006 52.4801C1.23069 53.1723 1.42633 53.8536 1.81006 54.4301C2.18819 54.9547 2.71381 55.355 3.32006 55.5801C4.03304 55.8619 4.79342 56.0045 5.56006 56.0001C6.31819 56.0073 7.06994 55.861 7.77006 55.5701C8.37148 55.3252 8.88418 54.9032 9.24006 54.3601C9.60799 53.7675 9.78594 53.0766 9.75006 52.3801V52.3601Z" fill="black"/>
<path d="M11.0701 45.53L0.810059 43L1.12006 41.71L10.4401 38.32L2.44006 36.32L2.75006 35.04L13.0001 37.61L12.6801 38.9L3.36006 42.29L11.3601 44.29L11.0701 45.53Z" fill="black"/>
<path d="M15.83 32C15.525 32.6232 15.0963 33.1778 14.57 33.63C14.0987 34.0334 13.5356 34.315 12.93 34.45C12.3197 34.578 11.687 34.5505 11.09 34.37L11.51 33.07C12.1448 33.2245 12.8144 33.139 13.39 32.83C13.9792 32.4949 14.4533 31.9894 14.75 31.38C14.9596 30.9924 15.092 30.5679 15.14 30.13C15.1875 29.7556 15.1322 29.3753 14.98 29.03C14.8362 28.6994 14.5766 28.4327 14.25 28.28C14.0707 28.1747 13.8678 28.1163 13.66 28.11C13.478 28.1023 13.2967 28.1365 13.13 28.21C12.9543 28.2797 12.7893 28.374 12.64 28.49C12.4849 28.61 12.341 28.7439 12.21 28.89L10.27 30.89C10.0578 31.1088 9.83057 31.3127 9.59002 31.5C9.35285 31.7048 9.08662 31.8733 8.80002 32C8.51817 32.1005 8.2185 32.1414 7.92002 32.12C7.56878 32.1017 7.22653 32.0025 6.92002 31.83C6.40054 31.5862 5.97545 31.1787 5.71002 30.67C5.45484 30.1528 5.35415 29.573 5.42002 29C5.48009 28.3555 5.67789 27.7314 6.00002 27.17C6.28763 26.5839 6.69669 26.0658 7.20002 25.65C7.65556 25.2696 8.1985 25.0084 8.78002 24.89C9.37827 24.7712 9.99661 24.8021 10.58 24.98L10.17 26.32C9.7794 26.1931 9.36267 26.169 8.96002 26.25C8.56725 26.3306 8.20001 26.5057 7.89002 26.76C7.55749 27.0348 7.28516 27.3752 7.09002 27.76C6.90123 28.1097 6.78555 28.4942 6.75002 28.89C6.71354 29.2307 6.76519 29.575 6.90002 29.89C7.02655 30.1792 7.2491 30.4159 7.53002 30.56C7.77998 30.6986 8.07408 30.7344 8.35002 30.66C8.61789 30.5823 8.86654 30.4495 9.08002 30.27C9.29505 30.0893 9.49877 29.8956 9.69002 29.69L11.12 28.16C11.29 27.98 11.48 27.79 11.72 27.57C11.9666 27.3442 12.2424 27.1525 12.54 27C12.8519 26.8454 13.1924 26.7569 13.54 26.74C13.9777 26.7443 14.4073 26.8577 14.79 27.07C15.2115 27.2787 15.5781 27.5835 15.86 27.96C16.1195 28.3147 16.2909 28.726 16.36 29.16C16.4447 29.6228 16.4447 30.0972 16.36 30.56C16.2533 31.0629 16.0748 31.5479 15.83 32V32Z" fill="black"/>
</g>
<defs>
<clipPath id="clip0">
<rect width="109.44" height="105.2" fill="white"/>
</clipPath>
</defs>
</svg>
