<svg width="95" height="16" viewBox="0 0 95 16" fill="none" xmlns="http://www.w3.org/2000/svg">
<path d="M6.05852 15.6989C7.05185 15.6989 7.96518 15.5323 8.79852 15.1989C9.63852 14.8656 10.3119 14.3723 10.8185 13.7189C11.3252 13.0656 11.5785 12.2556 11.5785 11.2889C11.5785 10.5889 11.4485 10.0089 11.1885 9.54894C10.9285 9.08228 10.5985 8.70894 10.1985 8.42894C9.80519 8.14894 9.39518 7.93228 8.96852 7.77894C8.54852 7.61894 8.17185 7.49228 7.83852 7.39894L5.17852 6.64894C4.83852 6.55561 4.49518 6.43894 4.14852 6.29894C3.80852 6.15228 3.52185 5.95561 3.28852 5.70894C3.05518 5.46228 2.93852 5.13894 2.93852 4.73894C2.93852 4.32561 3.06852 3.96561 3.32852 3.65894C3.59519 3.34561 3.94852 3.10228 4.38852 2.92894C4.83519 2.75561 5.32518 2.67561 5.85852 2.68894C6.68518 2.69561 7.41519 2.93228 8.04852 3.39894C8.68852 3.85894 9.08518 4.49561 9.23852 5.30894L11.4785 4.92894C11.1852 3.60228 10.5452 2.57228 9.55852 1.83894C8.57185 1.09894 7.34852 0.722277 5.88852 0.708943C4.92185 0.702277 4.04852 0.858944 3.26852 1.17894C2.48852 1.49894 1.86852 1.96561 1.40852 2.57894C0.955185 3.19228 0.728518 3.94561 0.728518 4.83894C0.728518 5.61228 0.891851 6.23894 1.21852 6.71894C1.54518 7.19894 1.95185 7.57228 2.43852 7.83894C2.93185 8.10561 3.41852 8.30894 3.89852 8.44894L7.58852 9.53894C8.12185 9.69894 8.55518 9.92561 8.88852 10.2189C9.22852 10.5056 9.39852 10.9089 9.39852 11.4289C9.39852 11.9089 9.24852 12.3223 8.94852 12.6689C8.65518 13.0089 8.26518 13.2723 7.77852 13.4589C7.29185 13.6389 6.75852 13.7289 6.17852 13.7289C5.24519 13.7289 4.42852 13.4856 3.72852 12.9989C3.02852 12.5123 2.56852 11.8256 2.34852 10.9389L0.168518 11.2689C0.328518 12.1823 0.675185 12.9723 1.20852 13.6389C1.74185 14.2989 2.42518 14.8089 3.25852 15.1689C4.09185 15.5223 5.02519 15.6989 6.05852 15.6989Z" fill="black"/>
<path d="M16.699 15.3989H19.709L24.389 0.998944H22.219L18.179 13.2889L14.189 0.998944H12.019L16.699 15.3989Z" fill="black"/>
<path d="M31.3965 15.6989C32.7965 15.6989 33.9832 15.4023 34.9565 14.8089C35.9365 14.2089 36.6832 13.3856 37.1965 12.3389C37.7098 11.2923 37.9665 10.1023 37.9665 8.76894C37.9665 8.71561 37.9632 8.59228 37.9565 8.39894C37.9498 8.20561 37.9398 8.04561 37.9265 7.91894H32.9065V9.59894H35.7065C35.5598 10.9323 35.1332 11.9556 34.4265 12.6689C33.7198 13.3756 32.7498 13.7223 31.5165 13.7089C29.9898 13.6956 28.8398 13.1856 28.0665 12.1789C27.2998 11.1723 26.9198 9.84561 26.9265 8.19894C26.9332 7.09894 27.1032 6.13561 27.4365 5.30894C27.7765 4.47561 28.2865 3.82894 28.9665 3.36894C29.6465 2.90894 30.4965 2.68228 31.5165 2.68894C32.5098 2.69561 33.3332 2.95561 33.9865 3.46894C34.6398 3.98228 35.1098 4.66894 35.3965 5.52894L37.5165 5.14894C37.1498 3.76228 36.4598 2.67561 35.4465 1.88894C34.4398 1.10228 33.0898 0.708943 31.3965 0.708943C30.0832 0.708943 28.9232 1.01228 27.9165 1.61894C26.9098 2.21894 26.1232 3.07894 25.5565 4.19894C24.9898 5.31228 24.7065 6.64561 24.7065 8.19894C24.7065 9.77228 24.9965 11.1189 25.5765 12.2389C26.1565 13.3589 26.9498 14.2156 27.9565 14.8089C28.9632 15.4023 30.1098 15.6989 31.3965 15.6989Z" fill="black"/>
<path d="M45.9696 15.6989C47.6296 15.6989 49.0029 15.2789 50.0896 14.4389C51.1829 13.5989 51.9429 12.4689 52.3696 11.0489L50.2496 10.4789C49.9629 11.4856 49.4629 12.2756 48.7496 12.8489C48.0363 13.4223 47.1096 13.7089 45.9696 13.7089C44.9496 13.7089 44.0963 13.4789 43.4096 13.0189C42.7296 12.5589 42.2163 11.9156 41.8696 11.0889C41.5296 10.2623 41.3629 9.29894 41.3696 8.19894C41.3763 7.09894 41.5496 6.13561 41.8896 5.30894C42.2296 4.48228 42.7396 3.83894 43.4196 3.37894C44.0996 2.91894 44.9496 2.68894 45.9696 2.68894C47.1096 2.68894 48.0363 2.97561 48.7496 3.54894C49.4629 4.12228 49.9629 4.91228 50.2496 5.91894L52.3696 5.34894C51.9429 3.92894 51.1829 2.79894 50.0896 1.95894C49.0029 1.11894 47.6296 0.698944 45.9696 0.698944C44.5296 0.698944 43.3029 1.01561 42.2896 1.64894C41.2763 2.28228 40.4996 3.16228 39.9596 4.28894C39.4263 5.40894 39.1596 6.71228 39.1596 8.19894C39.1596 9.68561 39.4263 10.9923 39.9596 12.1189C40.4996 13.2389 41.2763 14.1156 42.2896 14.7489C43.3029 15.3823 44.5296 15.6989 45.9696 15.6989Z" fill="black"/>
<path d="M60.579 15.6989C62.019 15.6989 63.2457 15.3823 64.259 14.7489C65.2723 14.1156 66.0457 13.2389 66.579 12.1189C67.1123 10.9923 67.379 9.68561 67.379 8.19894C67.379 6.71228 67.1123 5.40894 66.579 4.28894C66.0457 3.16228 65.2723 2.28228 64.259 1.64894C63.2457 1.01561 62.019 0.698944 60.579 0.698944C59.139 0.698944 57.9123 1.01561 56.899 1.64894C55.8857 2.28228 55.109 3.16228 54.569 4.28894C54.0357 5.40894 53.769 6.71228 53.769 8.19894C53.769 9.68561 54.0357 10.9923 54.569 12.1189C55.109 13.2389 55.8857 14.1156 56.899 14.7489C57.9123 15.3823 59.139 15.6989 60.579 15.6989ZM60.579 13.7089C59.0523 13.6956 57.9023 13.1856 57.129 12.1789C56.3623 11.1723 55.9823 9.84561 55.989 8.19894C55.9957 7.09894 56.1657 6.13561 56.499 5.30894C56.839 4.47561 57.349 3.82894 58.029 3.36894C58.709 2.90228 59.559 2.67561 60.579 2.68894C62.1123 2.69561 63.259 3.20228 64.019 4.20894C64.779 5.21561 65.159 6.54561 65.159 8.19894C65.159 9.29894 64.989 10.2656 64.649 11.0989C64.3157 11.9256 63.809 12.5689 63.129 13.0289C62.449 13.4889 61.599 13.7156 60.579 13.7089Z" fill="black"/>
<path d="M69.3737 15.3989H71.4937V4.68894L78.5837 15.3989H80.7037V0.998944H78.5837V11.6989L71.4937 0.998944H69.3737V15.3989Z" fill="black"/>
<path d="M88.7148 15.6989C89.7081 15.6989 90.6214 15.5323 91.4548 15.1989C92.2948 14.8656 92.9681 14.3723 93.4748 13.7189C93.9814 13.0656 94.2348 12.2556 94.2348 11.2889C94.2348 10.5889 94.1048 10.0089 93.8448 9.54894C93.5848 9.08228 93.2548 8.70894 92.8548 8.42894C92.4614 8.14894 92.0514 7.93228 91.6248 7.77894C91.2048 7.61894 90.8281 7.49228 90.4948 7.39894L87.8348 6.64894C87.4948 6.55561 87.1514 6.43894 86.8048 6.29894C86.4648 6.15228 86.1781 5.95561 85.9448 5.70894C85.7114 5.46228 85.5948 5.13894 85.5948 4.73894C85.5948 4.32561 85.7248 3.96561 85.9848 3.65894C86.2514 3.34561 86.6048 3.10228 87.0448 2.92894C87.4914 2.75561 87.9814 2.67561 88.5148 2.68894C89.3414 2.69561 90.0714 2.93228 90.7048 3.39894C91.3448 3.85894 91.7414 4.49561 91.8948 5.30894L94.1348 4.92894C93.8414 3.60228 93.2014 2.57228 92.2148 1.83894C91.2281 1.09894 90.0048 0.722277 88.5448 0.708943C87.5781 0.702277 86.7048 0.858944 85.9248 1.17894C85.1448 1.49894 84.5248 1.96561 84.0648 2.57894C83.6114 3.19228 83.3848 3.94561 83.3848 4.83894C83.3848 5.61228 83.5481 6.23894 83.8748 6.71894C84.2014 7.19894 84.6081 7.57228 85.0948 7.83894C85.5881 8.10561 86.0748 8.30894 86.5548 8.44894L90.2448 9.53894C90.7781 9.69894 91.2114 9.92561 91.5448 10.2189C91.8848 10.5056 92.0548 10.9089 92.0548 11.4289C92.0548 11.9089 91.9048 12.3223 91.6048 12.6689C91.3114 13.0089 90.9214 13.2723 90.4348 13.4589C89.9481 13.6389 89.4148 13.7289 88.8348 13.7289C87.9014 13.7289 87.0848 13.4856 86.3848 12.9989C85.6848 12.5123 85.2248 11.8256 85.0048 10.9389L82.8248 11.2689C82.9848 12.1823 83.3314 12.9723 83.8648 13.6389C84.3981 14.2989 85.0814 14.8089 85.9148 15.1689C86.7481 15.5223 87.6814 15.6989 88.7148 15.6989Z" fill="black"/>
</svg>
