<svg width="120" height="113" viewBox="0 0 120 113" fill="none" xmlns="http://www.w3.org/2000/svg">
<line x1="11.9164" y1="19.1957" x2="2.48912" y2="46.4886" stroke="black" stroke-width="1.43432" stroke-linecap="round"/>
<rect x="23.4478" y="16.7534" width="96" height="96" rx="48" fill="#BEC6E0"/>
<path d="M56.2446 49.2417L49.1404 59.3362" stroke="#757D97" stroke-width="2" stroke-linecap="round" stroke-linejoin="bevel"/>
<path d="M92.5815 49.3174L82.1215 57.1259" stroke="#757D97" stroke-width="2" stroke-linecap="round" stroke-linejoin="bevel"/>
<path d="M57.6239 58.4544L47.7612 50.1237" stroke="#757D97" stroke-width="2" stroke-linecap="round" stroke-linejoin="bevel"/>
<path d="M90.5237 58.4419L84.1794 48.0018" stroke="#757D97" stroke-width="2" stroke-linecap="round" stroke-linejoin="bevel"/>
<circle cx="13.486" cy="13.7096" r="12.7517" fill="#F0F0F0" stroke="black" stroke-width="1.43432"/>
<mask id="mask0" mask-type="alpha" maskUnits="userSpaceOnUse" x="1" y="1" width="25" height="25">
<path d="M24.9687 13.7343C24.9687 20.0574 19.8004 25.1929 13.413 25.1929C7.02558 25.1929 1.8573 20.0574 1.8573 13.7343C1.8573 7.4113 7.02558 2.27576 13.413 2.27576C19.8004 2.27576 24.9687 7.4113 24.9687 13.7343Z" fill="#F0F0F0" stroke="black" stroke-width="1.43432"/>
</mask>
<g mask="url(#mask0)">
<path d="M12.4281 29.0509C19.9212 20.0884 20.2058 6.59333 19.4115 0.966078C25.8678 0.233086 38.8433 1.1008 39.0952 10.4356C39.41 22.1041 3.06171 40.254 12.4281 29.0509Z" fill="#FFB74C"/>
</g>
<path d="M11.2155 4.78711C8.92531 5.36609 4.28175 7.94568 4.02881 13.6322" stroke="black" stroke-width="1.43432" stroke-linecap="round" stroke-linejoin="round"/>
<path d="M50.5962 82.6276C57.1106 77.4811 74.0958 70.2759 89.9216 82.6276" stroke="#757D97" stroke-width="2" stroke-linecap="round" stroke-linejoin="bevel"/>
<circle opacity="0.45" cx="26.5687" cy="108.044" r="4.00469" fill="#AAB2CB"/>
<circle opacity="0.45" cx="112.078" cy="14.4848" r="2.00286" fill="#AAB2CB"/>
</svg>
