<svg width="158" height="114" viewBox="0 0 158 114" fill="none" xmlns="http://www.w3.org/2000/svg">
<line x1="28.278" y1="18.8252" x2="18.3824" y2="47.4738" stroke="black" stroke-width="1.43432"/>
<path d="M39.5994 66.8577C33.57 69.8304 21.3562 75.6492 20.7356 75.1433C19.9598 74.511 20.3947 61.4931 23.0438 56.0205C25.693 50.548 18.3969 45.059 14.036 47.5438C9.67504 50.0286 7.12667 53.1865 11.0621 55.8117C14.9976 58.4369 17.1499 52.0551 16.1036 59.9224C15.0572 67.7896 10.3339 78.496 16.9892 81.8531C22.3135 84.5387 32.4435 79.4013 36.843 76.4968" stroke="black" stroke-width="1.43432"/>
<rect x="35.8521" y="22.76" width="92.9073" height="91.1044" rx="24" fill="#B1BFD0"/>
<rect x="36.3521" y="22.8386" width="86.1836" height="85.306" rx="23.5" fill="#D9E2EE" stroke="black"/>
<rect x="41.0107" y="27.0581" width="76.8668" height="76.8668" rx="20" fill="#D9E2EE"/>
<ellipse cx="59.7789" cy="66.1449" rx="4.8009" ry="3.48473" fill="#9BB2D1"/>
<ellipse cx="94.8414" cy="65.9776" rx="4.8009" ry="3.48473" fill="#9BB2D1"/>
<path d="M66.1722 58.7104C66.1722 62.0064 63.9382 64.4638 61.4256 64.4638C58.9131 64.4638 56.6791 62.0064 56.6791 58.7104C56.6791 55.4143 58.9131 52.9569 61.4256 52.9569C63.9382 52.9569 66.1722 55.4143 66.1722 58.7104Z" fill="white" stroke="black" stroke-width="1.43432"/>
<ellipse cx="78.3243" cy="80.2589" rx="5.72278" ry="8.65294" fill="black"/>
<path d="M98.5679 59.0339C98.5679 62.3835 96.4643 64.7873 94.2101 64.7873C91.956 64.7873 89.8524 62.3835 89.8524 59.0339C89.8524 55.6842 91.956 53.2804 94.2101 53.2804C96.4643 53.2804 98.5679 55.6842 98.5679 59.0339Z" fill="white" stroke="black" stroke-width="1.43432"/>
<path d="M51.5732 46.9858C53.7092 45.6805 59.6896 42.8564 66.524 42.0022" stroke="black" stroke-width="2" stroke-linecap="round"/>
<path d="M104.079 46.9858C101.943 45.6805 95.9627 42.8564 89.1284 42.0022" stroke="black" stroke-width="2" stroke-linecap="round"/>
<path d="M122.851 65.2351C127.614 69.9786 137.328 79.3955 138.078 79.1145C139.015 78.7633 142.763 66.289 142.002 60.2568C141.24 54.2247 149.908 51.3551 153.246 55.1033C156.584 58.8514 157.99 62.6581 153.422 63.888C148.854 65.1178 148.854 58.3829 147.331 66.172C145.808 73.9611 146.862 85.6155 139.483 86.6697C133.58 87.513 125.623 79.4076 122.382 75.2495" stroke="black" stroke-width="1.43432"/>
<mask id="mask0" mask-type="alpha" maskUnits="userSpaceOnUse" x="72" y="71" width="13" height="18">
<ellipse cx="78.3243" cy="80.2589" rx="5.72278" ry="8.65294" fill="black"/>
</mask>
<g mask="url(#mask0)">
<ellipse cx="78.2507" cy="73.8669" rx="6.26192" ry="2.5356" fill="white"/>
</g>
<circle cx="29.6134" cy="14.0167" r="12.7517" fill="#F0F0F0" stroke="black" stroke-width="1.43432"/>
<mask id="mask1" mask-type="alpha" maskUnits="userSpaceOnUse" x="17" y="1" width="25" height="26">
<path d="M41.0961 14.0415C41.0961 20.3645 35.9279 25.5001 29.5404 25.5001C23.153 25.5001 17.9847 20.3645 17.9847 14.0415C17.9847 7.71843 23.153 2.58288 29.5404 2.58288C35.9279 2.58288 41.0961 7.71843 41.0961 14.0415Z" fill="#F0F0F0" stroke="black" stroke-width="1.43432"/>
</mask>
<g mask="url(#mask1)">
<path d="M28.5555 29.358C36.0486 20.3956 36.3333 6.90046 35.539 1.27321C41.9952 0.540215 54.9707 1.40793 55.2226 10.7428C55.5374 22.4113 19.1892 40.5611 28.5555 29.358Z" fill="#F7C945"/>
</g>
<path d="M27.3429 5.09448C25.0528 5.67346 20.4092 8.25305 20.1562 13.9396" stroke="black" stroke-width="1.43432" stroke-linecap="round" stroke-linejoin="round"/>
</svg>
