<svg width="636" height="321" viewBox="0 0 636 321" fill="none" xmlns="http://www.w3.org/2000/svg">
<path opacity="0.45" d="M202.373 178.202C202.373 147.9 214.411 118.839 235.838 97.4116C257.265 75.9846 286.326 63.9469 316.629 63.9469C346.931 63.9469 375.993 75.9845 397.42 97.4116C418.847 118.839 430.884 147.9 430.884 178.202L316.629 178.202L202.373 178.202Z" fill="#84B9FF"/>
<path d="M156.941 203.599C162.141 203.599 166.475 205.333 169.943 208.8C173.41 212.267 175.143 216.601 175.143 221.802C175.143 226.786 173.41 231.012 169.943 234.479C166.475 237.729 162.141 239.355 156.941 239.355H143.289V281.286C143.289 286.92 141.338 291.687 137.438 295.588C133.754 299.272 129.095 301.114 123.461 301.114C118.043 301.114 113.493 299.272 109.809 295.588C106.125 291.687 104.283 286.92 104.283 281.286V239.355H19.7705C15.0031 239.355 10.5608 237.513 6.44349 233.829C2.32622 229.928 0.267578 225.377 0.267578 220.177C0.267578 215.409 1.89282 211.075 5.1433 207.175L107.858 81.3812C111.976 76.1805 117.393 73.5801 124.111 73.5801C129.528 73.5801 134.079 75.5304 137.763 79.4309C141.447 83.1148 143.289 87.7738 143.289 93.408V203.599H156.941ZM51.6252 203.599H104.283V138.59L51.6252 203.599Z" fill="#84B9FF"/>
<path d="M617.458 203.599C622.659 203.599 626.993 205.333 630.46 208.8C633.927 212.267 635.661 216.601 635.661 221.802C635.661 226.786 633.927 231.012 630.46 234.479C626.993 237.729 622.659 239.355 617.458 239.355H603.806V281.286C603.806 286.92 601.856 291.687 597.955 295.588C594.272 299.272 589.613 301.114 583.978 301.114C578.561 301.114 574.01 299.272 570.326 295.588C566.642 291.687 564.801 286.92 564.801 281.286V239.355H480.288C475.521 239.355 471.078 237.513 466.961 233.829C462.844 229.928 460.785 225.377 460.785 220.177C460.785 215.409 462.41 211.075 465.661 207.175L568.376 81.3812C572.493 76.1805 577.911 73.5801 584.628 73.5801C590.046 73.5801 594.597 75.5304 598.28 79.4309C601.964 83.1148 603.806 87.7738 603.806 93.408V203.599H617.458ZM512.143 203.599H564.801V138.59L512.143 203.599Z" fill="#84B9FF"/>
<path d="M430.884 178.202C430.884 208.504 418.847 237.566 397.419 258.993C375.992 280.42 346.931 292.457 316.629 292.457C286.326 292.457 257.265 280.42 235.838 258.993C214.411 237.566 202.373 208.504 202.373 178.202L316.629 178.202H430.884Z" fill="#84B9FF"/>
<path d="M302.976 178.952L360.927 178.689L342.576 129.893L311.639 154.088C305.004 159.277 301.575 167.564 302.603 175.924L302.976 178.952Z" fill="#0C62DD"/>
<ellipse cx="360.671" cy="150.692" rx="28.603" ry="27.6146" transform="rotate(-24.2219 360.671 150.692)" fill="#032960"/>
<ellipse cx="362.17" cy="150.012" rx="26.9592" ry="27.6146" transform="rotate(-24.2219 362.17 150.012)" fill="#0C62DD"/>
<ellipse cx="365.693" cy="149.015" rx="23.3355" ry="26.4256" transform="rotate(-24.2219 365.693 149.015)" fill="#86B8FD"/>
<ellipse cx="365.693" cy="149.014" rx="19.1897" ry="21.7308" transform="rotate(-24.2219 365.693 149.014)" fill="#213751"/>
<ellipse rx="17.4543" ry="21.6456" transform="matrix(0.907905 -0.419176 0.401501 0.915859 363.815 149.575)" fill="#CBE3FF"/>
<ellipse rx="7.73165" ry="9.58827" transform="matrix(0.907905 -0.419176 0.401501 0.915859 371.257 149.665)" fill="#F7FBFF"/>
<ellipse opacity="0.45" cx="353.224" cy="147.265" rx="4.16939" ry="5.07151" transform="rotate(-24.2219 353.224 147.265)" fill="#F7FBFF"/>
<path d="M256.014 177.815L300.327 178.844L283.431 129.526L248.815 154.98C244.136 158.42 242.402 164.605 244.609 169.977C246.517 174.622 250.994 177.698 256.014 177.815Z" fill="#0C62DD"/>
<ellipse cx="301.133" cy="150.931" rx="29.1382" ry="27.6146" transform="rotate(-22.5227 301.133 150.931)" fill="#032960"/>
<ellipse cx="303.137" cy="150.097" rx="26.9686" ry="27.6146" transform="rotate(-22.5227 303.137 150.097)" fill="#0C62DD"/>
<ellipse cx="306.698" cy="149.204" rx="23.3355" ry="26.4256" transform="rotate(-22.5227 306.698 149.204)" fill="#86B8FD"/>
<ellipse cx="306.698" cy="149.204" rx="19.1897" ry="21.7308" transform="rotate(-22.5227 306.698 149.204)" fill="#213751"/>
<ellipse rx="17.2332" ry="21.6005" transform="matrix(0.918032 -0.396506 0.369896 0.929073 304.459 149.717)" fill="#CBE3FF"/>
<ellipse rx="7.63374" ry="9.56829" transform="matrix(0.917776 -0.397099 0.36933 0.929298 311.766 150.019)" fill="#F7FBFF"/>
<ellipse opacity="0.45" cx="294.286" cy="147.084" rx="4.16939" ry="5.07151" transform="rotate(-22.5227 294.286 147.084)" fill="#F7FBFF"/>
<mask id="mask0" mask-type="alpha" maskUnits="userSpaceOnUse" x="202" y="178" width="229" height="115">
<path d="M430.916 178.532C430.916 208.834 418.878 237.896 397.451 259.323C376.024 280.75 346.963 292.787 316.66 292.787C286.358 292.787 257.297 280.75 235.869 259.323C214.442 237.896 202.405 208.834 202.405 178.532L316.66 178.532H430.916Z" fill="#84B9FF"/>
</mask>
<g mask="url(#mask0)">
<path opacity="0.45" d="M220.309 186.161C190.965 172.299 203.933 192.668 192.773 193.608L231.197 269.875L332.418 293.716L445.831 225.709C442.808 220.069 446.225 197.629 430.316 187.4C410.43 174.614 364.449 207.595 345.679 193.816C326.908 180.037 295.013 207.5 271.162 199.244C247.312 190.988 249.652 200.023 220.309 186.161Z" fill="#6AA2ED"/>
<path opacity="0.45" d="M218.699 204.3C189.152 190.878 202.422 211.051 191.277 212.157L230.834 287.842L332.4 310.171L444.786 240.481C441.679 234.887 431.451 221.201 415.391 211.21C395.317 198.722 363.143 223.583 344.169 210.085C325.195 196.587 293.713 224.523 269.742 216.624C245.771 208.724 248.246 217.723 218.699 204.3Z" fill="#6DA0E4"/>
<path opacity="0.45" d="M240.055 234.313C211.153 219.552 214.238 232.547 203.054 233.142L239.107 310.558L339.545 337.509L455.002 273.034C452.154 267.303 442.562 253.163 426.977 242.449C407.494 229.055 381.958 247.987 363.621 233.635C345.285 219.283 320.099 246.198 296.515 237.21C272.93 228.223 268.957 249.073 240.055 234.313Z" fill="#8BBDFE"/>
<path d="M242.007 259.099C213.276 244.009 216.212 257.038 205.022 257.506L240.187 335.329L340.31 363.428L456.497 300.277C453.715 294.515 444.285 280.266 428.823 269.373C409.496 255.758 383.744 274.396 365.573 259.836C347.402 245.275 321.91 271.9 298.43 262.643C274.95 253.386 270.738 274.19 242.007 259.099Z" fill="#8AB9F5"/>
</g>
<circle cx="156.819" cy="13.1649" r="12.4383" fill="#CFDFF5"/>
<circle cx="452.547" cy="313.29" r="7.43617" fill="#CFDFF5"/>
<circle cx="432.301" cy="29.8399" r="7.08501" fill="#CFDFF5"/>
<circle cx="245.378" cy="293.699" r="4.51309" fill="#CFDFF5"/>
</svg>
