<svg width="278" height="239" viewBox="0 0 278 239" fill="none" xmlns="http://www.w3.org/2000/svg">
<mask id="mask0" mask-type="alpha" maskUnits="userSpaceOnUse" x="0" y="-1" width="278" height="240">
<rect x="0.293457" y="-0.134033" width="277.405" height="238.846" fill="#C4C4C4"/>
</mask>
<g mask="url(#mask0)">
<mask id="mask1" mask-type="alpha" maskUnits="userSpaceOnUse" x="-17" y="-174" width="373" height="399">
<rect x="41.2314" y="224.013" width="350" height="318.316" transform="rotate(-99.5433 41.2314 224.013)" fill="#C4C4C4"/>
</mask>
<g mask="url(#mask1)">
<path fill-rule="evenodd" clip-rule="evenodd" d="M321.748 -196.313C331.495 -209.931 350.437 -213.07 364.055 -203.322C377.674 -193.575 380.812 -174.633 371.065 -161.015L148.3 150.224L148.116 150.093L98.3078 189.877C94.4802 192.934 89.3884 193.654 84.9559 191.969L81.0452 197.433C80.0445 198.831 78.1 199.153 76.7019 198.152C75.3039 197.152 74.9817 195.207 75.9824 193.809L79.7933 188.485C76.3566 184.773 75.2011 179.364 77.0248 174.467L99.1541 115.049L98.9825 114.926L99.4355 114.293L99.4402 114.28L99.443 114.282L321.748 -196.313Z" fill="#010101" fill-opacity="0.09"/>
<path d="M343.611 -158.264L121.137 152.568L72.6328 117.852L295.107 -192.98C304.694 -206.374 323.323 -209.46 336.717 -199.874C350.111 -190.287 353.198 -171.658 343.611 -158.264Z" fill="#F7C945" stroke="black"/>
<line x1="0.5" y1="-0.5" x2="126.146" y2="-0.5" transform="matrix(0.579398 -0.815045 0.814192 0.580595 158.274 29.0479)" stroke="black" stroke-linecap="round" stroke-linejoin="round"/>
<rect x="61.5059" y="179.687" width="5.12912" height="19.9676" rx="2.56456" transform="rotate(35.5927 61.5059 179.687)" fill="#010101"/>
<path d="M56.608 177.903L72.688 118.148L120.828 152.604L68.8665 186.766C65.5224 188.965 61.0734 188.388 58.4 185.41C56.5707 183.372 55.8964 180.547 56.608 177.903Z" fill="#F1EDE9" stroke="black"/>
</g>
</g>
</svg>
