<svg width="351" height="320" viewBox="0 0 351 320" fill="none" xmlns="http://www.w3.org/2000/svg">
<mask id="mask0" mask-type="alpha" maskUnits="userSpaceOnUse" x="0" y="0" width="351" height="320">
<rect x="0.330078" y="0.761627" width="350" height="318.316" fill="#C4C4C4"/>
</mask>
<g mask="url(#mask0)">
<path fill-rule="evenodd" clip-rule="evenodd" d="M358.178 352.758C366.888 361.51 366.854 375.666 358.102 384.377C349.351 393.087 335.195 393.054 326.484 384.302L50.8661 107.372L50.9837 107.255L15.4014 52.6417C13.469 49.6757 13.4054 45.9441 15.0704 42.9633L9.81682 37.6847C8.92262 36.7863 8.92607 35.333 9.82453 34.4388C10.723 33.5446 12.1762 33.5481 13.0704 34.4465L18.224 39.6246C21.2988 37.6691 25.3205 37.6444 28.4623 39.7504L82.4492 75.9385L82.5596 75.8286L83.1095 76.3811L83.1194 76.3877L83.1177 76.3893L358.178 352.758Z" fill="#010101" fill-opacity="0.09"/>
<path d="M324.557 360.518L49.2915 83.9426L80.2762 53.1046L355.541 329.68C364.057 338.236 364.024 352.076 355.468 360.591C346.912 369.107 333.072 369.074 324.557 360.518Z" fill="#F7C945" stroke="black"/>
<line x1="157.797" y1="148.865" x2="246.642" y2="237.71" stroke="black" stroke-linecap="round" stroke-linejoin="round"/>
<rect x="18.2315" y="19.0669" width="3.78169" height="13.5379" rx="1.89084" transform="rotate(135.136 18.2315 19.0669)" fill="#010101"/>
<path d="M25.9022 16.7347L80.0527 53.0324L49.2263 83.7128L13.5386 28.9377C11.293 25.4911 11.7135 20.9524 14.554 17.9769C17.5313 14.8582 22.3207 14.3339 25.9022 16.7347Z" fill="#F1EDE9" stroke="black"/>
</g>
</svg>
