<svg width="24" height="25" viewBox="0 0 24 25" fill="none" xmlns="http://www.w3.org/2000/svg">
<g clip-path="url(#clip0)">
<path d="M16.6546 22.1037H4.81806C4.1319 22.1037 3.57568 22.66 3.57568 23.3461C3.57568 24.0323 4.13195 24.5886 4.81806 24.5886H19.4085C19.9696 24.5886 20.4244 24.1337 20.4244 23.5726V20.2976" fill="#D2D7DD"/>
<path d="M16.6546 21.4341H4.81806C4.1319 21.4341 3.57568 21.9904 3.57568 22.6765C3.57568 23.3626 4.13195 23.9189 4.81806 23.9189H19.4085C19.9696 23.9189 20.4244 23.464 20.4244 22.9029V19.6279" fill="#E4E7EA"/>
<path d="M16.6546 20.7649H4.81806C4.1319 20.7649 3.57568 21.3211 3.57568 22.0073C3.57568 22.6935 4.13195 23.2497 4.81806 23.2497H19.4085C19.9696 23.2497 20.4244 22.7948 20.4244 22.2338V18.9587" fill="#D2D7DD"/>
<path d="M16.6546 20.0952H4.81806C4.1319 20.0952 3.57568 20.6515 3.57568 21.3376C3.57568 22.0238 4.13195 22.58 4.81806 22.58H19.4085C19.9696 22.58 20.4244 22.1252 20.4244 21.5641V18.2891" fill="#E4E7EA"/>
<path d="M20.424 1.6044V21.0878C20.424 21.6486 19.9689 22.1036 19.4081 22.1036H4.8178C4.1316 22.1036 3.5752 22.66 3.5752 23.3462V1.83123C3.5752 1.14503 4.1316 0.588623 4.8178 0.588623H19.4082C19.9689 0.588623 20.424 1.04364 20.424 1.6044Z" fill="#00AEDA"/>
<path d="M5.33893 0.588379V22.1034H4.81829C4.13209 22.1034 3.57568 22.6598 3.57568 23.346V1.83099C3.57568 1.14478 4.13209 0.588379 4.81829 0.588379H5.33893Z" fill="#028BAA"/>
<path d="M7.25127 0.588623H6.5166V22.1036H7.25127V0.588623Z" fill="#028BAA"/>
<path d="M16.8584 11.8489H9.7651C9.18803 11.8489 8.72021 11.3811 8.72021 10.804V7.75119C8.72021 7.17411 9.18803 6.7063 9.7651 6.7063H16.8585C17.4356 6.7063 17.9034 7.17411 17.9034 7.75119V10.804C17.9033 11.3811 17.4355 11.8489 16.8584 11.8489Z" fill="#FEFFFF"/>
<path d="M17.4654 4.4289L15.9962 3.24348L14.5269 4.4289V0.588623H17.4654V4.4289Z" fill="#FEFFFF"/>
<path d="M16.8587 12.2161H9.76523C8.98654 12.2161 8.35303 11.5825 8.35303 10.8039V7.75107C8.35303 6.97238 8.98659 6.33887 9.76523 6.33887H16.8586C17.6373 6.33887 18.2708 6.97243 18.2708 7.75107V10.8039C18.2709 11.5826 17.6374 12.2161 16.8587 12.2161ZM9.76523 7.07354C9.39163 7.07354 9.0877 7.37752 9.0877 7.75107V10.8039C9.0877 11.1774 9.39163 11.4814 9.76523 11.4814H16.8586C17.2322 11.4814 17.5361 11.1774 17.5361 10.8039V7.75107C17.5361 7.37752 17.2322 7.07354 16.8586 7.07354H9.76523Z" fill="#028BAA"/>
</g>
<defs>
<clipPath id="clip0">
<rect width="24" height="24" fill="white" transform="translate(0 0.588379)"/>
</clipPath>
</defs>
</svg>
