<svg width="19" height="19" viewBox="0 0 19 19" fill="none" xmlns="http://www.w3.org/2000/svg">
<path d="M6.92171 13.1295C3.60791 13.1295 0.921549 10.4431 0.921549 7.12932C0.921549 3.81552 3.60791 1.12915 6.92171 1.12915C10.2355 1.12915 12.9219 3.81552 12.9219 7.12932C12.9219 10.4431 10.2355 13.1295 6.92171 13.1295Z" fill="#EEEFEE"/>
<path d="M2.62776 2.04131C1.41948 3.10167 0.646123 4.57148 0.456548 6.16783C0.266973 7.76419 0.674579 9.37425 1.60091 10.6881C2.52724 12.0019 3.90681 12.9267 5.47409 13.2844C7.04136 13.6421 8.68555 13.4074 10.0902 12.6255C10.2929 12.5107 10.5275 12.4651 10.7585 12.4959C10.9894 12.5266 11.204 12.632 11.3695 12.7959L12.7874 11.378C12.6236 11.2123 12.5183 10.9976 12.4875 10.7666C12.4568 10.5355 12.5023 10.3008 12.6171 10.098C13.3618 8.75685 13.6092 7.19585 13.3157 5.69017C13.0221 4.18448 12.2064 2.83077 11.0123 1.86767C9.81831 0.904565 8.3226 0.393909 6.78889 0.425718C5.25518 0.457526 3.78193 1.02976 2.62885 2.04153L2.62776 2.04131ZM10.8304 10.8441C10.0574 11.6172 9.07245 12.1437 8.0002 12.357C6.92796 12.5703 5.81654 12.4608 4.80649 12.0425C3.79645 11.6241 2.93315 10.9156 2.32576 10.0066C1.71837 9.09762 1.39418 8.02891 1.39418 6.93565C1.39418 5.8424 1.71837 4.77369 2.32576 3.86468C2.93315 2.95568 3.79645 2.2472 4.80649 1.82884C5.81654 1.41048 6.92796 1.30103 8.0002 1.51433C9.07245 1.72764 10.0574 2.25411 10.8304 3.02718C11.8638 4.06554 12.444 5.47087 12.444 6.93583C12.444 8.40079 11.864 9.80615 10.8306 10.8446L10.8304 10.8441Z" fill="#62667C"/>
<path d="M17.7619 15.137L13.21 11.2056L11.1945 13.221L15.1218 17.7752C15.2898 17.9701 15.4963 18.1282 15.7282 18.2397C15.9602 18.3512 16.2127 18.4137 16.4698 18.4232C16.727 18.4327 16.9834 18.389 17.223 18.2949C17.4625 18.2008 17.6801 18.0584 17.862 17.8764C18.044 17.6945 18.1864 17.477 18.2805 17.2376C18.3746 16.9982 18.4183 16.7419 18.4089 16.4849C18.3995 16.2278 18.3372 15.9754 18.2259 15.7435C18.1146 15.5116 17.9566 15.3051 17.7619 15.137V15.137Z" fill="#F6B863"/>
<path d="M13.7042 11.0871C13.7774 11.1586 13.8225 11.2539 13.8314 11.3558C13.8403 11.4577 13.8124 11.5594 13.7528 11.6425C13.7396 11.6646 13.7233 11.6845 13.7042 11.7018L11.6879 13.7181C11.671 13.7374 11.651 13.7538 11.6287 13.7666C11.5387 13.8261 11.4301 13.8504 11.3233 13.8349C11.2166 13.8194 11.1193 13.7652 11.05 13.6826C10.9807 13.6 10.9443 13.4947 10.9476 13.3869C10.9509 13.2792 10.9938 13.1764 11.068 13.0982L13.0843 11.0819C13.1252 11.0412 13.1738 11.0091 13.2272 10.9873C13.2805 10.9656 13.3377 10.9546 13.3954 10.9551C13.453 10.9556 13.51 10.9675 13.563 10.9902C13.6161 11.0128 13.6641 11.0458 13.7042 11.0871V11.0871Z" fill="#EAA14E"/>
</svg>
