<svg width="154" height="160" viewBox="0 0 154 160" fill="none" xmlns="http://www.w3.org/2000/svg">
<path d="M26.3954 102.172H127.366C130.915 102.172 133.978 104.66 134.706 108.133L139.759 132.241C140.736 136.901 137.18 141.28 132.419 141.28H21.235C16.4608 141.28 12.9018 136.878 13.9011 132.21L19.0616 108.102C19.802 104.643 22.8583 102.172 26.3954 102.172Z" stroke="black"/>
<rect x="29.0957" y="110.008" width="8.08669" height="3.94572" rx="1.97286" stroke="black"/>
<rect x="43.6509" y="110.008" width="8.08669" height="3.94572" rx="1.97286" stroke="black"/>
<rect x="58.2065" y="110.008" width="8.08669" height="3.94572" rx="1.97286" stroke="black"/>
<rect x="72.7622" y="110.008" width="8.08669" height="3.94572" rx="1.97286" stroke="black"/>
<rect x="87.3179" y="110.008" width="8.08669" height="3.94572" rx="1.97286" stroke="black"/>
<rect x="101.874" y="110.008" width="8.08669" height="3.94572" rx="1.97286" stroke="black"/>
<rect x="116.429" y="110.008" width="8.08669" height="3.94572" rx="1.97286" stroke="black"/>
<rect x="29.0952" y="119.834" width="8.08669" height="3.94572" rx="1.97286" stroke="black"/>
<rect x="43.6509" y="119.834" width="8.08669" height="3.94572" rx="1.97286" stroke="black"/>
<rect x="58.2065" y="119.834" width="8.08669" height="3.94572" rx="1.97286" stroke="black"/>
<rect x="72.7622" y="119.834" width="8.08669" height="3.94572" rx="1.97286" stroke="black"/>
<rect x="87.3179" y="119.834" width="8.08669" height="3.94572" rx="1.97286" stroke="black"/>
<rect x="101.874" y="119.834" width="8.08669" height="3.94572" rx="1.97286" stroke="black"/>
<rect x="116.429" y="119.834" width="8.08669" height="3.94572" rx="1.97286" stroke="black"/>
<rect x="29.0952" y="129.659" width="8.08669" height="3.94572" rx="1.97286" stroke="black"/>
<rect x="43.6509" y="129.659" width="8.08669" height="3.94572" rx="1.97286" stroke="black"/>
<rect x="58.2065" y="129.659" width="8.08669" height="3.94572" rx="1.97286" stroke="black"/>
<rect x="72.7622" y="129.659" width="8.08669" height="3.94572" rx="1.97286" stroke="black"/>
<rect x="87.3179" y="129.659" width="8.08669" height="3.94572" rx="1.97286" stroke="black"/>
<rect x="101.874" y="129.659" width="8.08669" height="3.94572" rx="1.97286" stroke="black"/>
<rect x="116.429" y="129.659" width="8.08669" height="3.94572" rx="1.97286" stroke="black"/>
<path d="M76.1607 141.624V141.624C76.1607 146.096 79.7859 149.721 84.2579 149.721H94.6352C97.1535 149.721 99.195 151.762 99.195 154.281V154.281C99.195 156.799 97.1535 158.84 94.6352 158.84H75.7676" stroke="black"/>
<path d="M36.7839 61.4289C33.012 66.9933 25.2708 78.0888 24.4813 77.9558C23.4944 77.7896 17.4377 66.2582 17.0355 60.1915C16.6333 54.1248 7.57772 52.9597 5.01501 57.2753C2.45229 61.5909 1.79795 65.5957 6.51666 65.9325C11.2354 66.2693 9.95187 59.6577 12.931 67.0139C15.9102 74.3701 17.0964 86.0118 24.5412 85.6404C30.4971 85.3432 36.7636 75.87 39.1524 71.1706" stroke="black" stroke-width="1.43432"/>
<path d="M117.676 58.0976C121.447 63.662 129.189 74.7575 129.978 74.6245C130.965 74.4583 137.022 62.9269 137.424 56.8602C137.826 50.7935 146.882 49.6284 149.444 53.944C152.007 58.2596 152.662 62.2644 147.943 62.6012C143.224 62.938 144.508 56.3264 141.528 63.6826C138.549 71.0388 137.363 82.6805 129.918 82.3091C123.962 82.0119 117.696 72.5387 115.307 67.8393" stroke="black" stroke-width="1.43432"/>
<rect x="29.9116" y="0.76001" width="92.9073" height="91.1044" rx="27.2522" fill="#F7C945"/>
<rect x="30.4116" y="0.838623" width="86.1836" height="85.306" rx="23.5" fill="white" stroke="black"/>
<rect x="35.2451" y="5.67212" width="76.8668" height="76.8668" rx="22.9492" fill="#EDEFF1"/>
<ellipse cx="53.839" cy="44.1449" rx="4.8009" ry="3.48473" fill="#BCBCB0"/>
<ellipse cx="88.9015" cy="43.9776" rx="4.8009" ry="3.48473" fill="#BCBCB0"/>
<path d="M60.2322 36.7104C60.2322 40.0064 57.9982 42.4638 55.4857 42.4638C52.9731 42.4638 50.7391 40.0064 50.7391 36.7104C50.7391 33.4143 52.9731 30.9569 55.4857 30.9569C57.9982 30.9569 60.2322 33.4143 60.2322 36.7104Z" fill="white" stroke="black" stroke-width="1.43432"/>
<path d="M92.6274 37.0339C92.6274 40.3835 90.5239 42.7873 88.2697 42.7873C86.0155 42.7873 83.912 40.3835 83.912 37.0339C83.912 33.6842 86.0155 31.2804 88.2697 31.2804C90.5239 31.2804 92.6274 33.6842 92.6274 37.0339Z" fill="white" stroke="black" stroke-width="1.43432"/>
<path d="M45.6333 24.9858C47.7692 23.6805 53.7497 20.8564 60.584 20.0022" stroke="black" stroke-width="1.43432"/>
<path d="M98.1392 24.9858C96.0032 23.6805 90.0228 20.8564 83.1884 20.0022" stroke="black" stroke-width="1.43432"/>
<path d="M62.2476 54.7549H85.0788V56.2785C85.0788 62.5832 79.9679 67.6942 73.6632 67.6942C67.3585 67.6942 62.2476 62.5832 62.2476 56.2785V54.7549Z" fill="black" stroke="black"/>
<mask id="mask0" mask-type="alpha" maskUnits="userSpaceOnUse" x="61" y="54" width="25" height="15">
<path d="M62.2476 54.7549H85.0788V56.2785C85.0788 62.5832 79.9679 67.6942 73.6632 67.6942C67.3585 67.6942 62.2476 62.5832 62.2476 56.2785V54.7549Z" fill="black" stroke="black"/>
</mask>
<g mask="url(#mask0)">
<circle cx="73.692" cy="66.8465" r="4.57677" fill="white"/>
</g>
</svg>
