<svg width="251" height="251" viewBox="0 0 251 251" fill="none" xmlns="http://www.w3.org/2000/svg">
<circle cx="125.645" cy="125.608" r="125" fill="#EDF0F1"/>
<mask id="mask0" mask-type="alpha" maskUnits="userSpaceOnUse" x="0" y="0" width="251" height="251">
<circle cx="125.645" cy="125.608" r="125" fill="#F3F3F3"/>
</mask>
<g mask="url(#mask0)">
<circle opacity="0.45" cx="22.7264" cy="216.956" r="29.3326" fill="#C4C4C4"/>
<path opacity="0.6" d="M189.502 148.543C189.587 137.653 193.198 89.7365 231.914 98.6743C307.39 116.098 287.842 -9.91856 221.661 31.0947" stroke="#717686"/>
<rect opacity="0.45" x="74.282" y="138.649" width="268.227" height="95.6539" rx="7" fill="#C4C4C4"/>
<rect x="77.4507" y="132.705" width="268.227" height="97.5802" rx="7" fill="#717686"/>
<rect x="77.7007" y="129.303" width="267.727" height="97.0802" rx="6.75" fill="#8F98B5" stroke="#717686" stroke-width="0.5"/>
<g filter="url(#filter0_d)">
<rect x="92.3833" y="141.831" width="13.8884" height="12.2346" rx="1" fill="#CED7F7"/>
</g>
<g filter="url(#filter1_d)">
<rect x="92.3828" y="161.822" width="13.8884" height="12.2346" rx="1" fill="#CED7F7"/>
</g>
<g filter="url(#filter2_d)">
<rect x="92.3833" y="180.973" width="13.8884" height="12.2346" rx="1" fill="#CED7F7"/>
</g>
<g filter="url(#filter3_d)">
<rect x="92.7029" y="200.969" width="13.8884" height="12.2346" rx="1" fill="#CED7F7"/>
</g>
<g filter="url(#filter4_d)">
<rect x="113.395" y="141.83" width="13.8884" height="12.2346" rx="1" fill="#CED7F7"/>
</g>
<g filter="url(#filter5_d)">
<rect x="113.394" y="161.822" width="13.8884" height="12.2346" rx="1" fill="#CED7F7"/>
</g>
<g filter="url(#filter6_d)">
<rect x="113.394" y="180.973" width="13.8884" height="12.2346" rx="1" fill="#CED7F7"/>
</g>
<g filter="url(#filter7_d)">
<rect x="113.713" y="200.969" width="13.8884" height="12.2346" rx="1" fill="#CED7F7"/>
</g>
<g filter="url(#filter8_d)">
<rect x="135.261" y="141.83" width="13.8884" height="12.2346" rx="1" fill="#CED7F7"/>
</g>
<g filter="url(#filter9_d)">
<rect x="135.261" y="161.822" width="13.8884" height="12.2346" rx="1" fill="#CED7F7"/>
</g>
<g filter="url(#filter10_d)">
<rect x="135.261" y="180.973" width="13.8884" height="12.2346" rx="1" fill="#CED7F7"/>
</g>
<g filter="url(#filter11_d)">
<rect x="135.582" y="200.969" width="79.9325" height="12.2346" rx="1" fill="#CED7F7"/>
</g>
<g filter="url(#filter12_d)">
<rect x="157.289" y="141.83" width="13.8884" height="12.2346" rx="1" fill="#CED7F7"/>
</g>
<g filter="url(#filter13_d)">
<rect x="157.289" y="161.822" width="13.8884" height="12.2346" rx="1" fill="#CED7F7"/>
</g>
<g filter="url(#filter14_d)">
<rect x="157.289" y="180.971" width="13.8884" height="12.2346" rx="1" fill="#CED7F7"/>
</g>
<g filter="url(#filter15_d)">
<rect x="179.316" y="141.83" width="13.8884" height="12.2346" rx="1" fill="#CED7F7"/>
</g>
<g filter="url(#filter16_d)">
<rect x="179.316" y="161.822" width="13.8884" height="12.2346" rx="1" fill="#CED7F7"/>
</g>
<g filter="url(#filter17_d)">
<rect x="179.316" y="180.973" width="13.8884" height="12.2346" rx="1" fill="#CED7F7"/>
</g>
<g filter="url(#filter18_d)">
<rect x="201.344" y="141.83" width="13.8884" height="12.2346" rx="1" fill="#CED7F7"/>
</g>
<g filter="url(#filter19_d)">
<rect x="201.344" y="161.822" width="13.8884" height="12.2346" rx="1" fill="#CED7F7"/>
</g>
<g filter="url(#filter20_d)">
<rect x="201.344" y="180.971" width="13.8884" height="12.2346" rx="1" fill="#CED7F7"/>
</g>
<g filter="url(#filter21_d)">
<path d="M223.37 142.83C223.37 142.278 223.818 141.83 224.37 141.83H236.259C236.811 141.83 237.259 142.278 237.259 142.83V153.065C237.259 153.617 236.811 154.065 236.259 154.065H224.37C223.818 154.065 223.37 153.617 223.37 153.065V142.83Z" fill="#CED7F7"/>
</g>
<g filter="url(#filter22_d)">
<rect x="223.37" y="161.822" width="13.8884" height="12.2346" rx="1" fill="#CED7F7"/>
</g>
<g filter="url(#filter23_d)">
<rect x="223.37" y="180.971" width="13.8884" height="12.2346" rx="1" fill="#CED7F7"/>
</g>
<g filter="url(#filter24_d)">
<rect x="223.689" y="200.969" width="13.8884" height="12.2346" rx="1" fill="#CED7F7"/>
</g>
<g filter="url(#filter25_d)">
<rect x="245.397" y="141.83" width="13.8884" height="12.2346" rx="1" fill="#CED7F7"/>
</g>
<g filter="url(#filter26_d)">
<rect x="245.397" y="161.822" width="13.8884" height="12.2346" rx="1" fill="#CED7F7"/>
</g>
<g filter="url(#filter27_d)">
<rect x="245.397" y="180.973" width="13.8884" height="12.2346" rx="1" fill="#CED7F7"/>
</g>
<g filter="url(#filter28_d)">
<rect x="245.717" y="200.969" width="13.8884" height="12.2346" rx="1" fill="#CED7F7"/>
</g>
<path d="M11.729 204.874L2.87109 146.222L51.8388 147.005C49.7776 160.831 45.5549 196.86 45.1538 199.239C44.6524 202.213 38.0033 209.746 29.2776 211.497C22.6284 212.831 14.3473 207.901 11.729 204.874Z" fill="#8FA9FF"/>
<mask id="mask1" mask-type="alpha" maskUnits="userSpaceOnUse" x="2" y="146" width="50" height="66">
<path d="M11.729 204.874L2.87109 146.222L51.8388 147.005C49.7776 160.831 45.5549 196.86 45.1538 199.239C44.6524 202.213 38.0033 209.746 29.2776 211.497C22.6284 212.831 14.3473 207.901 11.729 204.874Z" fill="#8FA9FF"/>
</mask>
<g mask="url(#mask1)">
<path d="M16.7059 145.189L-16.5024 132.249L-9.38633 224.974L27.0567 218.29L16.7059 145.189Z" fill="black" fill-opacity="0.11"/>
</g>
<path d="M27.653 124.567L44.2699 129.344L53.1115 141.437L50.0409 155.19L36.4947 164.166H18.8114L5.26517 155.19L2.1945 141.437L11.0361 129.344L27.653 124.567Z" fill="#FDFDFD"/>
<path d="M27.6528 127.9L41.5574 131.897L48.956 142.017L46.3865 153.525L35.0513 161.036H20.2543L8.91911 153.525L6.34963 142.017L13.7481 131.897L27.6528 127.9Z" fill="#E1E5E6"/>
<mask id="mask2" mask-type="alpha" maskUnits="userSpaceOnUse" x="6" y="96" width="43" height="66">
<path d="M29.4994 96.4268L41.5571 131.898L48.9556 142.018L46.3861 153.526L35.0509 161.037H20.2539L8.91872 153.526L6.34925 142.018L13.7478 131.898L6.00098 100.989L29.4994 96.4268Z" fill="#EBF2F4"/>
</mask>
<g mask="url(#mask2)">
<path fill-rule="evenodd" clip-rule="evenodd" d="M33.6631 187.801C34.0997 189.854 36.118 191.164 38.1711 190.728C40.2241 190.291 41.5344 188.273 41.0978 186.22L27.2816 121.257L27.2533 121.263L22.7856 111.127C22.5429 110.576 22.0174 110.22 21.4382 110.18L21.1746 108.941C21.1298 108.731 20.9226 108.596 20.7119 108.641C20.5011 108.686 20.3666 108.893 20.4114 109.104L20.67 110.319C20.1062 110.576 19.7292 111.146 19.7371 111.788L19.8731 122.833L19.8469 122.839L19.8748 122.97L19.8748 122.973L19.8754 122.972L33.6631 187.801Z" fill="#010101" fill-opacity="0.09"/>
<path d="M31.985 185.062C32.4217 187.115 34.4399 188.425 36.493 187.989C38.546 187.552 39.8564 185.534 39.4197 183.481L25.6035 118.518L18.1688 120.1L31.985 185.062Z" fill="#F7C945"/>
<line opacity="0.45" x1="0.25" y1="-0.25" x2="21.2781" y2="-0.25" transform="matrix(0.205704 0.978614 0.978614 -0.205704 24.7661 139.994)" stroke="white" stroke-width="0.5" stroke-linecap="round" stroke-linejoin="round"/>
<rect width="0.642833" height="3.22549" rx="0.321417" transform="matrix(0.978123 -0.208027 -0.208027 -0.978123 19.0195 108.171)" fill="#010101"/>
<path d="M18.1978 120.232L25.6327 118.651L21.1086 108.387C20.8107 107.711 20.0869 107.328 19.3606 107.464C18.5995 107.605 18.0506 108.274 18.0601 109.048L18.1978 120.232Z" fill="#C7B19B"/>
</g>
</g>
<path opacity="0.56" d="M33.5928 71.4824L224.11 71.4824" stroke="#AEB8CC"/>
<path fill-rule="evenodd" clip-rule="evenodd" d="M50.4314 59.6348C50.5257 59.5404 50.6377 59.4655 50.7611 59.4143C50.8844 59.3632 51.0165 59.3369 51.15 59.3369C51.2835 59.3369 51.4157 59.3632 51.539 59.4143C51.6623 59.4655 51.7743 59.5404 51.8686 59.6348L55.7791 63.5453C55.9696 63.7357 56.0768 63.9941 56.0769 64.2635C56.077 64.5329 55.97 64.7914 55.7796 64.982C55.5891 65.1725 55.3308 65.2797 55.0613 65.2798C54.7919 65.2799 54.5334 65.1729 54.3429 64.9825L50.4324 61.072C50.338 60.9777 50.2631 60.8657 50.2119 60.7424C50.1608 60.6191 50.1345 60.4869 50.1345 60.3534C50.1345 60.2199 50.1608 60.0878 50.2119 59.9645C50.2631 59.8412 50.338 59.7291 50.4324 59.6348H50.4314Z" fill="#2788DC"/>
<path fill-rule="evenodd" clip-rule="evenodd" d="M46.4272 61.2216C47.1609 61.2216 47.8873 61.0771 48.5651 60.7964C49.2428 60.5156 49.8587 60.1041 50.3774 59.5854C50.8961 59.0667 51.3076 58.4508 51.5884 57.7731C51.8691 57.0953 52.0136 56.3689 52.0136 55.6353C52.0136 54.9016 51.8691 54.1752 51.5884 53.4975C51.3076 52.8197 50.8961 52.2038 50.3774 51.6851C49.8587 51.1664 49.2428 50.7549 48.5651 50.4741C47.8873 50.1934 47.1609 50.0489 46.4272 50.0489C44.9457 50.0489 43.5247 50.6375 42.4771 51.6851C41.4295 52.7328 40.8409 54.1537 40.8409 55.6353C40.8409 57.1168 41.4295 58.5378 42.4771 59.5854C43.5247 60.633 44.9457 61.2216 46.4272 61.2216ZM53.0293 55.6353C53.0293 57.3862 52.3337 59.0655 51.0956 60.3036C49.8575 61.5417 48.1782 62.2373 46.4272 62.2373C44.6763 62.2373 42.997 61.5417 41.7589 60.3036C40.5208 59.0655 39.8252 57.3862 39.8252 55.6353C39.8252 53.8843 40.5208 52.205 41.7589 50.9669C42.997 49.7288 44.6763 49.0332 46.4272 49.0332C48.1782 49.0332 49.8575 49.7288 51.0956 50.9669C52.3337 52.205 53.0293 53.8843 53.0293 55.6353Z" fill="#2788DC"/>
<path opacity="0.45" d="M66.0256 48.0977L66.0256 66.6604" stroke="black" stroke-linecap="round"/>
<defs>
<filter id="filter0_d" x="91.8833" y="141.831" width="14.3884" height="12.7346" filterUnits="userSpaceOnUse" color-interpolation-filters="sRGB">
<feFlood flood-opacity="0" result="BackgroundImageFix"/>
<feColorMatrix in="SourceAlpha" type="matrix" values="0 0 0 0 0 0 0 0 0 0 0 0 0 0 0 0 0 0 127 0"/>
<feOffset dx="-0.5" dy="0.5"/>
<feColorMatrix type="matrix" values="0 0 0 0 0 0 0 0 0 0 0 0 0 0 0 0 0 0 0.45 0"/>
<feBlend mode="normal" in2="BackgroundImageFix" result="effect1_dropShadow"/>
<feBlend mode="normal" in="SourceGraphic" in2="effect1_dropShadow" result="shape"/>
</filter>
<filter id="filter1_d" x="91.8828" y="161.822" width="14.3884" height="12.7346" filterUnits="userSpaceOnUse" color-interpolation-filters="sRGB">
<feFlood flood-opacity="0" result="BackgroundImageFix"/>
<feColorMatrix in="SourceAlpha" type="matrix" values="0 0 0 0 0 0 0 0 0 0 0 0 0 0 0 0 0 0 127 0"/>
<feOffset dx="-0.5" dy="0.5"/>
<feColorMatrix type="matrix" values="0 0 0 0 0 0 0 0 0 0 0 0 0 0 0 0 0 0 0.45 0"/>
<feBlend mode="normal" in2="BackgroundImageFix" result="effect1_dropShadow"/>
<feBlend mode="normal" in="SourceGraphic" in2="effect1_dropShadow" result="shape"/>
</filter>
<filter id="filter2_d" x="91.8833" y="180.973" width="14.3884" height="12.7346" filterUnits="userSpaceOnUse" color-interpolation-filters="sRGB">
<feFlood flood-opacity="0" result="BackgroundImageFix"/>
<feColorMatrix in="SourceAlpha" type="matrix" values="0 0 0 0 0 0 0 0 0 0 0 0 0 0 0 0 0 0 127 0"/>
<feOffset dx="-0.5" dy="0.5"/>
<feColorMatrix type="matrix" values="0 0 0 0 0 0 0 0 0 0 0 0 0 0 0 0 0 0 0.45 0"/>
<feBlend mode="normal" in2="BackgroundImageFix" result="effect1_dropShadow"/>
<feBlend mode="normal" in="SourceGraphic" in2="effect1_dropShadow" result="shape"/>
</filter>
<filter id="filter3_d" x="92.2029" y="200.969" width="14.3884" height="12.7346" filterUnits="userSpaceOnUse" color-interpolation-filters="sRGB">
<feFlood flood-opacity="0" result="BackgroundImageFix"/>
<feColorMatrix in="SourceAlpha" type="matrix" values="0 0 0 0 0 0 0 0 0 0 0 0 0 0 0 0 0 0 127 0"/>
<feOffset dx="-0.5" dy="0.5"/>
<feColorMatrix type="matrix" values="0 0 0 0 0 0 0 0 0 0 0 0 0 0 0 0 0 0 0.45 0"/>
<feBlend mode="normal" in2="BackgroundImageFix" result="effect1_dropShadow"/>
<feBlend mode="normal" in="SourceGraphic" in2="effect1_dropShadow" result="shape"/>
</filter>
<filter id="filter4_d" x="112.895" y="141.83" width="14.3884" height="12.7346" filterUnits="userSpaceOnUse" color-interpolation-filters="sRGB">
<feFlood flood-opacity="0" result="BackgroundImageFix"/>
<feColorMatrix in="SourceAlpha" type="matrix" values="0 0 0 0 0 0 0 0 0 0 0 0 0 0 0 0 0 0 127 0"/>
<feOffset dx="-0.5" dy="0.5"/>
<feColorMatrix type="matrix" values="0 0 0 0 0 0 0 0 0 0 0 0 0 0 0 0 0 0 0.45 0"/>
<feBlend mode="normal" in2="BackgroundImageFix" result="effect1_dropShadow"/>
<feBlend mode="normal" in="SourceGraphic" in2="effect1_dropShadow" result="shape"/>
</filter>
<filter id="filter5_d" x="112.894" y="161.822" width="14.3884" height="12.7346" filterUnits="userSpaceOnUse" color-interpolation-filters="sRGB">
<feFlood flood-opacity="0" result="BackgroundImageFix"/>
<feColorMatrix in="SourceAlpha" type="matrix" values="0 0 0 0 0 0 0 0 0 0 0 0 0 0 0 0 0 0 127 0"/>
<feOffset dx="-0.5" dy="0.5"/>
<feColorMatrix type="matrix" values="0 0 0 0 0 0 0 0 0 0 0 0 0 0 0 0 0 0 0.45 0"/>
<feBlend mode="normal" in2="BackgroundImageFix" result="effect1_dropShadow"/>
<feBlend mode="normal" in="SourceGraphic" in2="effect1_dropShadow" result="shape"/>
</filter>
<filter id="filter6_d" x="112.894" y="180.973" width="14.3884" height="12.7346" filterUnits="userSpaceOnUse" color-interpolation-filters="sRGB">
<feFlood flood-opacity="0" result="BackgroundImageFix"/>
<feColorMatrix in="SourceAlpha" type="matrix" values="0 0 0 0 0 0 0 0 0 0 0 0 0 0 0 0 0 0 127 0"/>
<feOffset dx="-0.5" dy="0.5"/>
<feColorMatrix type="matrix" values="0 0 0 0 0 0 0 0 0 0 0 0 0 0 0 0 0 0 0.45 0"/>
<feBlend mode="normal" in2="BackgroundImageFix" result="effect1_dropShadow"/>
<feBlend mode="normal" in="SourceGraphic" in2="effect1_dropShadow" result="shape"/>
</filter>
<filter id="filter7_d" x="113.213" y="200.969" width="14.3884" height="12.7346" filterUnits="userSpaceOnUse" color-interpolation-filters="sRGB">
<feFlood flood-opacity="0" result="BackgroundImageFix"/>
<feColorMatrix in="SourceAlpha" type="matrix" values="0 0 0 0 0 0 0 0 0 0 0 0 0 0 0 0 0 0 127 0"/>
<feOffset dx="-0.5" dy="0.5"/>
<feColorMatrix type="matrix" values="0 0 0 0 0 0 0 0 0 0 0 0 0 0 0 0 0 0 0.45 0"/>
<feBlend mode="normal" in2="BackgroundImageFix" result="effect1_dropShadow"/>
<feBlend mode="normal" in="SourceGraphic" in2="effect1_dropShadow" result="shape"/>
</filter>
<filter id="filter8_d" x="134.761" y="141.83" width="14.3884" height="12.7346" filterUnits="userSpaceOnUse" color-interpolation-filters="sRGB">
<feFlood flood-opacity="0" result="BackgroundImageFix"/>
<feColorMatrix in="SourceAlpha" type="matrix" values="0 0 0 0 0 0 0 0 0 0 0 0 0 0 0 0 0 0 127 0"/>
<feOffset dx="-0.5" dy="0.5"/>
<feColorMatrix type="matrix" values="0 0 0 0 0 0 0 0 0 0 0 0 0 0 0 0 0 0 0.45 0"/>
<feBlend mode="normal" in2="BackgroundImageFix" result="effect1_dropShadow"/>
<feBlend mode="normal" in="SourceGraphic" in2="effect1_dropShadow" result="shape"/>
</filter>
<filter id="filter9_d" x="134.761" y="161.822" width="14.3884" height="12.7346" filterUnits="userSpaceOnUse" color-interpolation-filters="sRGB">
<feFlood flood-opacity="0" result="BackgroundImageFix"/>
<feColorMatrix in="SourceAlpha" type="matrix" values="0 0 0 0 0 0 0 0 0 0 0 0 0 0 0 0 0 0 127 0"/>
<feOffset dx="-0.5" dy="0.5"/>
<feColorMatrix type="matrix" values="0 0 0 0 0 0 0 0 0 0 0 0 0 0 0 0 0 0 0.45 0"/>
<feBlend mode="normal" in2="BackgroundImageFix" result="effect1_dropShadow"/>
<feBlend mode="normal" in="SourceGraphic" in2="effect1_dropShadow" result="shape"/>
</filter>
<filter id="filter10_d" x="134.761" y="180.973" width="14.3884" height="12.7346" filterUnits="userSpaceOnUse" color-interpolation-filters="sRGB">
<feFlood flood-opacity="0" result="BackgroundImageFix"/>
<feColorMatrix in="SourceAlpha" type="matrix" values="0 0 0 0 0 0 0 0 0 0 0 0 0 0 0 0 0 0 127 0"/>
<feOffset dx="-0.5" dy="0.5"/>
<feColorMatrix type="matrix" values="0 0 0 0 0 0 0 0 0 0 0 0 0 0 0 0 0 0 0.45 0"/>
<feBlend mode="normal" in2="BackgroundImageFix" result="effect1_dropShadow"/>
<feBlend mode="normal" in="SourceGraphic" in2="effect1_dropShadow" result="shape"/>
</filter>
<filter id="filter11_d" x="135.082" y="200.969" width="80.4325" height="12.7346" filterUnits="userSpaceOnUse" color-interpolation-filters="sRGB">
<feFlood flood-opacity="0" result="BackgroundImageFix"/>
<feColorMatrix in="SourceAlpha" type="matrix" values="0 0 0 0 0 0 0 0 0 0 0 0 0 0 0 0 0 0 127 0"/>
<feOffset dx="-0.5" dy="0.5"/>
<feColorMatrix type="matrix" values="0 0 0 0 0 0 0 0 0 0 0 0 0 0 0 0 0 0 0.45 0"/>
<feBlend mode="normal" in2="BackgroundImageFix" result="effect1_dropShadow"/>
<feBlend mode="normal" in="SourceGraphic" in2="effect1_dropShadow" result="shape"/>
</filter>
<filter id="filter12_d" x="156.789" y="141.83" width="14.3884" height="12.7346" filterUnits="userSpaceOnUse" color-interpolation-filters="sRGB">
<feFlood flood-opacity="0" result="BackgroundImageFix"/>
<feColorMatrix in="SourceAlpha" type="matrix" values="0 0 0 0 0 0 0 0 0 0 0 0 0 0 0 0 0 0 127 0"/>
<feOffset dx="-0.5" dy="0.5"/>
<feColorMatrix type="matrix" values="0 0 0 0 0 0 0 0 0 0 0 0 0 0 0 0 0 0 0.45 0"/>
<feBlend mode="normal" in2="BackgroundImageFix" result="effect1_dropShadow"/>
<feBlend mode="normal" in="SourceGraphic" in2="effect1_dropShadow" result="shape"/>
</filter>
<filter id="filter13_d" x="156.789" y="161.822" width="14.3884" height="12.7346" filterUnits="userSpaceOnUse" color-interpolation-filters="sRGB">
<feFlood flood-opacity="0" result="BackgroundImageFix"/>
<feColorMatrix in="SourceAlpha" type="matrix" values="0 0 0 0 0 0 0 0 0 0 0 0 0 0 0 0 0 0 127 0"/>
<feOffset dx="-0.5" dy="0.5"/>
<feColorMatrix type="matrix" values="0 0 0 0 0 0 0 0 0 0 0 0 0 0 0 0 0 0 0.45 0"/>
<feBlend mode="normal" in2="BackgroundImageFix" result="effect1_dropShadow"/>
<feBlend mode="normal" in="SourceGraphic" in2="effect1_dropShadow" result="shape"/>
</filter>
<filter id="filter14_d" x="156.789" y="180.971" width="14.3884" height="12.7346" filterUnits="userSpaceOnUse" color-interpolation-filters="sRGB">
<feFlood flood-opacity="0" result="BackgroundImageFix"/>
<feColorMatrix in="SourceAlpha" type="matrix" values="0 0 0 0 0 0 0 0 0 0 0 0 0 0 0 0 0 0 127 0"/>
<feOffset dx="-0.5" dy="0.5"/>
<feColorMatrix type="matrix" values="0 0 0 0 0 0 0 0 0 0 0 0 0 0 0 0 0 0 0.45 0"/>
<feBlend mode="normal" in2="BackgroundImageFix" result="effect1_dropShadow"/>
<feBlend mode="normal" in="SourceGraphic" in2="effect1_dropShadow" result="shape"/>
</filter>
<filter id="filter15_d" x="178.816" y="141.83" width="14.3884" height="12.7346" filterUnits="userSpaceOnUse" color-interpolation-filters="sRGB">
<feFlood flood-opacity="0" result="BackgroundImageFix"/>
<feColorMatrix in="SourceAlpha" type="matrix" values="0 0 0 0 0 0 0 0 0 0 0 0 0 0 0 0 0 0 127 0"/>
<feOffset dx="-0.5" dy="0.5"/>
<feColorMatrix type="matrix" values="0 0 0 0 0 0 0 0 0 0 0 0 0 0 0 0 0 0 0.45 0"/>
<feBlend mode="normal" in2="BackgroundImageFix" result="effect1_dropShadow"/>
<feBlend mode="normal" in="SourceGraphic" in2="effect1_dropShadow" result="shape"/>
</filter>
<filter id="filter16_d" x="178.816" y="161.822" width="14.3884" height="12.7346" filterUnits="userSpaceOnUse" color-interpolation-filters="sRGB">
<feFlood flood-opacity="0" result="BackgroundImageFix"/>
<feColorMatrix in="SourceAlpha" type="matrix" values="0 0 0 0 0 0 0 0 0 0 0 0 0 0 0 0 0 0 127 0"/>
<feOffset dx="-0.5" dy="0.5"/>
<feColorMatrix type="matrix" values="0 0 0 0 0 0 0 0 0 0 0 0 0 0 0 0 0 0 0.45 0"/>
<feBlend mode="normal" in2="BackgroundImageFix" result="effect1_dropShadow"/>
<feBlend mode="normal" in="SourceGraphic" in2="effect1_dropShadow" result="shape"/>
</filter>
<filter id="filter17_d" x="178.816" y="180.973" width="14.3884" height="12.7346" filterUnits="userSpaceOnUse" color-interpolation-filters="sRGB">
<feFlood flood-opacity="0" result="BackgroundImageFix"/>
<feColorMatrix in="SourceAlpha" type="matrix" values="0 0 0 0 0 0 0 0 0 0 0 0 0 0 0 0 0 0 127 0"/>
<feOffset dx="-0.5" dy="0.5"/>
<feColorMatrix type="matrix" values="0 0 0 0 0 0 0 0 0 0 0 0 0 0 0 0 0 0 0.45 0"/>
<feBlend mode="normal" in2="BackgroundImageFix" result="effect1_dropShadow"/>
<feBlend mode="normal" in="SourceGraphic" in2="effect1_dropShadow" result="shape"/>
</filter>
<filter id="filter18_d" x="200.844" y="141.83" width="14.3884" height="12.7346" filterUnits="userSpaceOnUse" color-interpolation-filters="sRGB">
<feFlood flood-opacity="0" result="BackgroundImageFix"/>
<feColorMatrix in="SourceAlpha" type="matrix" values="0 0 0 0 0 0 0 0 0 0 0 0 0 0 0 0 0 0 127 0"/>
<feOffset dx="-0.5" dy="0.5"/>
<feColorMatrix type="matrix" values="0 0 0 0 0 0 0 0 0 0 0 0 0 0 0 0 0 0 0.45 0"/>
<feBlend mode="normal" in2="BackgroundImageFix" result="effect1_dropShadow"/>
<feBlend mode="normal" in="SourceGraphic" in2="effect1_dropShadow" result="shape"/>
</filter>
<filter id="filter19_d" x="200.844" y="161.822" width="14.3884" height="12.7346" filterUnits="userSpaceOnUse" color-interpolation-filters="sRGB">
<feFlood flood-opacity="0" result="BackgroundImageFix"/>
<feColorMatrix in="SourceAlpha" type="matrix" values="0 0 0 0 0 0 0 0 0 0 0 0 0 0 0 0 0 0 127 0"/>
<feOffset dx="-0.5" dy="0.5"/>
<feColorMatrix type="matrix" values="0 0 0 0 0 0 0 0 0 0 0 0 0 0 0 0 0 0 0.45 0"/>
<feBlend mode="normal" in2="BackgroundImageFix" result="effect1_dropShadow"/>
<feBlend mode="normal" in="SourceGraphic" in2="effect1_dropShadow" result="shape"/>
</filter>
<filter id="filter20_d" x="200.844" y="180.971" width="14.3884" height="12.7346" filterUnits="userSpaceOnUse" color-interpolation-filters="sRGB">
<feFlood flood-opacity="0" result="BackgroundImageFix"/>
<feColorMatrix in="SourceAlpha" type="matrix" values="0 0 0 0 0 0 0 0 0 0 0 0 0 0 0 0 0 0 127 0"/>
<feOffset dx="-0.5" dy="0.5"/>
<feColorMatrix type="matrix" values="0 0 0 0 0 0 0 0 0 0 0 0 0 0 0 0 0 0 0.45 0"/>
<feBlend mode="normal" in2="BackgroundImageFix" result="effect1_dropShadow"/>
<feBlend mode="normal" in="SourceGraphic" in2="effect1_dropShadow" result="shape"/>
</filter>
<filter id="filter21_d" x="222.87" y="141.83" width="14.3884" height="12.7346" filterUnits="userSpaceOnUse" color-interpolation-filters="sRGB">
<feFlood flood-opacity="0" result="BackgroundImageFix"/>
<feColorMatrix in="SourceAlpha" type="matrix" values="0 0 0 0 0 0 0 0 0 0 0 0 0 0 0 0 0 0 127 0"/>
<feOffset dx="-0.5" dy="0.5"/>
<feColorMatrix type="matrix" values="0 0 0 0 0 0 0 0 0 0 0 0 0 0 0 0 0 0 0.45 0"/>
<feBlend mode="normal" in2="BackgroundImageFix" result="effect1_dropShadow"/>
<feBlend mode="normal" in="SourceGraphic" in2="effect1_dropShadow" result="shape"/>
</filter>
<filter id="filter22_d" x="222.87" y="161.822" width="14.3884" height="12.7346" filterUnits="userSpaceOnUse" color-interpolation-filters="sRGB">
<feFlood flood-opacity="0" result="BackgroundImageFix"/>
<feColorMatrix in="SourceAlpha" type="matrix" values="0 0 0 0 0 0 0 0 0 0 0 0 0 0 0 0 0 0 127 0"/>
<feOffset dx="-0.5" dy="0.5"/>
<feColorMatrix type="matrix" values="0 0 0 0 0 0 0 0 0 0 0 0 0 0 0 0 0 0 0.45 0"/>
<feBlend mode="normal" in2="BackgroundImageFix" result="effect1_dropShadow"/>
<feBlend mode="normal" in="SourceGraphic" in2="effect1_dropShadow" result="shape"/>
</filter>
<filter id="filter23_d" x="222.87" y="180.971" width="14.3884" height="12.7346" filterUnits="userSpaceOnUse" color-interpolation-filters="sRGB">
<feFlood flood-opacity="0" result="BackgroundImageFix"/>
<feColorMatrix in="SourceAlpha" type="matrix" values="0 0 0 0 0 0 0 0 0 0 0 0 0 0 0 0 0 0 127 0"/>
<feOffset dx="-0.5" dy="0.5"/>
<feColorMatrix type="matrix" values="0 0 0 0 0 0 0 0 0 0 0 0 0 0 0 0 0 0 0.45 0"/>
<feBlend mode="normal" in2="BackgroundImageFix" result="effect1_dropShadow"/>
<feBlend mode="normal" in="SourceGraphic" in2="effect1_dropShadow" result="shape"/>
</filter>
<filter id="filter24_d" x="223.189" y="200.969" width="14.3884" height="12.7346" filterUnits="userSpaceOnUse" color-interpolation-filters="sRGB">
<feFlood flood-opacity="0" result="BackgroundImageFix"/>
<feColorMatrix in="SourceAlpha" type="matrix" values="0 0 0 0 0 0 0 0 0 0 0 0 0 0 0 0 0 0 127 0"/>
<feOffset dx="-0.5" dy="0.5"/>
<feColorMatrix type="matrix" values="0 0 0 0 0 0 0 0 0 0 0 0 0 0 0 0 0 0 0.45 0"/>
<feBlend mode="normal" in2="BackgroundImageFix" result="effect1_dropShadow"/>
<feBlend mode="normal" in="SourceGraphic" in2="effect1_dropShadow" result="shape"/>
</filter>
<filter id="filter25_d" x="244.897" y="141.83" width="14.3884" height="12.7346" filterUnits="userSpaceOnUse" color-interpolation-filters="sRGB">
<feFlood flood-opacity="0" result="BackgroundImageFix"/>
<feColorMatrix in="SourceAlpha" type="matrix" values="0 0 0 0 0 0 0 0 0 0 0 0 0 0 0 0 0 0 127 0"/>
<feOffset dx="-0.5" dy="0.5"/>
<feColorMatrix type="matrix" values="0 0 0 0 0 0 0 0 0 0 0 0 0 0 0 0 0 0 0.45 0"/>
<feBlend mode="normal" in2="BackgroundImageFix" result="effect1_dropShadow"/>
<feBlend mode="normal" in="SourceGraphic" in2="effect1_dropShadow" result="shape"/>
</filter>
<filter id="filter26_d" x="244.897" y="161.822" width="14.3884" height="12.7346" filterUnits="userSpaceOnUse" color-interpolation-filters="sRGB">
<feFlood flood-opacity="0" result="BackgroundImageFix"/>
<feColorMatrix in="SourceAlpha" type="matrix" values="0 0 0 0 0 0 0 0 0 0 0 0 0 0 0 0 0 0 127 0"/>
<feOffset dx="-0.5" dy="0.5"/>
<feColorMatrix type="matrix" values="0 0 0 0 0 0 0 0 0 0 0 0 0 0 0 0 0 0 0.45 0"/>
<feBlend mode="normal" in2="BackgroundImageFix" result="effect1_dropShadow"/>
<feBlend mode="normal" in="SourceGraphic" in2="effect1_dropShadow" result="shape"/>
</filter>
<filter id="filter27_d" x="244.897" y="180.973" width="14.3884" height="12.7346" filterUnits="userSpaceOnUse" color-interpolation-filters="sRGB">
<feFlood flood-opacity="0" result="BackgroundImageFix"/>
<feColorMatrix in="SourceAlpha" type="matrix" values="0 0 0 0 0 0 0 0 0 0 0 0 0 0 0 0 0 0 127 0"/>
<feOffset dx="-0.5" dy="0.5"/>
<feColorMatrix type="matrix" values="0 0 0 0 0 0 0 0 0 0 0 0 0 0 0 0 0 0 0.45 0"/>
<feBlend mode="normal" in2="BackgroundImageFix" result="effect1_dropShadow"/>
<feBlend mode="normal" in="SourceGraphic" in2="effect1_dropShadow" result="shape"/>
</filter>
<filter id="filter28_d" x="245.217" y="200.969" width="14.3884" height="12.7346" filterUnits="userSpaceOnUse" color-interpolation-filters="sRGB">
<feFlood flood-opacity="0" result="BackgroundImageFix"/>
<feColorMatrix in="SourceAlpha" type="matrix" values="0 0 0 0 0 0 0 0 0 0 0 0 0 0 0 0 0 0 127 0"/>
<feOffset dx="-0.5" dy="0.5"/>
<feColorMatrix type="matrix" values="0 0 0 0 0 0 0 0 0 0 0 0 0 0 0 0 0 0 0.45 0"/>
<feBlend mode="normal" in2="BackgroundImageFix" result="effect1_dropShadow"/>
<feBlend mode="normal" in="SourceGraphic" in2="effect1_dropShadow" result="shape"/>
</filter>
</defs>
</svg>
