<svg width="145" height="156" viewBox="0 0 145 156" fill="none" xmlns="http://www.w3.org/2000/svg">
<path d="M15.5741 103.998C16.3639 100.308 19.6239 97.6721 23.3969 97.6721H124.367C128.153 97.6721 131.421 100.326 132.197 104.031L137.25 128.139C138.292 133.109 134.499 137.78 129.42 137.78H18.2365C13.144 137.78 9.34774 133.085 10.4137 128.106L15.5741 103.998Z" fill="#889BB4"/>
<path d="M23.3088 98.1721H124.454C127.966 98.1721 131.008 100.61 131.774 104.037L136.607 125.677C137.653 130.362 134.088 134.811 129.287 134.811H18.373C13.5577 134.811 9.98997 130.338 11.0608 125.643L15.9966 104.004C16.7749 100.592 19.8093 98.1721 23.3088 98.1721Z" fill="#D9E2EE" stroke="#889BB4"/>
<g opacity="0.51">
<rect x="26.0972" y="104.009" width="8.08669" height="3.94572" rx="1.97286" stroke="#485C75"/>
<rect x="40.6523" y="104.009" width="8.08669" height="3.94572" rx="1.97286" stroke="#485C75"/>
<rect x="55.208" y="104.009" width="8.08669" height="3.94572" rx="1.97286" stroke="#485C75"/>
<rect x="69.7637" y="104.009" width="8.08669" height="3.94572" rx="1.97286" stroke="#485C75"/>
<rect x="84.3193" y="104.009" width="8.08669" height="3.94572" rx="1.97286" stroke="#485C75"/>
<rect x="98.875" y="104.009" width="8.08669" height="3.94572" rx="1.97286" stroke="#485C75"/>
<rect x="113.431" y="104.009" width="8.08669" height="3.94572" rx="1.97286" stroke="#485C75"/>
<rect x="26.0967" y="113.834" width="8.08669" height="3.94572" rx="1.97286" stroke="#485C75"/>
<rect x="40.6523" y="113.834" width="8.08669" height="3.94572" rx="1.97286" stroke="#485C75"/>
<rect x="55.208" y="113.834" width="8.08669" height="3.94572" rx="1.97286" stroke="#485C75"/>
<rect x="69.7637" y="113.834" width="8.08669" height="3.94572" rx="1.97286" stroke="#485C75"/>
<rect x="84.3193" y="113.834" width="8.08669" height="3.94572" rx="1.97286" stroke="#485C75"/>
<rect x="98.875" y="113.834" width="8.08669" height="3.94572" rx="1.97286" stroke="#485C75"/>
<rect x="113.431" y="113.834" width="8.08669" height="3.94572" rx="1.97286" stroke="#485C75"/>
<rect x="26.0967" y="123.659" width="8.08669" height="3.94572" rx="1.97286" stroke="#485C75"/>
<rect x="40.6523" y="123.659" width="8.08669" height="3.94572" rx="1.97286" stroke="#485C75"/>
<rect x="55.208" y="123.659" width="8.08669" height="3.94572" rx="1.97286" stroke="#485C75"/>
<rect x="69.7637" y="123.659" width="8.08669" height="3.94572" rx="1.97286" stroke="#485C75"/>
<rect x="84.3193" y="123.659" width="8.08669" height="3.94572" rx="1.97286" stroke="#485C75"/>
<rect x="98.875" y="123.659" width="8.08669" height="3.94572" rx="1.97286" stroke="#485C75"/>
<rect x="113.431" y="123.659" width="8.08669" height="3.94572" rx="1.97286" stroke="#485C75"/>
</g>
<path d="M73.1621 137.624V137.624C73.1621 142.096 76.7874 145.721 81.2594 145.721H91.6367C94.155 145.721 96.1964 147.763 96.1964 150.281V150.281C96.1964 152.799 94.155 154.841 91.6367 154.841H72.769" stroke="#9BADC3"/>
<path d="M32.8885 42.0248C29.4184 47.144 23.535 62.9602 22.8087 62.8379C21.9007 62.685 16.3286 52.0762 15.9586 46.4949C15.5886 40.9136 7.2576 39.8417 4.89993 43.812C2.54226 47.7824 1.94028 51.4667 6.28144 51.7766C10.6226 52.0864 9.44179 46.0039 12.1826 52.7715C14.9234 59.5391 16.0147 70.2493 22.8638 69.9076C28.3431 69.6342 34.1082 60.919 36.3059 56.5955" stroke="#889BB4" stroke-width="1.43432"/>
<path d="M112.673 48.5911C116.143 53.7102 122.442 67.4988 122.638 68.3425C122.846 69.2394 129.118 57.5809 129.488 51.9996C129.858 46.4183 138.189 45.3464 140.547 49.3167C142.905 53.287 143.506 56.9714 139.165 57.2812C134.824 57.591 136.005 51.5085 133.264 58.2761C130.523 65.0437 129.432 75.7539 122.583 75.4122C117.104 75.1388 111.339 66.4236 109.141 62.1002" stroke="#889BB4" stroke-width="1.43432"/>
<rect x="30.5786" y="0.388184" width="87.5018" height="83.8149" rx="26" fill="#9BADC4"/>
<rect x="31.0786" y="0.500488" width="79.2078" height="78.4004" rx="25.5" fill="#D9E2EE" stroke="#889BB4"/>
<ellipse cx="52.5911" cy="40.3016" rx="4.41677" ry="3.2059" fill="#9BB2D1"/>
<ellipse cx="84.8479" cy="40.1478" rx="4.41677" ry="3.2059" fill="#9BB2D1"/>
<path d="M58.4155 33.4619C58.4155 36.472 56.3772 38.6977 54.1061 38.6977C51.835 38.6977 49.7968 36.472 49.7968 33.4619C49.7968 30.4518 51.835 28.2262 54.1061 28.2262C56.3772 28.2262 58.4155 30.4518 58.4155 33.4619Z" fill="#D9E2EE" stroke="#485C75" stroke-width="1.43432"/>
<path d="M88.2186 33.7595C88.2186 36.8232 86.2969 38.9953 84.267 38.9953C82.2371 38.9953 80.3153 36.8232 80.3153 33.7595C80.3153 30.6958 82.2371 28.5238 84.267 28.5238C86.2969 28.5238 88.2186 30.6958 88.2186 33.7595Z" fill="#D9E2EE" stroke="#485C75" stroke-width="1.43432"/>
<path d="M45.042 22.6756C47.007 21.4748 52.509 18.8766 58.7965 18.0908" stroke="#485C75" stroke-width="1.43432" stroke-linecap="round"/>
<path d="M93.3467 22.6756C91.3816 21.4748 85.8797 18.8766 79.5922 18.0908" stroke="#485C75" stroke-width="1.43432" stroke-linecap="round"/>
<path d="M59.8667 53.7869H81.7912V53.7869C81.7912 58.5584 77.923 62.4266 73.1515 62.4266H68.5064C63.7348 62.4266 59.8667 58.5584 59.8667 53.7869V53.7869Z" fill="#485C75"/>
<mask id="mask0" mask-type="alpha" maskUnits="userSpaceOnUse" x="59" y="53" width="23" height="10">
<path d="M59.8842 54.3625H80.7796C80.5208 58.8051 76.8361 62.328 72.3286 62.328H68.3351C63.8276 62.328 60.1429 58.8051 59.8842 54.3625Z" fill="black" stroke="black"/>
</mask>
<g mask="url(#mask0)">
<circle cx="70.8556" cy="62.3649" r="4.21057" fill="#D9E2EE"/>
</g>
</svg>
